%TF.GenerationSoftware,KiCad,Pcbnew,6.0.11*%
%TF.CreationDate,2024-08-04T21:37:39+01:00*%
%TF.ProjectId,ESPboard,45535062-6f61-4726-942e-6b696361645f,rev?*%
%TF.SameCoordinates,PX87a6900PY5d04800*%
%TF.FileFunction,Copper,L2,Bot*%
%TF.FilePolarity,Positive*%
%FSLAX46Y46*%
G04 Gerber Fmt 4.6, Leading zero omitted, Abs format (unit mm)*
G04 Created by KiCad (PCBNEW 6.0.11) date 2024-08-04 21:37:39*
%MOMM*%
%LPD*%
G01*
G04 APERTURE LIST*
G04 Aperture macros list*
%AMFreePoly0*
4,1,6,1.000000,0.000000,0.500000,-0.750000,-0.500000,-0.750000,-0.500000,0.750000,0.500000,0.750000,1.000000,0.000000,1.000000,0.000000,$1*%
%AMFreePoly1*
4,1,6,0.500000,-0.750000,-0.650000,-0.750000,-0.150000,0.000000,-0.650000,0.750000,0.500000,0.750000,0.500000,-0.750000,0.500000,-0.750000,$1*%
G04 Aperture macros list end*
%TA.AperFunction,ComponentPad*%
%ADD10R,1.500000X1.500000*%
%TD*%
%TA.AperFunction,ComponentPad*%
%ADD11C,1.500000*%
%TD*%
%TA.AperFunction,ComponentPad*%
%ADD12R,1.700000X1.700000*%
%TD*%
%TA.AperFunction,ComponentPad*%
%ADD13O,1.700000X1.700000*%
%TD*%
%TA.AperFunction,SMDPad,CuDef*%
%ADD14FreePoly0,180.000000*%
%TD*%
%TA.AperFunction,SMDPad,CuDef*%
%ADD15FreePoly1,180.000000*%
%TD*%
%TA.AperFunction,ViaPad*%
%ADD16C,0.800000*%
%TD*%
%TA.AperFunction,Conductor*%
%ADD17C,0.400000*%
%TD*%
G04 APERTURE END LIST*
D10*
X44776000Y-4826000D03*
D11*
X44776000Y-7366000D03*
X44776000Y-9906000D03*
X44776000Y-12446000D03*
X42236000Y-4826000D03*
X42236000Y-7366000D03*
X42236000Y-9906000D03*
X42236000Y-12446000D03*
D12*
X32766000Y-4844000D03*
D13*
X32766000Y-2304000D03*
D12*
X2286000Y-27432000D03*
D13*
X2286000Y-24892000D03*
D12*
X44704000Y-32004000D03*
D13*
X44704000Y-29464000D03*
X44704000Y-26924000D03*
X44704000Y-24384000D03*
X44704000Y-21844000D03*
X44704000Y-19304000D03*
D12*
X35814000Y-34036000D03*
D13*
X33274000Y-34036000D03*
X30734000Y-34036000D03*
X28194000Y-34036000D03*
X25654000Y-34036000D03*
X23114000Y-34036000D03*
D14*
X40857000Y-29464000D03*
D15*
X39407000Y-29464000D03*
D14*
X30226000Y-23368000D03*
D15*
X28776000Y-23368000D03*
D14*
X25146000Y-20320000D03*
D15*
X23696000Y-20320000D03*
D14*
X35306000Y-26416000D03*
D15*
X33856000Y-26416000D03*
D16*
X29972000Y-9906000D03*
X7112000Y-3302000D03*
X16510000Y-19939500D03*
X26924000Y-32004000D03*
X32004000Y-32004000D03*
X24638000Y-23368000D03*
X29464000Y-26416000D03*
X21336000Y-20320000D03*
X34798000Y-29464000D03*
D17*
X32766000Y-4844000D02*
X37174000Y-4844000D01*
X37174000Y-4844000D02*
X42236000Y-9906000D01*
X32004000Y-32004000D02*
X26924000Y-32004000D01*
X26924000Y-32004000D02*
X25146000Y-32004000D01*
X25146000Y-32004000D02*
X23114000Y-34036000D01*
X44704000Y-29464000D02*
X40857000Y-29464000D01*
X46228000Y-11358000D02*
X46228000Y-27940000D01*
X44776000Y-9906000D02*
X46228000Y-11358000D01*
X46228000Y-27940000D02*
X44704000Y-29464000D01*
X35814000Y-26924000D02*
X35306000Y-26416000D01*
X44704000Y-26924000D02*
X35814000Y-26924000D01*
X43688000Y-23368000D02*
X44704000Y-24384000D01*
X30226000Y-23368000D02*
X43688000Y-23368000D01*
X42926000Y-20066000D02*
X42926000Y-19050000D01*
X44704000Y-21844000D02*
X42926000Y-20066000D01*
X43942000Y-22606000D02*
X44704000Y-21844000D01*
X31750000Y-21844000D02*
X26670000Y-21844000D01*
X44776000Y-12446000D02*
X44776000Y-16184000D01*
X26670000Y-21844000D02*
X25146000Y-20320000D01*
X44776000Y-16184000D02*
X42926000Y-18034000D01*
X42926000Y-18034000D02*
X42926000Y-19050000D01*
X31750000Y-21844000D02*
X32512000Y-22606000D01*
X32512000Y-22606000D02*
X43942000Y-22606000D01*
X28776000Y-23368000D02*
X24638000Y-23368000D01*
X29464000Y-26416000D02*
X33856000Y-26416000D01*
X23696000Y-20320000D02*
X21336000Y-20320000D01*
X39407000Y-29464000D02*
X34798000Y-29464000D01*
%TA.AperFunction,Conductor*%
G36*
X47433621Y-528502D02*
G01*
X47480114Y-582158D01*
X47491500Y-634500D01*
X47491500Y-35365500D01*
X47471498Y-35433621D01*
X47417842Y-35480114D01*
X47365500Y-35491500D01*
X37081427Y-35491500D01*
X37013306Y-35471498D01*
X36966813Y-35417842D01*
X36956709Y-35347568D01*
X36986203Y-35282988D01*
X37005862Y-35264674D01*
X37019724Y-35254285D01*
X37032285Y-35241724D01*
X37108786Y-35139649D01*
X37117324Y-35124054D01*
X37162478Y-35003606D01*
X37166105Y-34988351D01*
X37171631Y-34937486D01*
X37172000Y-34930672D01*
X37172000Y-34308115D01*
X37167525Y-34292876D01*
X37166135Y-34291671D01*
X37158452Y-34290000D01*
X35686000Y-34290000D01*
X35617879Y-34269998D01*
X35571386Y-34216342D01*
X35560000Y-34164000D01*
X35560000Y-33763885D01*
X36068000Y-33763885D01*
X36072475Y-33779124D01*
X36073865Y-33780329D01*
X36081548Y-33782000D01*
X37153884Y-33782000D01*
X37169123Y-33777525D01*
X37170328Y-33776135D01*
X37171999Y-33768452D01*
X37171999Y-33141331D01*
X37171629Y-33134510D01*
X37166105Y-33083648D01*
X37162479Y-33068396D01*
X37117324Y-32947946D01*
X37108786Y-32932351D01*
X37083543Y-32898669D01*
X43346001Y-32898669D01*
X43346371Y-32905490D01*
X43351895Y-32956352D01*
X43355521Y-32971604D01*
X43400676Y-33092054D01*
X43409214Y-33107649D01*
X43485715Y-33209724D01*
X43498276Y-33222285D01*
X43600351Y-33298786D01*
X43615946Y-33307324D01*
X43736394Y-33352478D01*
X43751649Y-33356105D01*
X43802514Y-33361631D01*
X43809328Y-33362000D01*
X44431885Y-33362000D01*
X44447124Y-33357525D01*
X44448329Y-33356135D01*
X44450000Y-33348452D01*
X44450000Y-33343884D01*
X44958000Y-33343884D01*
X44962475Y-33359123D01*
X44963865Y-33360328D01*
X44971548Y-33361999D01*
X45598669Y-33361999D01*
X45605490Y-33361629D01*
X45656352Y-33356105D01*
X45671604Y-33352479D01*
X45792054Y-33307324D01*
X45807649Y-33298786D01*
X45909724Y-33222285D01*
X45922285Y-33209724D01*
X45998786Y-33107649D01*
X46007324Y-33092054D01*
X46052478Y-32971606D01*
X46056105Y-32956351D01*
X46061631Y-32905486D01*
X46062000Y-32898672D01*
X46062000Y-32276115D01*
X46057525Y-32260876D01*
X46056135Y-32259671D01*
X46048452Y-32258000D01*
X44976115Y-32258000D01*
X44960876Y-32262475D01*
X44959671Y-32263865D01*
X44958000Y-32271548D01*
X44958000Y-33343884D01*
X44450000Y-33343884D01*
X44450000Y-32276115D01*
X44445525Y-32260876D01*
X44444135Y-32259671D01*
X44436452Y-32258000D01*
X43364116Y-32258000D01*
X43348877Y-32262475D01*
X43347672Y-32263865D01*
X43346001Y-32271548D01*
X43346001Y-32898669D01*
X37083543Y-32898669D01*
X37032285Y-32830276D01*
X37019724Y-32817715D01*
X36917649Y-32741214D01*
X36902054Y-32732676D01*
X36781606Y-32687522D01*
X36766351Y-32683895D01*
X36715486Y-32678369D01*
X36708672Y-32678000D01*
X36086115Y-32678000D01*
X36070876Y-32682475D01*
X36069671Y-32683865D01*
X36068000Y-32691548D01*
X36068000Y-33763885D01*
X35560000Y-33763885D01*
X35560000Y-32696116D01*
X35555525Y-32680877D01*
X35554135Y-32679672D01*
X35546452Y-32678001D01*
X34919331Y-32678001D01*
X34912510Y-32678371D01*
X34861648Y-32683895D01*
X34846396Y-32687521D01*
X34725946Y-32732676D01*
X34710351Y-32741214D01*
X34608276Y-32817715D01*
X34595715Y-32830276D01*
X34519214Y-32932351D01*
X34510676Y-32947946D01*
X34469297Y-33058322D01*
X34426655Y-33115087D01*
X34360093Y-33139786D01*
X34290744Y-33124578D01*
X34258121Y-33098891D01*
X34207151Y-33042876D01*
X34207145Y-33042870D01*
X34203670Y-33039051D01*
X34199619Y-33035852D01*
X34199615Y-33035848D01*
X34032414Y-32903800D01*
X34032410Y-32903798D01*
X34028359Y-32900598D01*
X33990077Y-32879465D01*
X33883317Y-32820531D01*
X33832789Y-32792638D01*
X33827920Y-32790914D01*
X33827916Y-32790912D01*
X33627087Y-32719795D01*
X33627083Y-32719794D01*
X33622212Y-32718069D01*
X33617119Y-32717162D01*
X33617116Y-32717161D01*
X33407373Y-32679800D01*
X33407367Y-32679799D01*
X33402284Y-32678894D01*
X33328452Y-32677992D01*
X33184081Y-32676228D01*
X33184079Y-32676228D01*
X33178911Y-32676165D01*
X32958091Y-32709955D01*
X32943488Y-32714728D01*
X32883609Y-32734299D01*
X32812645Y-32736450D01*
X32751783Y-32699893D01*
X32720347Y-32636236D01*
X32728317Y-32565688D01*
X32740963Y-32543251D01*
X32743040Y-32540944D01*
X32838527Y-32375556D01*
X32897542Y-32193928D01*
X32917504Y-32004000D01*
X32897542Y-31814072D01*
X32838527Y-31632444D01*
X32743040Y-31467056D01*
X32736411Y-31459693D01*
X32619675Y-31330045D01*
X32619674Y-31330044D01*
X32615253Y-31325134D01*
X32460752Y-31212882D01*
X32454724Y-31210198D01*
X32454722Y-31210197D01*
X32292319Y-31137891D01*
X32292318Y-31137891D01*
X32286288Y-31135206D01*
X32192888Y-31115353D01*
X32105944Y-31096872D01*
X32105939Y-31096872D01*
X32099487Y-31095500D01*
X31908513Y-31095500D01*
X31902061Y-31096872D01*
X31902056Y-31096872D01*
X31815112Y-31115353D01*
X31721712Y-31135206D01*
X31715682Y-31137891D01*
X31715681Y-31137891D01*
X31553278Y-31210197D01*
X31553276Y-31210198D01*
X31547248Y-31212882D01*
X31541907Y-31216762D01*
X31541906Y-31216763D01*
X31466656Y-31271436D01*
X31399789Y-31295294D01*
X31392595Y-31295500D01*
X27535405Y-31295500D01*
X27467284Y-31275498D01*
X27461344Y-31271436D01*
X27386094Y-31216763D01*
X27386093Y-31216762D01*
X27380752Y-31212882D01*
X27374724Y-31210198D01*
X27374722Y-31210197D01*
X27212319Y-31137891D01*
X27212318Y-31137891D01*
X27206288Y-31135206D01*
X27112888Y-31115353D01*
X27025944Y-31096872D01*
X27025939Y-31096872D01*
X27019487Y-31095500D01*
X26828513Y-31095500D01*
X26822061Y-31096872D01*
X26822056Y-31096872D01*
X26735112Y-31115353D01*
X26641712Y-31135206D01*
X26635682Y-31137891D01*
X26635681Y-31137891D01*
X26473278Y-31210197D01*
X26473276Y-31210198D01*
X26467248Y-31212882D01*
X26461907Y-31216762D01*
X26461906Y-31216763D01*
X26386656Y-31271436D01*
X26319789Y-31295294D01*
X26312595Y-31295500D01*
X25174912Y-31295500D01*
X25166342Y-31295208D01*
X25116224Y-31291791D01*
X25116220Y-31291791D01*
X25108648Y-31291275D01*
X25101171Y-31292580D01*
X25101170Y-31292580D01*
X25074692Y-31297201D01*
X25045697Y-31302262D01*
X25039179Y-31303223D01*
X24975758Y-31310898D01*
X24968657Y-31313581D01*
X24966048Y-31314222D01*
X24949738Y-31318685D01*
X24947202Y-31319450D01*
X24939716Y-31320757D01*
X24932759Y-31323811D01*
X24881205Y-31346442D01*
X24875101Y-31348933D01*
X24815344Y-31371513D01*
X24809081Y-31375817D01*
X24806715Y-31377054D01*
X24791903Y-31385299D01*
X24789649Y-31386632D01*
X24782695Y-31389685D01*
X24731998Y-31428587D01*
X24726668Y-31432459D01*
X24680280Y-31464339D01*
X24680275Y-31464344D01*
X24674019Y-31468643D01*
X24668968Y-31474313D01*
X24668966Y-31474314D01*
X24632565Y-31515170D01*
X24627584Y-31520446D01*
X23481316Y-32666714D01*
X23419004Y-32700740D01*
X23370125Y-32701666D01*
X23247373Y-32679800D01*
X23247367Y-32679799D01*
X23242284Y-32678894D01*
X23168452Y-32677992D01*
X23024081Y-32676228D01*
X23024079Y-32676228D01*
X23018911Y-32676165D01*
X22798091Y-32709955D01*
X22585756Y-32779357D01*
X22555443Y-32795137D01*
X22393451Y-32879465D01*
X22387607Y-32882507D01*
X22383474Y-32885610D01*
X22383471Y-32885612D01*
X22268938Y-32971606D01*
X22208965Y-33016635D01*
X22054629Y-33178138D01*
X21928743Y-33362680D01*
X21834688Y-33565305D01*
X21774989Y-33780570D01*
X21751251Y-34002695D01*
X21751548Y-34007848D01*
X21751548Y-34007851D01*
X21753171Y-34036000D01*
X21764110Y-34225715D01*
X21765247Y-34230761D01*
X21765248Y-34230767D01*
X21782680Y-34308115D01*
X21813222Y-34443639D01*
X21897266Y-34650616D01*
X21948942Y-34734944D01*
X22011291Y-34836688D01*
X22013987Y-34841088D01*
X22160250Y-35009938D01*
X22332126Y-35152632D01*
X22419847Y-35203892D01*
X22510238Y-35256712D01*
X22558962Y-35308351D01*
X22572033Y-35378134D01*
X22545302Y-35443905D01*
X22487255Y-35484784D01*
X22446668Y-35491500D01*
X634500Y-35491500D01*
X566379Y-35471498D01*
X519886Y-35417842D01*
X508500Y-35365500D01*
X508500Y-33068000D01*
X1386526Y-33068000D01*
X1406391Y-33320403D01*
X1407545Y-33325210D01*
X1407546Y-33325216D01*
X1423541Y-33391840D01*
X1465495Y-33566591D01*
X1467388Y-33571162D01*
X1467389Y-33571164D01*
X1556256Y-33785707D01*
X1562384Y-33800502D01*
X1694672Y-34016376D01*
X1859102Y-34208898D01*
X2051624Y-34373328D01*
X2267498Y-34505616D01*
X2272068Y-34507509D01*
X2272072Y-34507511D01*
X2496836Y-34600611D01*
X2501409Y-34602505D01*
X2586032Y-34622821D01*
X2742784Y-34660454D01*
X2742790Y-34660455D01*
X2747597Y-34661609D01*
X2847416Y-34669465D01*
X2934345Y-34676307D01*
X2934352Y-34676307D01*
X2936801Y-34676500D01*
X3063199Y-34676500D01*
X3065648Y-34676307D01*
X3065655Y-34676307D01*
X3152584Y-34669465D01*
X3252403Y-34661609D01*
X3257210Y-34660455D01*
X3257216Y-34660454D01*
X3413968Y-34622821D01*
X3498591Y-34602505D01*
X3503164Y-34600611D01*
X3727928Y-34507511D01*
X3727932Y-34507509D01*
X3732502Y-34505616D01*
X3948376Y-34373328D01*
X4140898Y-34208898D01*
X4305328Y-34016376D01*
X4437616Y-33800502D01*
X4443745Y-33785707D01*
X4532611Y-33571164D01*
X4532612Y-33571162D01*
X4534505Y-33566591D01*
X4576459Y-33391840D01*
X4592454Y-33325216D01*
X4592455Y-33325210D01*
X4593609Y-33320403D01*
X4613474Y-33068000D01*
X4593609Y-32815597D01*
X4591916Y-32808542D01*
X4535660Y-32574221D01*
X4534505Y-32569409D01*
X4532611Y-32564836D01*
X4439511Y-32340072D01*
X4439509Y-32340068D01*
X4437616Y-32335498D01*
X4305328Y-32119624D01*
X4140898Y-31927102D01*
X3948376Y-31762672D01*
X3732502Y-31630384D01*
X3727932Y-31628491D01*
X3727928Y-31628489D01*
X3503164Y-31535389D01*
X3503162Y-31535388D01*
X3498591Y-31533495D01*
X3413968Y-31513179D01*
X3257216Y-31475546D01*
X3257210Y-31475545D01*
X3252403Y-31474391D01*
X3152584Y-31466535D01*
X3065655Y-31459693D01*
X3065648Y-31459693D01*
X3063199Y-31459500D01*
X2936801Y-31459500D01*
X2934352Y-31459693D01*
X2934345Y-31459693D01*
X2847416Y-31466535D01*
X2747597Y-31474391D01*
X2742790Y-31475545D01*
X2742784Y-31475546D01*
X2586032Y-31513179D01*
X2501409Y-31533495D01*
X2496838Y-31535388D01*
X2496836Y-31535389D01*
X2272072Y-31628489D01*
X2272068Y-31628491D01*
X2267498Y-31630384D01*
X2051624Y-31762672D01*
X1859102Y-31927102D01*
X1694672Y-32119624D01*
X1562384Y-32335498D01*
X1560491Y-32340068D01*
X1560489Y-32340072D01*
X1467389Y-32564836D01*
X1465495Y-32569409D01*
X1464340Y-32574221D01*
X1408085Y-32808542D01*
X1406391Y-32815597D01*
X1386526Y-33068000D01*
X508500Y-33068000D01*
X508500Y-28326669D01*
X928001Y-28326669D01*
X928371Y-28333490D01*
X933895Y-28384352D01*
X937521Y-28399604D01*
X982676Y-28520054D01*
X991214Y-28535649D01*
X1067715Y-28637724D01*
X1080276Y-28650285D01*
X1182351Y-28726786D01*
X1197946Y-28735324D01*
X1318394Y-28780478D01*
X1333649Y-28784105D01*
X1384514Y-28789631D01*
X1391328Y-28790000D01*
X2013885Y-28790000D01*
X2029124Y-28785525D01*
X2030329Y-28784135D01*
X2032000Y-28776452D01*
X2032000Y-28771884D01*
X2540000Y-28771884D01*
X2544475Y-28787123D01*
X2545865Y-28788328D01*
X2553548Y-28789999D01*
X3180669Y-28789999D01*
X3187490Y-28789629D01*
X3238352Y-28784105D01*
X3253604Y-28780479D01*
X3374054Y-28735324D01*
X3389649Y-28726786D01*
X3491724Y-28650285D01*
X3504285Y-28637724D01*
X3580786Y-28535649D01*
X3589324Y-28520054D01*
X3634478Y-28399606D01*
X3638105Y-28384351D01*
X3643631Y-28333486D01*
X3644000Y-28326672D01*
X3644000Y-27704115D01*
X3639525Y-27688876D01*
X3638135Y-27687671D01*
X3630452Y-27686000D01*
X2558115Y-27686000D01*
X2542876Y-27690475D01*
X2541671Y-27691865D01*
X2540000Y-27699548D01*
X2540000Y-28771884D01*
X2032000Y-28771884D01*
X2032000Y-27704115D01*
X2027525Y-27688876D01*
X2026135Y-27687671D01*
X2018452Y-27686000D01*
X946116Y-27686000D01*
X930877Y-27690475D01*
X929672Y-27691865D01*
X928001Y-27699548D01*
X928001Y-28326669D01*
X508500Y-28326669D01*
X508500Y-24858695D01*
X923251Y-24858695D01*
X923548Y-24863848D01*
X923548Y-24863851D01*
X935812Y-25076547D01*
X936110Y-25081715D01*
X937247Y-25086761D01*
X937248Y-25086767D01*
X959392Y-25185023D01*
X985222Y-25299639D01*
X1069266Y-25506616D01*
X1071965Y-25511020D01*
X1165719Y-25664013D01*
X1185987Y-25697088D01*
X1332250Y-25865938D01*
X1336225Y-25869238D01*
X1336231Y-25869244D01*
X1341425Y-25873556D01*
X1381059Y-25932460D01*
X1382555Y-26003441D01*
X1345439Y-26063962D01*
X1305168Y-26088480D01*
X1197946Y-26128676D01*
X1182351Y-26137214D01*
X1080276Y-26213715D01*
X1067715Y-26226276D01*
X991214Y-26328351D01*
X982676Y-26343946D01*
X937522Y-26464394D01*
X933895Y-26479649D01*
X928369Y-26530514D01*
X928000Y-26537328D01*
X928000Y-27159885D01*
X932475Y-27175124D01*
X933865Y-27176329D01*
X941548Y-27178000D01*
X3625884Y-27178000D01*
X3641123Y-27173525D01*
X3642328Y-27172135D01*
X3643999Y-27164452D01*
X3643999Y-26537331D01*
X3643629Y-26530510D01*
X3638105Y-26479648D01*
X3634479Y-26464396D01*
X3589324Y-26343946D01*
X3580786Y-26328351D01*
X3504285Y-26226276D01*
X3491724Y-26213715D01*
X3389649Y-26137214D01*
X3374054Y-26128676D01*
X3263813Y-26087348D01*
X3207049Y-26044706D01*
X3182349Y-25978145D01*
X3197557Y-25908796D01*
X3219104Y-25880115D01*
X3320430Y-25779144D01*
X3320440Y-25779132D01*
X3324096Y-25775489D01*
X3383594Y-25692689D01*
X3451435Y-25598277D01*
X3454453Y-25594077D01*
X3473818Y-25554896D01*
X3551136Y-25398453D01*
X3551137Y-25398451D01*
X3553430Y-25393811D01*
X3602038Y-25233824D01*
X3616865Y-25185023D01*
X3616865Y-25185021D01*
X3618370Y-25180069D01*
X3647529Y-24958590D01*
X3649156Y-24892000D01*
X3630852Y-24669361D01*
X3576431Y-24452702D01*
X3487354Y-24247840D01*
X3379811Y-24081604D01*
X3368822Y-24064617D01*
X3368820Y-24064614D01*
X3366014Y-24060277D01*
X3215670Y-23895051D01*
X3211619Y-23891852D01*
X3211615Y-23891848D01*
X3044414Y-23759800D01*
X3044410Y-23759798D01*
X3040359Y-23756598D01*
X2844789Y-23648638D01*
X2839920Y-23646914D01*
X2839916Y-23646912D01*
X2639087Y-23575795D01*
X2639083Y-23575794D01*
X2634212Y-23574069D01*
X2629119Y-23573162D01*
X2629116Y-23573161D01*
X2419373Y-23535800D01*
X2419367Y-23535799D01*
X2414284Y-23534894D01*
X2340452Y-23533992D01*
X2196081Y-23532228D01*
X2196079Y-23532228D01*
X2190911Y-23532165D01*
X1970091Y-23565955D01*
X1757756Y-23635357D01*
X1559607Y-23738507D01*
X1555474Y-23741610D01*
X1555471Y-23741612D01*
X1531247Y-23759800D01*
X1380965Y-23872635D01*
X1226629Y-24034138D01*
X1223715Y-24038410D01*
X1223714Y-24038411D01*
X1197591Y-24076706D01*
X1100743Y-24218680D01*
X1085003Y-24252590D01*
X1037071Y-24355851D01*
X1006688Y-24421305D01*
X946989Y-24636570D01*
X923251Y-24858695D01*
X508500Y-24858695D01*
X508500Y-20320000D01*
X20422496Y-20320000D01*
X20423186Y-20326565D01*
X20439312Y-20479991D01*
X20442458Y-20509928D01*
X20501473Y-20691556D01*
X20596960Y-20856944D01*
X20724747Y-20998866D01*
X20765535Y-21028500D01*
X20866916Y-21102158D01*
X20879248Y-21111118D01*
X20885276Y-21113802D01*
X20885278Y-21113803D01*
X21047681Y-21186109D01*
X21053712Y-21188794D01*
X21147113Y-21208647D01*
X21234056Y-21227128D01*
X21234061Y-21227128D01*
X21240513Y-21228500D01*
X21431487Y-21228500D01*
X21437939Y-21227128D01*
X21437944Y-21227128D01*
X21524887Y-21208647D01*
X21618288Y-21188794D01*
X21624319Y-21186109D01*
X21786722Y-21113803D01*
X21786724Y-21113802D01*
X21792752Y-21111118D01*
X21805085Y-21102158D01*
X21873344Y-21052564D01*
X21940211Y-21028706D01*
X21947405Y-21028500D01*
X22562254Y-21028500D01*
X22630375Y-21048502D01*
X22676868Y-21102158D01*
X22686252Y-21132127D01*
X22687018Y-21136372D01*
X22687500Y-21143111D01*
X22728696Y-21283411D01*
X22748107Y-21313615D01*
X22802878Y-21398841D01*
X22802880Y-21398844D01*
X22807750Y-21406421D01*
X22814560Y-21412322D01*
X22911445Y-21496274D01*
X22911448Y-21496276D01*
X22918257Y-21502176D01*
X23051266Y-21562919D01*
X23060189Y-21564202D01*
X23076100Y-21566490D01*
X23196000Y-21583729D01*
X24346000Y-21583729D01*
X24348514Y-21583528D01*
X24420647Y-21577760D01*
X24420650Y-21577759D01*
X24427645Y-21577200D01*
X24434343Y-21575110D01*
X24434345Y-21575110D01*
X24454981Y-21568672D01*
X24510438Y-21564238D01*
X24568214Y-21572545D01*
X24646000Y-21583729D01*
X25355568Y-21583729D01*
X25423689Y-21603731D01*
X25444663Y-21620634D01*
X26148557Y-22324528D01*
X26154411Y-22330793D01*
X26192439Y-22374385D01*
X26244729Y-22411136D01*
X26249995Y-22415047D01*
X26274608Y-22434346D01*
X26315873Y-22492119D01*
X26319353Y-22563031D01*
X26283942Y-22624566D01*
X26220884Y-22657189D01*
X26196862Y-22659500D01*
X25249405Y-22659500D01*
X25181284Y-22639498D01*
X25175344Y-22635436D01*
X25100094Y-22580763D01*
X25100093Y-22580762D01*
X25094752Y-22576882D01*
X25088724Y-22574198D01*
X25088722Y-22574197D01*
X24926319Y-22501891D01*
X24926318Y-22501891D01*
X24920288Y-22499206D01*
X24826888Y-22479353D01*
X24739944Y-22460872D01*
X24739939Y-22460872D01*
X24733487Y-22459500D01*
X24542513Y-22459500D01*
X24536061Y-22460872D01*
X24536056Y-22460872D01*
X24449112Y-22479353D01*
X24355712Y-22499206D01*
X24349682Y-22501891D01*
X24349681Y-22501891D01*
X24187278Y-22574197D01*
X24187276Y-22574198D01*
X24181248Y-22576882D01*
X24026747Y-22689134D01*
X23898960Y-22831056D01*
X23803473Y-22996444D01*
X23744458Y-23178072D01*
X23743768Y-23184633D01*
X23743768Y-23184635D01*
X23731970Y-23296885D01*
X23724496Y-23368000D01*
X23725186Y-23374565D01*
X23741833Y-23532948D01*
X23744458Y-23557928D01*
X23803473Y-23739556D01*
X23806776Y-23745278D01*
X23806777Y-23745279D01*
X23813312Y-23756598D01*
X23898960Y-23904944D01*
X24026747Y-24046866D01*
X24039948Y-24056457D01*
X24168916Y-24150158D01*
X24181248Y-24159118D01*
X24187276Y-24161802D01*
X24187278Y-24161803D01*
X24305416Y-24214401D01*
X24355712Y-24236794D01*
X24449113Y-24256647D01*
X24536056Y-24275128D01*
X24536061Y-24275128D01*
X24542513Y-24276500D01*
X24733487Y-24276500D01*
X24739939Y-24275128D01*
X24739944Y-24275128D01*
X24826887Y-24256647D01*
X24920288Y-24236794D01*
X24970584Y-24214401D01*
X25088722Y-24161803D01*
X25088724Y-24161802D01*
X25094752Y-24159118D01*
X25107085Y-24150158D01*
X25175344Y-24100564D01*
X25242211Y-24076706D01*
X25249405Y-24076500D01*
X27642254Y-24076500D01*
X27710375Y-24096502D01*
X27756868Y-24150158D01*
X27766252Y-24180127D01*
X27767018Y-24184372D01*
X27767500Y-24191111D01*
X27808696Y-24331411D01*
X27821089Y-24350695D01*
X27882878Y-24446841D01*
X27882880Y-24446844D01*
X27887750Y-24454421D01*
X27894560Y-24460322D01*
X27991445Y-24544274D01*
X27991448Y-24544276D01*
X27998257Y-24550176D01*
X28131266Y-24610919D01*
X28140189Y-24612202D01*
X28156100Y-24614490D01*
X28276000Y-24631729D01*
X29426000Y-24631729D01*
X29428514Y-24631528D01*
X29500647Y-24625760D01*
X29500650Y-24625759D01*
X29507645Y-24625200D01*
X29514343Y-24623110D01*
X29514345Y-24623110D01*
X29534981Y-24616672D01*
X29590438Y-24612238D01*
X29648214Y-24620545D01*
X29726000Y-24631729D01*
X30726000Y-24631729D01*
X30757986Y-24629441D01*
X30792373Y-24626982D01*
X30792374Y-24626982D01*
X30799111Y-24626500D01*
X30878618Y-24603155D01*
X30930765Y-24587843D01*
X30930767Y-24587842D01*
X30939411Y-24585304D01*
X31003255Y-24544274D01*
X31054841Y-24511122D01*
X31054844Y-24511120D01*
X31062421Y-24506250D01*
X31112935Y-24447954D01*
X31152274Y-24402555D01*
X31152276Y-24402552D01*
X31158176Y-24395743D01*
X31218919Y-24262734D01*
X31220378Y-24252590D01*
X31230158Y-24184568D01*
X31259651Y-24119987D01*
X31319377Y-24081604D01*
X31354875Y-24076500D01*
X43230370Y-24076500D01*
X43298491Y-24096502D01*
X43344984Y-24150158D01*
X43355657Y-24215889D01*
X43352243Y-24247840D01*
X43341251Y-24350695D01*
X43341548Y-24355848D01*
X43341548Y-24355851D01*
X43347232Y-24454421D01*
X43354110Y-24573715D01*
X43355247Y-24578761D01*
X43355248Y-24578767D01*
X43367139Y-24631528D01*
X43403222Y-24791639D01*
X43464673Y-24942976D01*
X43472361Y-24961908D01*
X43487266Y-24998616D01*
X43489965Y-25003020D01*
X43595317Y-25174939D01*
X43603987Y-25189088D01*
X43750250Y-25357938D01*
X43922126Y-25500632D01*
X43939903Y-25511020D01*
X43995445Y-25543476D01*
X44044169Y-25595114D01*
X44057240Y-25664897D01*
X44030509Y-25730669D01*
X43990055Y-25764027D01*
X43977607Y-25770507D01*
X43973474Y-25773610D01*
X43973471Y-25773612D01*
X43825417Y-25884774D01*
X43798965Y-25904635D01*
X43644629Y-26066138D01*
X43641715Y-26070410D01*
X43641714Y-26070411D01*
X43580257Y-26160504D01*
X43525346Y-26205507D01*
X43476169Y-26215500D01*
X36445729Y-26215500D01*
X36377608Y-26195498D01*
X36331115Y-26141842D01*
X36319729Y-26089500D01*
X36319729Y-25666000D01*
X36314500Y-25592889D01*
X36286440Y-25497327D01*
X36275843Y-25461235D01*
X36275842Y-25461233D01*
X36273304Y-25452589D01*
X36231960Y-25388257D01*
X36199122Y-25337159D01*
X36199120Y-25337156D01*
X36194250Y-25329579D01*
X36165221Y-25304425D01*
X36090555Y-25239726D01*
X36090552Y-25239724D01*
X36083743Y-25233824D01*
X35950734Y-25173081D01*
X35806000Y-25152271D01*
X34806000Y-25152271D01*
X34804036Y-25152395D01*
X34804032Y-25152395D01*
X34747920Y-25155934D01*
X34747916Y-25155935D01*
X34741443Y-25156343D01*
X34695768Y-25168925D01*
X34644376Y-25172167D01*
X34506000Y-25152271D01*
X33356000Y-25152271D01*
X33347024Y-25152913D01*
X33289627Y-25157018D01*
X33289626Y-25157018D01*
X33282889Y-25157500D01*
X33212300Y-25178227D01*
X33151235Y-25196157D01*
X33151233Y-25196158D01*
X33142589Y-25198696D01*
X33135010Y-25203567D01*
X33027159Y-25272878D01*
X33027156Y-25272880D01*
X33019579Y-25277750D01*
X33013678Y-25284560D01*
X32929726Y-25381445D01*
X32929724Y-25381448D01*
X32923824Y-25388257D01*
X32863081Y-25521266D01*
X32861798Y-25530189D01*
X32851842Y-25599432D01*
X32822349Y-25664013D01*
X32762623Y-25702396D01*
X32727125Y-25707500D01*
X30075405Y-25707500D01*
X30007284Y-25687498D01*
X30001344Y-25683436D01*
X29926094Y-25628763D01*
X29926093Y-25628762D01*
X29920752Y-25624882D01*
X29914724Y-25622198D01*
X29914722Y-25622197D01*
X29752319Y-25549891D01*
X29752318Y-25549891D01*
X29746288Y-25547206D01*
X29624251Y-25521266D01*
X29565944Y-25508872D01*
X29565939Y-25508872D01*
X29559487Y-25507500D01*
X29368513Y-25507500D01*
X29362061Y-25508872D01*
X29362056Y-25508872D01*
X29303749Y-25521266D01*
X29181712Y-25547206D01*
X29175682Y-25549891D01*
X29175681Y-25549891D01*
X29013278Y-25622197D01*
X29013276Y-25622198D01*
X29007248Y-25624882D01*
X29001907Y-25628762D01*
X29001906Y-25628763D01*
X28964697Y-25655797D01*
X28852747Y-25737134D01*
X28724960Y-25879056D01*
X28629473Y-26044444D01*
X28570458Y-26226072D01*
X28569768Y-26232633D01*
X28569768Y-26232635D01*
X28559708Y-26328351D01*
X28550496Y-26416000D01*
X28570458Y-26605928D01*
X28629473Y-26787556D01*
X28724960Y-26952944D01*
X28852747Y-27094866D01*
X28893535Y-27124500D01*
X28994916Y-27198158D01*
X29007248Y-27207118D01*
X29013276Y-27209802D01*
X29013278Y-27209803D01*
X29175681Y-27282109D01*
X29181712Y-27284794D01*
X29275112Y-27304647D01*
X29362056Y-27323128D01*
X29362061Y-27323128D01*
X29368513Y-27324500D01*
X29559487Y-27324500D01*
X29565939Y-27323128D01*
X29565944Y-27323128D01*
X29652888Y-27304647D01*
X29746288Y-27284794D01*
X29752319Y-27282109D01*
X29914722Y-27209803D01*
X29914724Y-27209802D01*
X29920752Y-27207118D01*
X29933085Y-27198158D01*
X30001344Y-27148564D01*
X30068211Y-27124706D01*
X30075405Y-27124500D01*
X32722254Y-27124500D01*
X32790375Y-27144502D01*
X32836868Y-27198158D01*
X32846252Y-27228127D01*
X32847018Y-27232372D01*
X32847500Y-27239111D01*
X32888696Y-27379411D01*
X32893567Y-27386990D01*
X32962878Y-27494841D01*
X32962880Y-27494844D01*
X32967750Y-27502421D01*
X32974560Y-27508322D01*
X33071445Y-27592274D01*
X33071448Y-27592276D01*
X33078257Y-27598176D01*
X33211266Y-27658919D01*
X33220189Y-27660202D01*
X33236100Y-27662490D01*
X33356000Y-27679729D01*
X34506000Y-27679729D01*
X34508514Y-27679528D01*
X34580647Y-27673760D01*
X34580650Y-27673759D01*
X34587645Y-27673200D01*
X34594343Y-27671110D01*
X34594345Y-27671110D01*
X34614981Y-27664672D01*
X34670438Y-27660238D01*
X34728214Y-27668545D01*
X34806000Y-27679729D01*
X35806000Y-27679729D01*
X35837986Y-27677441D01*
X35872373Y-27674982D01*
X35872374Y-27674982D01*
X35879111Y-27674500D01*
X36004766Y-27637604D01*
X36040265Y-27632500D01*
X43474234Y-27632500D01*
X43542355Y-27652502D01*
X43581667Y-27692665D01*
X43603987Y-27729088D01*
X43750250Y-27897938D01*
X43922126Y-28040632D01*
X43934090Y-28047623D01*
X43995445Y-28083476D01*
X44044169Y-28135114D01*
X44057240Y-28204897D01*
X44030509Y-28270669D01*
X43990055Y-28304027D01*
X43977607Y-28310507D01*
X43973474Y-28313610D01*
X43973471Y-28313612D01*
X43819196Y-28429445D01*
X43798965Y-28444635D01*
X43644629Y-28606138D01*
X43641715Y-28610410D01*
X43641714Y-28610411D01*
X43580257Y-28700504D01*
X43525346Y-28745507D01*
X43476169Y-28755500D01*
X41990746Y-28755500D01*
X41922625Y-28735498D01*
X41876132Y-28681842D01*
X41866748Y-28651873D01*
X41865982Y-28647628D01*
X41865500Y-28640889D01*
X41834599Y-28535649D01*
X41826843Y-28509235D01*
X41826842Y-28509233D01*
X41824304Y-28500589D01*
X41790747Y-28448373D01*
X41750122Y-28385159D01*
X41750120Y-28385156D01*
X41745250Y-28377579D01*
X41731079Y-28365300D01*
X41641555Y-28287726D01*
X41641552Y-28287724D01*
X41634743Y-28281824D01*
X41624752Y-28277261D01*
X41557823Y-28246696D01*
X41501734Y-28221081D01*
X41357000Y-28200271D01*
X40357000Y-28200271D01*
X40355036Y-28200395D01*
X40355032Y-28200395D01*
X40298920Y-28203934D01*
X40298916Y-28203935D01*
X40292443Y-28204343D01*
X40246768Y-28216925D01*
X40195376Y-28220167D01*
X40057000Y-28200271D01*
X38907000Y-28200271D01*
X38898024Y-28200913D01*
X38840627Y-28205018D01*
X38840626Y-28205018D01*
X38833889Y-28205500D01*
X38763300Y-28226227D01*
X38702235Y-28244157D01*
X38702233Y-28244158D01*
X38693589Y-28246696D01*
X38686010Y-28251567D01*
X38578159Y-28320878D01*
X38578156Y-28320880D01*
X38570579Y-28325750D01*
X38564678Y-28332560D01*
X38480726Y-28429445D01*
X38480724Y-28429448D01*
X38474824Y-28436257D01*
X38471080Y-28444454D01*
X38471080Y-28444455D01*
X38463322Y-28461443D01*
X38414081Y-28569266D01*
X38412798Y-28578189D01*
X38402842Y-28647432D01*
X38373349Y-28712013D01*
X38313623Y-28750396D01*
X38278125Y-28755500D01*
X35409405Y-28755500D01*
X35341284Y-28735498D01*
X35335344Y-28731436D01*
X35260094Y-28676763D01*
X35260093Y-28676762D01*
X35254752Y-28672882D01*
X35248724Y-28670198D01*
X35248722Y-28670197D01*
X35086319Y-28597891D01*
X35086318Y-28597891D01*
X35080288Y-28595206D01*
X34958251Y-28569266D01*
X34899944Y-28556872D01*
X34899939Y-28556872D01*
X34893487Y-28555500D01*
X34702513Y-28555500D01*
X34696061Y-28556872D01*
X34696056Y-28556872D01*
X34637749Y-28569266D01*
X34515712Y-28595206D01*
X34509682Y-28597891D01*
X34509681Y-28597891D01*
X34347278Y-28670197D01*
X34347276Y-28670198D01*
X34341248Y-28672882D01*
X34335907Y-28676762D01*
X34335906Y-28676763D01*
X34303230Y-28700504D01*
X34186747Y-28785134D01*
X34058960Y-28927056D01*
X33963473Y-29092444D01*
X33904458Y-29274072D01*
X33884496Y-29464000D01*
X33885186Y-29470565D01*
X33891844Y-29533908D01*
X33904458Y-29653928D01*
X33963473Y-29835556D01*
X34058960Y-30000944D01*
X34186747Y-30142866D01*
X34212309Y-30161438D01*
X34328916Y-30246158D01*
X34341248Y-30255118D01*
X34347276Y-30257802D01*
X34347278Y-30257803D01*
X34509681Y-30330109D01*
X34515712Y-30332794D01*
X34609112Y-30352647D01*
X34696056Y-30371128D01*
X34696061Y-30371128D01*
X34702513Y-30372500D01*
X34893487Y-30372500D01*
X34899939Y-30371128D01*
X34899944Y-30371128D01*
X34986888Y-30352647D01*
X35080288Y-30332794D01*
X35086319Y-30330109D01*
X35248722Y-30257803D01*
X35248724Y-30257802D01*
X35254752Y-30255118D01*
X35267085Y-30246158D01*
X35335344Y-30196564D01*
X35402211Y-30172706D01*
X35409405Y-30172500D01*
X38273254Y-30172500D01*
X38341375Y-30192502D01*
X38387868Y-30246158D01*
X38397252Y-30276127D01*
X38398018Y-30280372D01*
X38398500Y-30287111D01*
X38439696Y-30427411D01*
X38448586Y-30441244D01*
X38513878Y-30542841D01*
X38513880Y-30542844D01*
X38518750Y-30550421D01*
X38525560Y-30556322D01*
X38622445Y-30640274D01*
X38622448Y-30640276D01*
X38629257Y-30646176D01*
X38762266Y-30706919D01*
X38771189Y-30708202D01*
X38778228Y-30709214D01*
X38907000Y-30727729D01*
X40057000Y-30727729D01*
X40059514Y-30727528D01*
X40131647Y-30721760D01*
X40131650Y-30721759D01*
X40138645Y-30721200D01*
X40145343Y-30719110D01*
X40145345Y-30719110D01*
X40165981Y-30712672D01*
X40221438Y-30708238D01*
X40279214Y-30716545D01*
X40357000Y-30727729D01*
X41357000Y-30727729D01*
X41388986Y-30725441D01*
X41423373Y-30722982D01*
X41423374Y-30722982D01*
X41430111Y-30722500D01*
X41509618Y-30699155D01*
X41561765Y-30683843D01*
X41561767Y-30683842D01*
X41570411Y-30681304D01*
X41634255Y-30640274D01*
X41685841Y-30607122D01*
X41685844Y-30607120D01*
X41693421Y-30602250D01*
X41738331Y-30550421D01*
X41783274Y-30498555D01*
X41783276Y-30498552D01*
X41789176Y-30491743D01*
X41849919Y-30358734D01*
X41861158Y-30280568D01*
X41890651Y-30215987D01*
X41950377Y-30177604D01*
X41985875Y-30172500D01*
X43474234Y-30172500D01*
X43542355Y-30192502D01*
X43581667Y-30232665D01*
X43603987Y-30269088D01*
X43750250Y-30437938D01*
X43754225Y-30441238D01*
X43754231Y-30441244D01*
X43759425Y-30445556D01*
X43799059Y-30504460D01*
X43800555Y-30575441D01*
X43763439Y-30635962D01*
X43723168Y-30660480D01*
X43615946Y-30700676D01*
X43600351Y-30709214D01*
X43498276Y-30785715D01*
X43485715Y-30798276D01*
X43409214Y-30900351D01*
X43400676Y-30915946D01*
X43355522Y-31036394D01*
X43351895Y-31051649D01*
X43346369Y-31102514D01*
X43346000Y-31109328D01*
X43346000Y-31731885D01*
X43350475Y-31747124D01*
X43351865Y-31748329D01*
X43359548Y-31750000D01*
X46043884Y-31750000D01*
X46059123Y-31745525D01*
X46060328Y-31744135D01*
X46061999Y-31736452D01*
X46061999Y-31109331D01*
X46061629Y-31102510D01*
X46056105Y-31051648D01*
X46052479Y-31036396D01*
X46007324Y-30915946D01*
X45998786Y-30900351D01*
X45922285Y-30798276D01*
X45909724Y-30785715D01*
X45807649Y-30709214D01*
X45792054Y-30700676D01*
X45681813Y-30659348D01*
X45625049Y-30616706D01*
X45600349Y-30550145D01*
X45615557Y-30480796D01*
X45637104Y-30452115D01*
X45738430Y-30351144D01*
X45738440Y-30351132D01*
X45742096Y-30347489D01*
X45751670Y-30334166D01*
X45869435Y-30170277D01*
X45872453Y-30166077D01*
X45882006Y-30146749D01*
X45969136Y-29970453D01*
X45969137Y-29970451D01*
X45971430Y-29965811D01*
X46036370Y-29752069D01*
X46065529Y-29530590D01*
X46067156Y-29464000D01*
X46048852Y-29241361D01*
X46042114Y-29214534D01*
X46044920Y-29143593D01*
X46075224Y-29094747D01*
X46708528Y-28461443D01*
X46714793Y-28455589D01*
X46752664Y-28422552D01*
X46752665Y-28422551D01*
X46758385Y-28417561D01*
X46795136Y-28365271D01*
X46799028Y-28360029D01*
X46838476Y-28309718D01*
X46841600Y-28302799D01*
X46842988Y-28300507D01*
X46851357Y-28285835D01*
X46852622Y-28283475D01*
X46856990Y-28277261D01*
X46880203Y-28217723D01*
X46882759Y-28211642D01*
X46885533Y-28205500D01*
X46909045Y-28153427D01*
X46910430Y-28145954D01*
X46911234Y-28143388D01*
X46915855Y-28127165D01*
X46916520Y-28124573D01*
X46919282Y-28117491D01*
X46927622Y-28054139D01*
X46928654Y-28047623D01*
X46938911Y-27992281D01*
X46940295Y-27984814D01*
X46936709Y-27922620D01*
X46936500Y-27915367D01*
X46936500Y-11386912D01*
X46936792Y-11378342D01*
X46940209Y-11328224D01*
X46940209Y-11328220D01*
X46940725Y-11320648D01*
X46929738Y-11257697D01*
X46928776Y-11251175D01*
X46926113Y-11229170D01*
X46921102Y-11187758D01*
X46918419Y-11180657D01*
X46917778Y-11178048D01*
X46913315Y-11161738D01*
X46912550Y-11159202D01*
X46911243Y-11151716D01*
X46885556Y-11093200D01*
X46883065Y-11087096D01*
X46863173Y-11034452D01*
X46863172Y-11034451D01*
X46860487Y-11027344D01*
X46856183Y-11021081D01*
X46854946Y-11018715D01*
X46846701Y-11003903D01*
X46845368Y-11001649D01*
X46842315Y-10994695D01*
X46803413Y-10943998D01*
X46799541Y-10938668D01*
X46767661Y-10892280D01*
X46767656Y-10892275D01*
X46763357Y-10886019D01*
X46749586Y-10873749D01*
X46716830Y-10844565D01*
X46711554Y-10839584D01*
X46059829Y-10187859D01*
X46025803Y-10125547D01*
X46023403Y-10087786D01*
X46039307Y-9906000D01*
X46020115Y-9686629D01*
X45963120Y-9473924D01*
X45919585Y-9380562D01*
X45872382Y-9279334D01*
X45872379Y-9279329D01*
X45870056Y-9274347D01*
X45743749Y-9093962D01*
X45588038Y-8938251D01*
X45407654Y-8811944D01*
X45402672Y-8809621D01*
X45402667Y-8809618D01*
X45275232Y-8750195D01*
X45221947Y-8703278D01*
X45202486Y-8635001D01*
X45223028Y-8567041D01*
X45275232Y-8521805D01*
X45402667Y-8462382D01*
X45402672Y-8462379D01*
X45407654Y-8460056D01*
X45588038Y-8333749D01*
X45743749Y-8178038D01*
X45870056Y-7997653D01*
X45872379Y-7992671D01*
X45872382Y-7992666D01*
X45960795Y-7803061D01*
X45963120Y-7798076D01*
X46020115Y-7585371D01*
X46039307Y-7366000D01*
X46020115Y-7146629D01*
X45963120Y-6933924D01*
X45919585Y-6840562D01*
X45872382Y-6739334D01*
X45872379Y-6739329D01*
X45870056Y-6734347D01*
X45743749Y-6553962D01*
X45588038Y-6398251D01*
X45466589Y-6313211D01*
X45422262Y-6257755D01*
X45414953Y-6187135D01*
X45446984Y-6123775D01*
X45508185Y-6087790D01*
X45538861Y-6083999D01*
X45570669Y-6083999D01*
X45577490Y-6083629D01*
X45628352Y-6078105D01*
X45643604Y-6074479D01*
X45764054Y-6029324D01*
X45779649Y-6020786D01*
X45881724Y-5944285D01*
X45894285Y-5931724D01*
X45970786Y-5829649D01*
X45979324Y-5814054D01*
X46024478Y-5693606D01*
X46028105Y-5678351D01*
X46033631Y-5627486D01*
X46034000Y-5620672D01*
X46034000Y-5098115D01*
X46029525Y-5082876D01*
X46028135Y-5081671D01*
X46020452Y-5080000D01*
X44648000Y-5080000D01*
X44579879Y-5059998D01*
X44533386Y-5006342D01*
X44522000Y-4954000D01*
X44522000Y-4553885D01*
X45030000Y-4553885D01*
X45034475Y-4569124D01*
X45035865Y-4570329D01*
X45043548Y-4572000D01*
X46015884Y-4572000D01*
X46031123Y-4567525D01*
X46032328Y-4566135D01*
X46033999Y-4558452D01*
X46033999Y-4031331D01*
X46033629Y-4024510D01*
X46028105Y-3973648D01*
X46024479Y-3958396D01*
X45979324Y-3837946D01*
X45970786Y-3822351D01*
X45894285Y-3720276D01*
X45881724Y-3707715D01*
X45779649Y-3631214D01*
X45764054Y-3622676D01*
X45643606Y-3577522D01*
X45628351Y-3573895D01*
X45577486Y-3568369D01*
X45570672Y-3568000D01*
X45048115Y-3568000D01*
X45032876Y-3572475D01*
X45031671Y-3573865D01*
X45030000Y-3581548D01*
X45030000Y-4553885D01*
X44522000Y-4553885D01*
X44522000Y-3586116D01*
X44517525Y-3570877D01*
X44516135Y-3569672D01*
X44508452Y-3568001D01*
X43981331Y-3568001D01*
X43974510Y-3568371D01*
X43923648Y-3573895D01*
X43908396Y-3577521D01*
X43787946Y-3622676D01*
X43772351Y-3631214D01*
X43670276Y-3707715D01*
X43657715Y-3720276D01*
X43581214Y-3822351D01*
X43572676Y-3837946D01*
X43527522Y-3958394D01*
X43523895Y-3973649D01*
X43518369Y-4024514D01*
X43518000Y-4031328D01*
X43518000Y-4063138D01*
X43497998Y-4131259D01*
X43444342Y-4177752D01*
X43374068Y-4187856D01*
X43309488Y-4158362D01*
X43288787Y-4135409D01*
X43288705Y-4135291D01*
X43265098Y-4101577D01*
X43206908Y-4018473D01*
X43206906Y-4018470D01*
X43203749Y-4013962D01*
X43048038Y-3858251D01*
X42867654Y-3731944D01*
X42668076Y-3638880D01*
X42455371Y-3581885D01*
X42236000Y-3562693D01*
X42016629Y-3581885D01*
X41803924Y-3638880D01*
X41710562Y-3682415D01*
X41609334Y-3729618D01*
X41609329Y-3729621D01*
X41604347Y-3731944D01*
X41599840Y-3735100D01*
X41599838Y-3735101D01*
X41428473Y-3855092D01*
X41428470Y-3855094D01*
X41423962Y-3858251D01*
X41268251Y-4013962D01*
X41265094Y-4018470D01*
X41265092Y-4018473D01*
X41165455Y-4160770D01*
X41141944Y-4194347D01*
X41139621Y-4199329D01*
X41139618Y-4199334D01*
X41121491Y-4238209D01*
X41048880Y-4393924D01*
X40991885Y-4606629D01*
X40972693Y-4826000D01*
X40991885Y-5045371D01*
X41048880Y-5258076D01*
X41051205Y-5263061D01*
X41139618Y-5452666D01*
X41139621Y-5452671D01*
X41141944Y-5457653D01*
X41145100Y-5462160D01*
X41145101Y-5462162D01*
X41234198Y-5589405D01*
X41268251Y-5638038D01*
X41423962Y-5793749D01*
X41604346Y-5920056D01*
X41609328Y-5922379D01*
X41609333Y-5922382D01*
X41736768Y-5981805D01*
X41790053Y-6028722D01*
X41809514Y-6096999D01*
X41788972Y-6164959D01*
X41736768Y-6210195D01*
X41609334Y-6269618D01*
X41609329Y-6269621D01*
X41604347Y-6271944D01*
X41599840Y-6275100D01*
X41599838Y-6275101D01*
X41428473Y-6395092D01*
X41428470Y-6395094D01*
X41423962Y-6398251D01*
X41268251Y-6553962D01*
X41141944Y-6734347D01*
X41139621Y-6739329D01*
X41139618Y-6739334D01*
X41092415Y-6840562D01*
X41048880Y-6933924D01*
X40991885Y-7146629D01*
X40991406Y-7152106D01*
X40974142Y-7349442D01*
X40948279Y-7415560D01*
X40890775Y-7457200D01*
X40819888Y-7461141D01*
X40759526Y-7427556D01*
X37695450Y-4363480D01*
X37689596Y-4357215D01*
X37689201Y-4356762D01*
X37651561Y-4313615D01*
X37599280Y-4276871D01*
X37593986Y-4272939D01*
X37549693Y-4238209D01*
X37543718Y-4233524D01*
X37536802Y-4230401D01*
X37534516Y-4229017D01*
X37519835Y-4220643D01*
X37517475Y-4219378D01*
X37511261Y-4215010D01*
X37504182Y-4212250D01*
X37504180Y-4212249D01*
X37451725Y-4191798D01*
X37445656Y-4189247D01*
X37387427Y-4162955D01*
X37379960Y-4161571D01*
X37377405Y-4160770D01*
X37361152Y-4156141D01*
X37358572Y-4155478D01*
X37351491Y-4152718D01*
X37343960Y-4151727D01*
X37343958Y-4151726D01*
X37314339Y-4147827D01*
X37288139Y-4144378D01*
X37281641Y-4143348D01*
X37218814Y-4131704D01*
X37211234Y-4132141D01*
X37211233Y-4132141D01*
X37156608Y-4135291D01*
X37149354Y-4135500D01*
X34250500Y-4135500D01*
X34182379Y-4115498D01*
X34135886Y-4061842D01*
X34124500Y-4009500D01*
X34124500Y-3945866D01*
X34117745Y-3883684D01*
X34066615Y-3747295D01*
X33979261Y-3630739D01*
X33862705Y-3543385D01*
X33850132Y-3538672D01*
X33744203Y-3498960D01*
X33687439Y-3456318D01*
X33662739Y-3389756D01*
X33677947Y-3320408D01*
X33699493Y-3291727D01*
X33800435Y-3191137D01*
X33804096Y-3187489D01*
X33863594Y-3104689D01*
X33931435Y-3010277D01*
X33934453Y-3006077D01*
X33937457Y-3000000D01*
X34031136Y-2810453D01*
X34031137Y-2810451D01*
X34033430Y-2805811D01*
X34098370Y-2592069D01*
X34127529Y-2370590D01*
X34129156Y-2304000D01*
X34110852Y-2081361D01*
X34056431Y-1864702D01*
X33967354Y-1659840D01*
X33846014Y-1472277D01*
X33695670Y-1307051D01*
X33691619Y-1303852D01*
X33691615Y-1303848D01*
X33524414Y-1171800D01*
X33524410Y-1171798D01*
X33520359Y-1168598D01*
X33324789Y-1060638D01*
X33319920Y-1058914D01*
X33319916Y-1058912D01*
X33119087Y-987795D01*
X33119083Y-987794D01*
X33114212Y-986069D01*
X33109119Y-985162D01*
X33109116Y-985161D01*
X32899373Y-947800D01*
X32899367Y-947799D01*
X32894284Y-946894D01*
X32820452Y-945992D01*
X32676081Y-944228D01*
X32676079Y-944228D01*
X32670911Y-944165D01*
X32450091Y-977955D01*
X32237756Y-1047357D01*
X32039607Y-1150507D01*
X32035474Y-1153610D01*
X32035471Y-1153612D01*
X32011247Y-1171800D01*
X31860965Y-1284635D01*
X31706629Y-1446138D01*
X31703715Y-1450410D01*
X31703714Y-1450411D01*
X31691404Y-1468457D01*
X31580743Y-1630680D01*
X31486688Y-1833305D01*
X31426989Y-2048570D01*
X31403251Y-2270695D01*
X31403548Y-2275848D01*
X31403548Y-2275851D01*
X31409011Y-2370590D01*
X31416110Y-2493715D01*
X31417247Y-2498761D01*
X31417248Y-2498767D01*
X31418928Y-2506221D01*
X31465222Y-2711639D01*
X31549266Y-2918616D01*
X31665987Y-3109088D01*
X31812250Y-3277938D01*
X31816230Y-3281242D01*
X31820981Y-3285187D01*
X31860616Y-3344090D01*
X31862113Y-3415071D01*
X31824997Y-3475593D01*
X31784724Y-3500112D01*
X31669295Y-3543385D01*
X31552739Y-3630739D01*
X31465385Y-3747295D01*
X31414255Y-3883684D01*
X31407500Y-3945866D01*
X31407500Y-5742134D01*
X31414255Y-5804316D01*
X31465385Y-5940705D01*
X31552739Y-6057261D01*
X31669295Y-6144615D01*
X31805684Y-6195745D01*
X31867866Y-6202500D01*
X33664134Y-6202500D01*
X33726316Y-6195745D01*
X33862705Y-6144615D01*
X33979261Y-6057261D01*
X34066615Y-5940705D01*
X34117745Y-5804316D01*
X34124500Y-5742134D01*
X34124500Y-5678500D01*
X34144502Y-5610379D01*
X34198158Y-5563886D01*
X34250500Y-5552500D01*
X36828340Y-5552500D01*
X36896461Y-5572502D01*
X36917435Y-5589405D01*
X40952171Y-9624141D01*
X40986197Y-9686453D01*
X40988597Y-9724214D01*
X40972693Y-9906000D01*
X40991885Y-10125371D01*
X41048880Y-10338076D01*
X41051205Y-10343061D01*
X41139618Y-10532666D01*
X41139621Y-10532671D01*
X41141944Y-10537653D01*
X41268251Y-10718038D01*
X41423962Y-10873749D01*
X41428471Y-10876906D01*
X41428473Y-10876908D01*
X41441485Y-10886019D01*
X41604346Y-11000056D01*
X41609328Y-11002379D01*
X41609333Y-11002382D01*
X41736768Y-11061805D01*
X41790053Y-11108722D01*
X41809514Y-11176999D01*
X41788972Y-11244959D01*
X41736768Y-11290195D01*
X41609334Y-11349618D01*
X41609329Y-11349621D01*
X41604347Y-11351944D01*
X41599840Y-11355100D01*
X41599838Y-11355101D01*
X41428473Y-11475092D01*
X41428470Y-11475094D01*
X41423962Y-11478251D01*
X41268251Y-11633962D01*
X41141944Y-11814347D01*
X41139621Y-11819329D01*
X41139618Y-11819334D01*
X41092415Y-11920562D01*
X41048880Y-12013924D01*
X40991885Y-12226629D01*
X40972693Y-12446000D01*
X40991885Y-12665371D01*
X41048880Y-12878076D01*
X41051205Y-12883061D01*
X41139618Y-13072666D01*
X41139621Y-13072671D01*
X41141944Y-13077653D01*
X41268251Y-13258038D01*
X41423962Y-13413749D01*
X41604346Y-13540056D01*
X41803924Y-13633120D01*
X42016629Y-13690115D01*
X42236000Y-13709307D01*
X42455371Y-13690115D01*
X42668076Y-13633120D01*
X42867654Y-13540056D01*
X43048038Y-13413749D01*
X43203749Y-13258038D01*
X43330056Y-13077653D01*
X43332379Y-13072671D01*
X43332382Y-13072666D01*
X43391805Y-12945231D01*
X43438722Y-12891946D01*
X43506999Y-12872485D01*
X43574959Y-12893027D01*
X43620195Y-12945231D01*
X43679618Y-13072666D01*
X43679621Y-13072671D01*
X43681944Y-13077653D01*
X43808251Y-13258038D01*
X43963962Y-13413749D01*
X43968471Y-13416906D01*
X43968473Y-13416908D01*
X44013771Y-13448626D01*
X44058099Y-13504084D01*
X44067500Y-13551839D01*
X44067500Y-15838340D01*
X44047498Y-15906461D01*
X44030595Y-15927435D01*
X42445480Y-17512550D01*
X42439215Y-17518404D01*
X42395615Y-17556439D01*
X42374472Y-17586522D01*
X42358872Y-17608719D01*
X42354939Y-17614014D01*
X42315524Y-17664282D01*
X42312401Y-17671198D01*
X42311017Y-17673484D01*
X42302643Y-17688165D01*
X42301378Y-17690525D01*
X42297010Y-17696739D01*
X42294250Y-17703818D01*
X42294249Y-17703820D01*
X42273798Y-17756275D01*
X42271247Y-17762344D01*
X42244955Y-17820573D01*
X42243571Y-17828040D01*
X42242770Y-17830595D01*
X42238141Y-17846848D01*
X42237478Y-17849428D01*
X42234718Y-17856509D01*
X42233727Y-17864040D01*
X42233726Y-17864042D01*
X42226379Y-17919852D01*
X42225348Y-17926359D01*
X42213704Y-17989186D01*
X42214141Y-17996766D01*
X42214141Y-17996767D01*
X42217291Y-18051392D01*
X42217500Y-18058646D01*
X42217500Y-20037088D01*
X42217208Y-20045658D01*
X42214111Y-20091091D01*
X42213275Y-20103352D01*
X42214580Y-20110829D01*
X42214580Y-20110830D01*
X42224261Y-20166299D01*
X42225223Y-20172821D01*
X42232898Y-20236242D01*
X42235581Y-20243343D01*
X42236222Y-20245952D01*
X42240685Y-20262262D01*
X42241450Y-20264798D01*
X42242757Y-20272284D01*
X42245811Y-20279241D01*
X42268442Y-20330795D01*
X42270933Y-20336899D01*
X42293513Y-20396656D01*
X42297817Y-20402919D01*
X42299054Y-20405285D01*
X42307299Y-20420097D01*
X42308632Y-20422351D01*
X42311685Y-20429305D01*
X42316307Y-20435328D01*
X42350579Y-20479991D01*
X42354459Y-20485332D01*
X42386339Y-20531720D01*
X42386344Y-20531725D01*
X42390643Y-20537981D01*
X42396313Y-20543032D01*
X42396314Y-20543034D01*
X42437170Y-20579435D01*
X42442446Y-20584416D01*
X43331252Y-21473222D01*
X43365278Y-21535534D01*
X43365914Y-21585235D01*
X43364989Y-21588570D01*
X43344009Y-21784889D01*
X43316881Y-21850499D01*
X43258589Y-21891027D01*
X43218722Y-21897500D01*
X32857660Y-21897500D01*
X32789539Y-21877498D01*
X32768565Y-21860595D01*
X32271450Y-21363480D01*
X32265596Y-21357215D01*
X32265201Y-21356762D01*
X32227561Y-21313615D01*
X32175280Y-21276871D01*
X32169986Y-21272939D01*
X32125693Y-21238209D01*
X32119718Y-21233524D01*
X32112802Y-21230401D01*
X32110516Y-21229017D01*
X32095835Y-21220643D01*
X32093475Y-21219378D01*
X32087261Y-21215010D01*
X32080182Y-21212250D01*
X32080180Y-21212249D01*
X32027725Y-21191798D01*
X32021656Y-21189247D01*
X31963427Y-21162955D01*
X31955960Y-21161571D01*
X31953405Y-21160770D01*
X31937152Y-21156141D01*
X31934572Y-21155478D01*
X31927491Y-21152718D01*
X31919960Y-21151727D01*
X31919958Y-21151726D01*
X31890339Y-21147827D01*
X31864139Y-21144378D01*
X31857641Y-21143348D01*
X31794814Y-21131704D01*
X31787234Y-21132141D01*
X31787233Y-21132141D01*
X31732608Y-21135291D01*
X31725354Y-21135500D01*
X27015660Y-21135500D01*
X26947539Y-21115498D01*
X26926565Y-21098595D01*
X26196634Y-20368664D01*
X26162608Y-20306352D01*
X26159729Y-20279569D01*
X26159729Y-19570000D01*
X26154500Y-19496889D01*
X26113304Y-19356589D01*
X26071960Y-19292257D01*
X26039122Y-19241159D01*
X26039120Y-19241156D01*
X26034250Y-19233579D01*
X25998359Y-19202479D01*
X25930555Y-19143726D01*
X25930552Y-19143724D01*
X25923743Y-19137824D01*
X25790734Y-19077081D01*
X25646000Y-19056271D01*
X24646000Y-19056271D01*
X24644036Y-19056395D01*
X24644032Y-19056395D01*
X24587920Y-19059934D01*
X24587916Y-19059935D01*
X24581443Y-19060343D01*
X24535768Y-19072925D01*
X24484376Y-19076167D01*
X24346000Y-19056271D01*
X23196000Y-19056271D01*
X23187024Y-19056913D01*
X23129627Y-19061018D01*
X23129626Y-19061018D01*
X23122889Y-19061500D01*
X23052300Y-19082227D01*
X22991235Y-19100157D01*
X22991233Y-19100158D01*
X22982589Y-19102696D01*
X22975010Y-19107567D01*
X22867159Y-19176878D01*
X22867156Y-19176880D01*
X22859579Y-19181750D01*
X22853678Y-19188560D01*
X22769726Y-19285445D01*
X22769724Y-19285448D01*
X22763824Y-19292257D01*
X22703081Y-19425266D01*
X22701798Y-19434189D01*
X22691842Y-19503432D01*
X22662349Y-19568013D01*
X22602623Y-19606396D01*
X22567125Y-19611500D01*
X21947405Y-19611500D01*
X21879284Y-19591498D01*
X21873344Y-19587436D01*
X21798094Y-19532763D01*
X21798093Y-19532762D01*
X21792752Y-19528882D01*
X21786724Y-19526198D01*
X21786722Y-19526197D01*
X21624319Y-19453891D01*
X21624318Y-19453891D01*
X21618288Y-19451206D01*
X21521006Y-19430528D01*
X21437944Y-19412872D01*
X21437939Y-19412872D01*
X21431487Y-19411500D01*
X21240513Y-19411500D01*
X21234061Y-19412872D01*
X21234056Y-19412872D01*
X21150994Y-19430528D01*
X21053712Y-19451206D01*
X21047682Y-19453891D01*
X21047681Y-19453891D01*
X20885278Y-19526197D01*
X20885276Y-19526198D01*
X20879248Y-19528882D01*
X20724747Y-19641134D01*
X20596960Y-19783056D01*
X20538686Y-19883990D01*
X20511711Y-19930712D01*
X20501473Y-19948444D01*
X20442458Y-20130072D01*
X20441768Y-20136633D01*
X20441768Y-20136635D01*
X20428564Y-20262262D01*
X20422496Y-20320000D01*
X508500Y-20320000D01*
X508500Y-18132703D01*
X33890743Y-18132703D01*
X33891302Y-18136947D01*
X33891302Y-18136951D01*
X33901826Y-18216885D01*
X33928268Y-18417734D01*
X34004129Y-18695036D01*
X34116923Y-18959476D01*
X34264561Y-19206161D01*
X34444313Y-19430528D01*
X34545127Y-19526197D01*
X34609660Y-19587436D01*
X34652851Y-19628423D01*
X34675787Y-19644904D01*
X34861215Y-19778148D01*
X34886317Y-19796186D01*
X34890112Y-19798195D01*
X34890113Y-19798196D01*
X34911869Y-19809715D01*
X35140392Y-19930712D01*
X35410373Y-20029511D01*
X35691264Y-20090755D01*
X35719841Y-20093004D01*
X35914282Y-20108307D01*
X35914291Y-20108307D01*
X35916739Y-20108500D01*
X36072271Y-20108500D01*
X36074407Y-20108354D01*
X36074418Y-20108354D01*
X36282548Y-20094165D01*
X36282554Y-20094164D01*
X36286825Y-20093873D01*
X36291020Y-20093004D01*
X36291022Y-20093004D01*
X36427584Y-20064723D01*
X36568342Y-20035574D01*
X36839343Y-19939607D01*
X37094812Y-19807750D01*
X37098313Y-19805289D01*
X37098317Y-19805287D01*
X37324895Y-19646045D01*
X37330023Y-19642441D01*
X37455116Y-19526197D01*
X37537479Y-19449661D01*
X37537481Y-19449658D01*
X37540622Y-19446740D01*
X37722713Y-19224268D01*
X37872927Y-18979142D01*
X37988483Y-18715898D01*
X38067244Y-18439406D01*
X38107751Y-18154784D01*
X38107845Y-18136951D01*
X38109235Y-17871583D01*
X38109235Y-17871576D01*
X38109257Y-17867297D01*
X38071732Y-17582266D01*
X37995871Y-17304964D01*
X37883077Y-17040524D01*
X37735439Y-16793839D01*
X37555687Y-16569472D01*
X37347149Y-16371577D01*
X37113683Y-16203814D01*
X37091843Y-16192250D01*
X37036589Y-16162995D01*
X36859608Y-16069288D01*
X36589627Y-15970489D01*
X36308736Y-15909245D01*
X36273361Y-15906461D01*
X36085718Y-15891693D01*
X36085709Y-15891693D01*
X36083261Y-15891500D01*
X35927729Y-15891500D01*
X35925593Y-15891646D01*
X35925582Y-15891646D01*
X35717452Y-15905835D01*
X35717446Y-15905836D01*
X35713175Y-15906127D01*
X35708980Y-15906996D01*
X35708978Y-15906996D01*
X35610282Y-15927435D01*
X35431658Y-15964426D01*
X35160657Y-16060393D01*
X34905188Y-16192250D01*
X34901687Y-16194711D01*
X34901683Y-16194713D01*
X34787583Y-16274904D01*
X34669977Y-16357559D01*
X34459378Y-16553260D01*
X34277287Y-16775732D01*
X34127073Y-17020858D01*
X34011517Y-17284102D01*
X33932756Y-17560594D01*
X33892249Y-17845216D01*
X33892227Y-17849505D01*
X33892226Y-17849512D01*
X33890896Y-18103484D01*
X33890743Y-18132703D01*
X508500Y-18132703D01*
X508500Y-3000000D01*
X1386526Y-3000000D01*
X1406391Y-3252403D01*
X1407545Y-3257210D01*
X1407546Y-3257216D01*
X1422717Y-3320408D01*
X1465495Y-3498591D01*
X1467388Y-3503162D01*
X1467389Y-3503164D01*
X1557320Y-3720276D01*
X1562384Y-3732502D01*
X1694672Y-3948376D01*
X1859102Y-4140898D01*
X2051624Y-4305328D01*
X2267498Y-4437616D01*
X2272068Y-4439509D01*
X2272072Y-4439511D01*
X2496836Y-4532611D01*
X2501409Y-4534505D01*
X2582133Y-4553885D01*
X2742784Y-4592454D01*
X2742790Y-4592455D01*
X2747597Y-4593609D01*
X2845560Y-4601319D01*
X2934345Y-4608307D01*
X2934352Y-4608307D01*
X2936801Y-4608500D01*
X3063199Y-4608500D01*
X3065648Y-4608307D01*
X3065655Y-4608307D01*
X3154440Y-4601319D01*
X3252403Y-4593609D01*
X3257210Y-4592455D01*
X3257216Y-4592454D01*
X3417867Y-4553885D01*
X3498591Y-4534505D01*
X3503164Y-4532611D01*
X3727928Y-4439511D01*
X3727932Y-4439509D01*
X3732502Y-4437616D01*
X3948376Y-4305328D01*
X4140898Y-4140898D01*
X4305328Y-3948376D01*
X4437616Y-3732502D01*
X4442681Y-3720276D01*
X4532611Y-3503164D01*
X4532612Y-3503162D01*
X4534505Y-3498591D01*
X4577283Y-3320408D01*
X4592454Y-3257216D01*
X4592455Y-3257210D01*
X4593609Y-3252403D01*
X4613474Y-3000000D01*
X4593609Y-2747597D01*
X4586126Y-2716425D01*
X4535660Y-2506221D01*
X4534505Y-2501409D01*
X4531318Y-2493715D01*
X4439511Y-2272072D01*
X4439509Y-2272068D01*
X4437616Y-2267498D01*
X4305328Y-2051624D01*
X4140898Y-1859102D01*
X3948376Y-1694672D01*
X3732502Y-1562384D01*
X3727932Y-1560491D01*
X3727928Y-1560489D01*
X3503164Y-1467389D01*
X3503162Y-1467388D01*
X3498591Y-1465495D01*
X3402397Y-1442401D01*
X3257216Y-1407546D01*
X3257210Y-1407545D01*
X3252403Y-1406391D01*
X3152584Y-1398535D01*
X3065655Y-1391693D01*
X3065648Y-1391693D01*
X3063199Y-1391500D01*
X2936801Y-1391500D01*
X2934352Y-1391693D01*
X2934345Y-1391693D01*
X2847416Y-1398535D01*
X2747597Y-1406391D01*
X2742790Y-1407545D01*
X2742784Y-1407546D01*
X2597603Y-1442401D01*
X2501409Y-1465495D01*
X2496838Y-1467388D01*
X2496836Y-1467389D01*
X2272072Y-1560489D01*
X2272068Y-1560491D01*
X2267498Y-1562384D01*
X2051624Y-1694672D01*
X1859102Y-1859102D01*
X1694672Y-2051624D01*
X1562384Y-2267498D01*
X1560491Y-2272068D01*
X1560489Y-2272072D01*
X1468682Y-2493715D01*
X1465495Y-2501409D01*
X1464340Y-2506221D01*
X1413875Y-2716425D01*
X1406391Y-2747597D01*
X1386526Y-3000000D01*
X508500Y-3000000D01*
X508500Y-634500D01*
X528502Y-566379D01*
X582158Y-519886D01*
X634500Y-508500D01*
X47365500Y-508500D01*
X47433621Y-528502D01*
G37*
%TD.AperFunction*%
M02*
