%TF.GenerationSoftware,KiCad,Pcbnew,6.0.11*%
%TF.CreationDate,2024-08-04T21:37:39+01:00*%
%TF.ProjectId,ESPboard,45535062-6f61-4726-942e-6b696361645f,rev?*%
%TF.SameCoordinates,PX87a6900PY5d04800*%
%TF.FileFunction,Legend,Top*%
%TF.FilePolarity,Positive*%
%FSLAX46Y46*%
G04 Gerber Fmt 4.6, Leading zero omitted, Abs format (unit mm)*
G04 Created by KiCad (PCBNEW 6.0.11) date 2024-08-04 21:37:39*
%MOMM*%
%LPD*%
G01*
G04 APERTURE LIST*
G04 Aperture macros list*
%AMRoundRect*
0 Rectangle with rounded corners*
0 $1 Rounding radius*
0 $2 $3 $4 $5 $6 $7 $8 $9 X,Y pos of 4 corners*
0 Add a 4 corners polygon primitive as box body*
4,1,4,$2,$3,$4,$5,$6,$7,$8,$9,$2,$3,0*
0 Add four circle primitives for the rounded corners*
1,1,$1+$1,$2,$3*
1,1,$1+$1,$4,$5*
1,1,$1+$1,$6,$7*
1,1,$1+$1,$8,$9*
0 Add four rect primitives between the rounded corners*
20,1,$1+$1,$2,$3,$4,$5,0*
20,1,$1+$1,$4,$5,$6,$7,0*
20,1,$1+$1,$6,$7,$8,$9,0*
20,1,$1+$1,$8,$9,$2,$3,0*%
G04 Aperture macros list end*
%ADD10C,0.150000*%
%ADD11C,0.300000*%
%ADD12C,0.200000*%
%ADD13C,0.127000*%
%ADD14C,0.120000*%
%ADD15C,3.200000*%
%ADD16RoundRect,0.102000X-0.750000X0.750000X-0.750000X-0.750000X0.750000X-0.750000X0.750000X0.750000X0*%
%ADD17C,1.704000*%
%ADD18R,1.700000X1.700000*%
%ADD19O,1.700000X1.700000*%
%ADD20RoundRect,0.225000X0.225000X0.250000X-0.225000X0.250000X-0.225000X-0.250000X0.225000X-0.250000X0*%
%ADD21RoundRect,0.225000X-0.250000X0.225000X-0.250000X-0.225000X0.250000X-0.225000X0.250000X0.225000X0*%
%ADD22R,1.500000X2.000000*%
%ADD23R,3.800000X2.000000*%
%ADD24RoundRect,0.250000X0.787500X0.925000X-0.787500X0.925000X-0.787500X-0.925000X0.787500X-0.925000X0*%
%ADD25RoundRect,0.218750X-0.256250X0.218750X-0.256250X-0.218750X0.256250X-0.218750X0.256250X0.218750X0*%
%ADD26RoundRect,0.150000X-0.150000X0.587500X-0.150000X-0.587500X0.150000X-0.587500X0.150000X0.587500X0*%
%ADD27RoundRect,0.200000X-0.200000X-0.275000X0.200000X-0.275000X0.200000X0.275000X-0.200000X0.275000X0*%
%ADD28RoundRect,0.200000X0.200000X0.275000X-0.200000X0.275000X-0.200000X-0.275000X0.200000X-0.275000X0*%
%ADD29C,2.200000*%
%ADD30R,1.800000X2.500000*%
%ADD31RoundRect,0.225000X0.250000X-0.225000X0.250000X0.225000X-0.250000X0.225000X-0.250000X-0.225000X0*%
%ADD32RoundRect,0.200000X0.275000X-0.200000X0.275000X0.200000X-0.275000X0.200000X-0.275000X-0.200000X0*%
%ADD33RoundRect,0.200000X-0.275000X0.200000X-0.275000X-0.200000X0.275000X-0.200000X0.275000X0.200000X0*%
%ADD34R,2.000000X1.500000*%
%ADD35R,2.000000X3.800000*%
%ADD36R,1.300000X2.250000*%
G04 APERTURE END LIST*
D10*
X30718380Y-7469142D02*
X30766000Y-7516761D01*
X30718380Y-7564380D01*
X30670761Y-7516761D01*
X30718380Y-7469142D01*
X30718380Y-7564380D01*
X30718380Y-7183428D02*
X30670761Y-6612000D01*
X30718380Y-6564380D01*
X30766000Y-6612000D01*
X30718380Y-7183428D01*
X30718380Y-6564380D01*
X31766000Y-7564380D02*
X31432666Y-7088190D01*
X31194571Y-7564380D02*
X31194571Y-6564380D01*
X31575523Y-6564380D01*
X31670761Y-6612000D01*
X31718380Y-6659619D01*
X31766000Y-6754857D01*
X31766000Y-6897714D01*
X31718380Y-6992952D01*
X31670761Y-7040571D01*
X31575523Y-7088190D01*
X31194571Y-7088190D01*
X32575523Y-7516761D02*
X32480285Y-7564380D01*
X32289809Y-7564380D01*
X32194571Y-7516761D01*
X32146952Y-7421523D01*
X32146952Y-7040571D01*
X32194571Y-6945333D01*
X32289809Y-6897714D01*
X32480285Y-6897714D01*
X32575523Y-6945333D01*
X32623142Y-7040571D01*
X32623142Y-7135809D01*
X32146952Y-7231047D01*
X33004095Y-7516761D02*
X33099333Y-7564380D01*
X33289809Y-7564380D01*
X33385047Y-7516761D01*
X33432666Y-7421523D01*
X33432666Y-7373904D01*
X33385047Y-7278666D01*
X33289809Y-7231047D01*
X33146952Y-7231047D01*
X33051714Y-7183428D01*
X33004095Y-7088190D01*
X33004095Y-7040571D01*
X33051714Y-6945333D01*
X33146952Y-6897714D01*
X33289809Y-6897714D01*
X33385047Y-6945333D01*
X34242190Y-7516761D02*
X34146952Y-7564380D01*
X33956476Y-7564380D01*
X33861238Y-7516761D01*
X33813619Y-7421523D01*
X33813619Y-7040571D01*
X33861238Y-6945333D01*
X33956476Y-6897714D01*
X34146952Y-6897714D01*
X34242190Y-6945333D01*
X34289809Y-7040571D01*
X34289809Y-7135809D01*
X33813619Y-7231047D01*
X34575523Y-6897714D02*
X34956476Y-6897714D01*
X34718380Y-6564380D02*
X34718380Y-7421523D01*
X34766000Y-7516761D01*
X34861238Y-7564380D01*
X34956476Y-7564380D01*
X21280380Y-13390380D02*
X20804190Y-13723714D01*
X21280380Y-13961809D02*
X20280380Y-13961809D01*
X20280380Y-13580857D01*
X20328000Y-13485619D01*
X20375619Y-13438000D01*
X20470857Y-13390380D01*
X20613714Y-13390380D01*
X20708952Y-13438000D01*
X20756571Y-13485619D01*
X20804190Y-13580857D01*
X20804190Y-13961809D01*
X20756571Y-12961809D02*
X20756571Y-12628476D01*
X21280380Y-12485619D02*
X21280380Y-12961809D01*
X20280380Y-12961809D01*
X20280380Y-12485619D01*
X21232761Y-12104666D02*
X21280380Y-11961809D01*
X21280380Y-11723714D01*
X21232761Y-11628476D01*
X21185142Y-11580857D01*
X21089904Y-11533238D01*
X20994666Y-11533238D01*
X20899428Y-11580857D01*
X20851809Y-11628476D01*
X20804190Y-11723714D01*
X20756571Y-11914190D01*
X20708952Y-12009428D01*
X20661333Y-12057047D01*
X20566095Y-12104666D01*
X20470857Y-12104666D01*
X20375619Y-12057047D01*
X20328000Y-12009428D01*
X20280380Y-11914190D01*
X20280380Y-11676095D01*
X20328000Y-11533238D01*
X20756571Y-11104666D02*
X20756571Y-10771333D01*
X21280380Y-10628476D02*
X21280380Y-11104666D01*
X20280380Y-11104666D01*
X20280380Y-10628476D01*
X20280380Y-10342761D02*
X20280380Y-9771333D01*
X21280380Y-10057047D02*
X20280380Y-10057047D01*
X41616380Y-20526190D02*
X41616380Y-19907142D01*
X41997333Y-20240476D01*
X41997333Y-20097619D01*
X42044952Y-20002380D01*
X42092571Y-19954761D01*
X42187809Y-19907142D01*
X42425904Y-19907142D01*
X42521142Y-19954761D01*
X42568761Y-20002380D01*
X42616380Y-20097619D01*
X42616380Y-20383333D01*
X42568761Y-20478571D01*
X42521142Y-20526190D01*
X42521142Y-19478571D02*
X42568761Y-19430952D01*
X42616380Y-19478571D01*
X42568761Y-19526190D01*
X42521142Y-19478571D01*
X42616380Y-19478571D01*
X41616380Y-19097619D02*
X41616380Y-18478571D01*
X41997333Y-18811904D01*
X41997333Y-18669047D01*
X42044952Y-18573809D01*
X42092571Y-18526190D01*
X42187809Y-18478571D01*
X42425904Y-18478571D01*
X42521142Y-18526190D01*
X42568761Y-18573809D01*
X42616380Y-18669047D01*
X42616380Y-18954761D01*
X42568761Y-19050000D01*
X42521142Y-19097619D01*
X41616380Y-18192857D02*
X42616380Y-17859523D01*
X41616380Y-17526190D01*
X25320666Y-31456380D02*
X25939714Y-31456380D01*
X25606380Y-31837333D01*
X25749238Y-31837333D01*
X25844476Y-31884952D01*
X25892095Y-31932571D01*
X25939714Y-32027809D01*
X25939714Y-32265904D01*
X25892095Y-32361142D01*
X25844476Y-32408761D01*
X25749238Y-32456380D01*
X25463523Y-32456380D01*
X25368285Y-32408761D01*
X25320666Y-32361142D01*
X42616380Y-26638285D02*
X42616380Y-27209714D01*
X42616380Y-26924000D02*
X41616380Y-26924000D01*
X41759238Y-27019238D01*
X41854476Y-27114476D01*
X41902095Y-27209714D01*
X41711619Y-24669714D02*
X41664000Y-24622095D01*
X41616380Y-24526857D01*
X41616380Y-24288761D01*
X41664000Y-24193523D01*
X41711619Y-24145904D01*
X41806857Y-24098285D01*
X41902095Y-24098285D01*
X42044952Y-24145904D01*
X42616380Y-24717333D01*
X42616380Y-24098285D01*
X1524095Y-29472000D02*
X1428857Y-29424380D01*
X1286000Y-29424380D01*
X1143142Y-29472000D01*
X1047904Y-29567238D01*
X1000285Y-29662476D01*
X952666Y-29852952D01*
X952666Y-29995809D01*
X1000285Y-30186285D01*
X1047904Y-30281523D01*
X1143142Y-30376761D01*
X1286000Y-30424380D01*
X1381238Y-30424380D01*
X1524095Y-30376761D01*
X1571714Y-30329142D01*
X1571714Y-29995809D01*
X1381238Y-29995809D01*
X2000285Y-30424380D02*
X2000285Y-29424380D01*
X2571714Y-30424380D01*
X2571714Y-29424380D01*
X3047904Y-30424380D02*
X3047904Y-29424380D01*
X3286000Y-29424380D01*
X3428857Y-29472000D01*
X3524095Y-29567238D01*
X3571714Y-29662476D01*
X3619333Y-29852952D01*
X3619333Y-29995809D01*
X3571714Y-30186285D01*
X3524095Y-30281523D01*
X3428857Y-30376761D01*
X3286000Y-30424380D01*
X3047904Y-30424380D01*
X41616380Y-29511619D02*
X41616380Y-29416380D01*
X41664000Y-29321142D01*
X41711619Y-29273523D01*
X41806857Y-29225904D01*
X41997333Y-29178285D01*
X42235428Y-29178285D01*
X42425904Y-29225904D01*
X42521142Y-29273523D01*
X42568761Y-29321142D01*
X42616380Y-29416380D01*
X42616380Y-29511619D01*
X42568761Y-29606857D01*
X42521142Y-29654476D01*
X42425904Y-29702095D01*
X42235428Y-29749714D01*
X41997333Y-29749714D01*
X41806857Y-29702095D01*
X41711619Y-29654476D01*
X41664000Y-29606857D01*
X41616380Y-29511619D01*
X27908285Y-31551619D02*
X27955904Y-31504000D01*
X28051142Y-31456380D01*
X28289238Y-31456380D01*
X28384476Y-31504000D01*
X28432095Y-31551619D01*
X28479714Y-31646857D01*
X28479714Y-31742095D01*
X28432095Y-31884952D01*
X27860666Y-32456380D01*
X28479714Y-32456380D01*
X41664000Y-33019904D02*
X41616380Y-33115142D01*
X41616380Y-33258000D01*
X41664000Y-33400857D01*
X41759238Y-33496095D01*
X41854476Y-33543714D01*
X42044952Y-33591333D01*
X42187809Y-33591333D01*
X42378285Y-33543714D01*
X42473523Y-33496095D01*
X42568761Y-33400857D01*
X42616380Y-33258000D01*
X42616380Y-33162761D01*
X42568761Y-33019904D01*
X42521142Y-32972285D01*
X42187809Y-32972285D01*
X42187809Y-33162761D01*
X42616380Y-32543714D02*
X41616380Y-32543714D01*
X42616380Y-31972285D01*
X41616380Y-31972285D01*
X42616380Y-31496095D02*
X41616380Y-31496095D01*
X41616380Y-31258000D01*
X41664000Y-31115142D01*
X41759238Y-31019904D01*
X41854476Y-30972285D01*
X42044952Y-30924666D01*
X42187809Y-30924666D01*
X42378285Y-30972285D01*
X42473523Y-31019904D01*
X42568761Y-31115142D01*
X42616380Y-31258000D01*
X42616380Y-31496095D01*
X33226380Y-31456380D02*
X33321619Y-31456380D01*
X33416857Y-31504000D01*
X33464476Y-31551619D01*
X33512095Y-31646857D01*
X33559714Y-31837333D01*
X33559714Y-32075428D01*
X33512095Y-32265904D01*
X33464476Y-32361142D01*
X33416857Y-32408761D01*
X33321619Y-32456380D01*
X33226380Y-32456380D01*
X33131142Y-32408761D01*
X33083523Y-32361142D01*
X33035904Y-32265904D01*
X32988285Y-32075428D01*
X32988285Y-31837333D01*
X33035904Y-31646857D01*
X33083523Y-31551619D01*
X33131142Y-31504000D01*
X33226380Y-31456380D01*
X35052095Y-31504000D02*
X34956857Y-31456380D01*
X34814000Y-31456380D01*
X34671142Y-31504000D01*
X34575904Y-31599238D01*
X34528285Y-31694476D01*
X34480666Y-31884952D01*
X34480666Y-32027809D01*
X34528285Y-32218285D01*
X34575904Y-32313523D01*
X34671142Y-32408761D01*
X34814000Y-32456380D01*
X34909238Y-32456380D01*
X35052095Y-32408761D01*
X35099714Y-32361142D01*
X35099714Y-32027809D01*
X34909238Y-32027809D01*
X35528285Y-32456380D02*
X35528285Y-31456380D01*
X36099714Y-32456380D01*
X36099714Y-31456380D01*
X36575904Y-32456380D02*
X36575904Y-31456380D01*
X36814000Y-31456380D01*
X36956857Y-31504000D01*
X37052095Y-31599238D01*
X37099714Y-31694476D01*
X37147333Y-31884952D01*
X37147333Y-32027809D01*
X37099714Y-32218285D01*
X37052095Y-32313523D01*
X36956857Y-32408761D01*
X36814000Y-32456380D01*
X36575904Y-32456380D01*
D11*
X5797619Y-31149142D02*
X6230952Y-31149142D01*
X6416666Y-31830095D02*
X5797619Y-31830095D01*
X5797619Y-30530095D01*
X6416666Y-30530095D01*
X6911904Y-31768190D02*
X7097619Y-31830095D01*
X7407142Y-31830095D01*
X7530952Y-31768190D01*
X7592857Y-31706285D01*
X7654761Y-31582476D01*
X7654761Y-31458666D01*
X7592857Y-31334857D01*
X7530952Y-31272952D01*
X7407142Y-31211047D01*
X7159523Y-31149142D01*
X7035714Y-31087238D01*
X6973809Y-31025333D01*
X6911904Y-30901523D01*
X6911904Y-30777714D01*
X6973809Y-30653904D01*
X7035714Y-30592000D01*
X7159523Y-30530095D01*
X7469047Y-30530095D01*
X7654761Y-30592000D01*
X8211904Y-31830095D02*
X8211904Y-30530095D01*
X8707142Y-30530095D01*
X8830952Y-30592000D01*
X8892857Y-30653904D01*
X8954761Y-30777714D01*
X8954761Y-30963428D01*
X8892857Y-31087238D01*
X8830952Y-31149142D01*
X8707142Y-31211047D01*
X8211904Y-31211047D01*
X9945238Y-31149142D02*
X10130952Y-31211047D01*
X10192857Y-31272952D01*
X10254761Y-31396761D01*
X10254761Y-31582476D01*
X10192857Y-31706285D01*
X10130952Y-31768190D01*
X10007142Y-31830095D01*
X9511904Y-31830095D01*
X9511904Y-30530095D01*
X9945238Y-30530095D01*
X10069047Y-30592000D01*
X10130952Y-30653904D01*
X10192857Y-30777714D01*
X10192857Y-30901523D01*
X10130952Y-31025333D01*
X10069047Y-31087238D01*
X9945238Y-31149142D01*
X9511904Y-31149142D01*
X10997619Y-31830095D02*
X10873809Y-31768190D01*
X10811904Y-31706285D01*
X10750000Y-31582476D01*
X10750000Y-31211047D01*
X10811904Y-31087238D01*
X10873809Y-31025333D01*
X10997619Y-30963428D01*
X11183333Y-30963428D01*
X11307142Y-31025333D01*
X11369047Y-31087238D01*
X11430952Y-31211047D01*
X11430952Y-31582476D01*
X11369047Y-31706285D01*
X11307142Y-31768190D01*
X11183333Y-31830095D01*
X10997619Y-31830095D01*
X12545238Y-31830095D02*
X12545238Y-31149142D01*
X12483333Y-31025333D01*
X12359523Y-30963428D01*
X12111904Y-30963428D01*
X11988095Y-31025333D01*
X12545238Y-31768190D02*
X12421428Y-31830095D01*
X12111904Y-31830095D01*
X11988095Y-31768190D01*
X11926190Y-31644380D01*
X11926190Y-31520571D01*
X11988095Y-31396761D01*
X12111904Y-31334857D01*
X12421428Y-31334857D01*
X12545238Y-31272952D01*
X13164285Y-31830095D02*
X13164285Y-30963428D01*
X13164285Y-31211047D02*
X13226190Y-31087238D01*
X13288095Y-31025333D01*
X13411904Y-30963428D01*
X13535714Y-30963428D01*
X14526190Y-31830095D02*
X14526190Y-30530095D01*
X14526190Y-31768190D02*
X14402380Y-31830095D01*
X14154761Y-31830095D01*
X14030952Y-31768190D01*
X13969047Y-31706285D01*
X13907142Y-31582476D01*
X13907142Y-31211047D01*
X13969047Y-31087238D01*
X14030952Y-31025333D01*
X14154761Y-30963428D01*
X14402380Y-30963428D01*
X14526190Y-31025333D01*
X16011904Y-30963428D02*
X16321428Y-31830095D01*
X16630952Y-30963428D01*
X17807142Y-31830095D02*
X17064285Y-31830095D01*
X17435714Y-31830095D02*
X17435714Y-30530095D01*
X17311904Y-30715809D01*
X17188095Y-30839619D01*
X17064285Y-30901523D01*
X18364285Y-31706285D02*
X18426190Y-31768190D01*
X18364285Y-31830095D01*
X18302380Y-31768190D01*
X18364285Y-31706285D01*
X18364285Y-31830095D01*
X19230952Y-30530095D02*
X19354761Y-30530095D01*
X19478571Y-30592000D01*
X19540476Y-30653904D01*
X19602380Y-30777714D01*
X19664285Y-31025333D01*
X19664285Y-31334857D01*
X19602380Y-31582476D01*
X19540476Y-31706285D01*
X19478571Y-31768190D01*
X19354761Y-31830095D01*
X19230952Y-31830095D01*
X19107142Y-31768190D01*
X19045238Y-31706285D01*
X18983333Y-31582476D01*
X18921428Y-31334857D01*
X18921428Y-31025333D01*
X18983333Y-30777714D01*
X19045238Y-30653904D01*
X19107142Y-30592000D01*
X19230952Y-30530095D01*
D10*
X6448619Y-21614190D02*
X7448619Y-21614190D01*
X6734333Y-21947523D01*
X7448619Y-22280857D01*
X6448619Y-22280857D01*
X6448619Y-22757047D02*
X7115285Y-22757047D01*
X7448619Y-22757047D02*
X7401000Y-22709428D01*
X7353380Y-22757047D01*
X7401000Y-22804666D01*
X7448619Y-22757047D01*
X7353380Y-22757047D01*
X7115285Y-23233238D02*
X6448619Y-23233238D01*
X7020047Y-23233238D02*
X7067666Y-23280857D01*
X7115285Y-23376095D01*
X7115285Y-23518952D01*
X7067666Y-23614190D01*
X6972428Y-23661809D01*
X6448619Y-23661809D01*
X7448619Y-25328476D02*
X7448619Y-25138000D01*
X7401000Y-25042761D01*
X7353380Y-24995142D01*
X7210523Y-24899904D01*
X7020047Y-24852285D01*
X6639095Y-24852285D01*
X6543857Y-24899904D01*
X6496238Y-24947523D01*
X6448619Y-25042761D01*
X6448619Y-25233238D01*
X6496238Y-25328476D01*
X6543857Y-25376095D01*
X6639095Y-25423714D01*
X6877190Y-25423714D01*
X6972428Y-25376095D01*
X7020047Y-25328476D01*
X7067666Y-25233238D01*
X7067666Y-25042761D01*
X7020047Y-24947523D01*
X6972428Y-24899904D01*
X6877190Y-24852285D01*
X6543857Y-25852285D02*
X6496238Y-25899904D01*
X6448619Y-25852285D01*
X6496238Y-25804666D01*
X6543857Y-25852285D01*
X6448619Y-25852285D01*
X7448619Y-26804666D02*
X7448619Y-26328476D01*
X6972428Y-26280857D01*
X7020047Y-26328476D01*
X7067666Y-26423714D01*
X7067666Y-26661809D01*
X7020047Y-26757047D01*
X6972428Y-26804666D01*
X6877190Y-26852285D01*
X6639095Y-26852285D01*
X6543857Y-26804666D01*
X6496238Y-26757047D01*
X6448619Y-26661809D01*
X6448619Y-26423714D01*
X6496238Y-26328476D01*
X6543857Y-26280857D01*
X7448619Y-27138000D02*
X6448619Y-27471333D01*
X7448619Y-27804666D01*
X4838619Y-21685619D02*
X5838619Y-21685619D01*
X5124333Y-22018952D01*
X5838619Y-22352285D01*
X4838619Y-22352285D01*
X4838619Y-23257047D02*
X5362428Y-23257047D01*
X5457666Y-23209428D01*
X5505285Y-23114190D01*
X5505285Y-22923714D01*
X5457666Y-22828476D01*
X4886238Y-23257047D02*
X4838619Y-23161809D01*
X4838619Y-22923714D01*
X4886238Y-22828476D01*
X4981476Y-22780857D01*
X5076714Y-22780857D01*
X5171952Y-22828476D01*
X5219571Y-22923714D01*
X5219571Y-23161809D01*
X5267190Y-23257047D01*
X4838619Y-23638000D02*
X5505285Y-24161809D01*
X5505285Y-23638000D02*
X4838619Y-24161809D01*
X4838619Y-25828476D02*
X4838619Y-25257047D01*
X4838619Y-25542761D02*
X5838619Y-25542761D01*
X5695761Y-25447523D01*
X5600523Y-25352285D01*
X5552904Y-25257047D01*
X5743380Y-26209428D02*
X5791000Y-26257047D01*
X5838619Y-26352285D01*
X5838619Y-26590380D01*
X5791000Y-26685619D01*
X5743380Y-26733238D01*
X5648142Y-26780857D01*
X5552904Y-26780857D01*
X5410047Y-26733238D01*
X4838619Y-26161809D01*
X4838619Y-26780857D01*
X5838619Y-27066571D02*
X4838619Y-27399904D01*
X5838619Y-27733238D01*
D12*
X5690476Y-33804666D02*
X5652380Y-33766571D01*
X5576190Y-33652285D01*
X5538095Y-33576095D01*
X5500000Y-33461809D01*
X5461904Y-33271333D01*
X5461904Y-33118952D01*
X5500000Y-32928476D01*
X5538095Y-32814190D01*
X5576190Y-32738000D01*
X5652380Y-32623714D01*
X5690476Y-32585619D01*
X6338095Y-33461809D02*
X6261904Y-33499904D01*
X6109523Y-33499904D01*
X6033333Y-33461809D01*
X5995238Y-33423714D01*
X5957142Y-33347523D01*
X5957142Y-33118952D01*
X5995238Y-33042761D01*
X6033333Y-33004666D01*
X6109523Y-32966571D01*
X6261904Y-32966571D01*
X6338095Y-33004666D01*
X7023809Y-33461809D02*
X6947619Y-33499904D01*
X6795238Y-33499904D01*
X6719047Y-33461809D01*
X6680952Y-33423714D01*
X6642857Y-33347523D01*
X6642857Y-33118952D01*
X6680952Y-33042761D01*
X6719047Y-33004666D01*
X6795238Y-32966571D01*
X6947619Y-32966571D01*
X7023809Y-33004666D01*
X7290476Y-33804666D02*
X7328571Y-33766571D01*
X7404761Y-33652285D01*
X7442857Y-33576095D01*
X7480952Y-33461809D01*
X7519047Y-33271333D01*
X7519047Y-33118952D01*
X7480952Y-32928476D01*
X7442857Y-32814190D01*
X7404761Y-32738000D01*
X7328571Y-32623714D01*
X7290476Y-32585619D01*
X8776190Y-33080857D02*
X8890476Y-33118952D01*
X8928571Y-33157047D01*
X8966666Y-33233238D01*
X8966666Y-33347523D01*
X8928571Y-33423714D01*
X8890476Y-33461809D01*
X8814285Y-33499904D01*
X8509523Y-33499904D01*
X8509523Y-32699904D01*
X8776190Y-32699904D01*
X8852380Y-32738000D01*
X8890476Y-32776095D01*
X8928571Y-32852285D01*
X8928571Y-32928476D01*
X8890476Y-33004666D01*
X8852380Y-33042761D01*
X8776190Y-33080857D01*
X8509523Y-33080857D01*
X9461904Y-33118952D02*
X9461904Y-33499904D01*
X9195238Y-32699904D02*
X9461904Y-33118952D01*
X9728571Y-32699904D01*
X9995238Y-33195142D02*
X10604761Y-33195142D01*
X10985714Y-33499904D02*
X10985714Y-32699904D01*
X11442857Y-33499904D01*
X11442857Y-32699904D01*
X12280952Y-33423714D02*
X12242857Y-33461809D01*
X12128571Y-33499904D01*
X12052380Y-33499904D01*
X11938095Y-33461809D01*
X11861904Y-33385619D01*
X11823809Y-33309428D01*
X11785714Y-33157047D01*
X11785714Y-33042761D01*
X11823809Y-32890380D01*
X11861904Y-32814190D01*
X11938095Y-32738000D01*
X12052380Y-32699904D01*
X12128571Y-32699904D01*
X12242857Y-32738000D01*
X12280952Y-32776095D01*
X12623809Y-33195142D02*
X13233333Y-33195142D01*
X13576190Y-33461809D02*
X13690476Y-33499904D01*
X13880952Y-33499904D01*
X13957142Y-33461809D01*
X13995238Y-33423714D01*
X14033333Y-33347523D01*
X14033333Y-33271333D01*
X13995238Y-33195142D01*
X13957142Y-33157047D01*
X13880952Y-33118952D01*
X13728571Y-33080857D01*
X13652380Y-33042761D01*
X13614285Y-33004666D01*
X13576190Y-32928476D01*
X13576190Y-32852285D01*
X13614285Y-32776095D01*
X13652380Y-32738000D01*
X13728571Y-32699904D01*
X13919047Y-32699904D01*
X14033333Y-32738000D01*
X14338095Y-33271333D02*
X14719047Y-33271333D01*
X14261904Y-33499904D02*
X14528571Y-32699904D01*
X14795238Y-33499904D01*
X15671428Y-33195142D02*
X16280952Y-33195142D01*
X17233333Y-32776095D02*
X17271428Y-32738000D01*
X17347619Y-32699904D01*
X17538095Y-32699904D01*
X17614285Y-32738000D01*
X17652380Y-32776095D01*
X17690476Y-32852285D01*
X17690476Y-32928476D01*
X17652380Y-33042761D01*
X17195238Y-33499904D01*
X17690476Y-33499904D01*
X18185714Y-32699904D02*
X18261904Y-32699904D01*
X18338095Y-32738000D01*
X18376190Y-32776095D01*
X18414285Y-32852285D01*
X18452380Y-33004666D01*
X18452380Y-33195142D01*
X18414285Y-33347523D01*
X18376190Y-33423714D01*
X18338095Y-33461809D01*
X18261904Y-33499904D01*
X18185714Y-33499904D01*
X18109523Y-33461809D01*
X18071428Y-33423714D01*
X18033333Y-33347523D01*
X17995238Y-33195142D01*
X17995238Y-33004666D01*
X18033333Y-32852285D01*
X18071428Y-32776095D01*
X18109523Y-32738000D01*
X18185714Y-32699904D01*
X18757142Y-32776095D02*
X18795238Y-32738000D01*
X18871428Y-32699904D01*
X19061904Y-32699904D01*
X19138095Y-32738000D01*
X19176190Y-32776095D01*
X19214285Y-32852285D01*
X19214285Y-32928476D01*
X19176190Y-33042761D01*
X18719047Y-33499904D01*
X19214285Y-33499904D01*
X19900000Y-32966571D02*
X19900000Y-33499904D01*
X19709523Y-32661809D02*
X19519047Y-33233238D01*
X20014285Y-33233238D01*
X5442857Y-34254571D02*
X5595238Y-34787904D01*
X5747619Y-34406952D01*
X5900000Y-34787904D01*
X6052380Y-34254571D01*
X6280952Y-34254571D02*
X6433333Y-34787904D01*
X6585714Y-34406952D01*
X6738095Y-34787904D01*
X6890476Y-34254571D01*
X7119047Y-34254571D02*
X7271428Y-34787904D01*
X7423809Y-34406952D01*
X7576190Y-34787904D01*
X7728571Y-34254571D01*
X8033333Y-34711714D02*
X8071428Y-34749809D01*
X8033333Y-34787904D01*
X7995238Y-34749809D01*
X8033333Y-34711714D01*
X8033333Y-34787904D01*
X8757142Y-34787904D02*
X8757142Y-34368857D01*
X8719047Y-34292666D01*
X8642857Y-34254571D01*
X8490476Y-34254571D01*
X8414285Y-34292666D01*
X8757142Y-34749809D02*
X8680952Y-34787904D01*
X8490476Y-34787904D01*
X8414285Y-34749809D01*
X8376190Y-34673619D01*
X8376190Y-34597428D01*
X8414285Y-34521238D01*
X8490476Y-34483142D01*
X8680952Y-34483142D01*
X8757142Y-34445047D01*
X9480952Y-34254571D02*
X9480952Y-34902190D01*
X9442857Y-34978380D01*
X9404761Y-35016476D01*
X9328571Y-35054571D01*
X9214285Y-35054571D01*
X9138095Y-35016476D01*
X9480952Y-34749809D02*
X9404761Y-34787904D01*
X9252380Y-34787904D01*
X9176190Y-34749809D01*
X9138095Y-34711714D01*
X9100000Y-34635523D01*
X9100000Y-34406952D01*
X9138095Y-34330761D01*
X9176190Y-34292666D01*
X9252380Y-34254571D01*
X9404761Y-34254571D01*
X9480952Y-34292666D01*
X9861904Y-34787904D02*
X9861904Y-34254571D01*
X9861904Y-33987904D02*
X9823809Y-34026000D01*
X9861904Y-34064095D01*
X9900000Y-34026000D01*
X9861904Y-33987904D01*
X9861904Y-34064095D01*
X10585714Y-34254571D02*
X10585714Y-34787904D01*
X10242857Y-34254571D02*
X10242857Y-34673619D01*
X10280952Y-34749809D01*
X10357142Y-34787904D01*
X10471428Y-34787904D01*
X10547619Y-34749809D01*
X10585714Y-34711714D01*
X10928571Y-34749809D02*
X11004761Y-34787904D01*
X11157142Y-34787904D01*
X11233333Y-34749809D01*
X11271428Y-34673619D01*
X11271428Y-34635523D01*
X11233333Y-34559333D01*
X11157142Y-34521238D01*
X11042857Y-34521238D01*
X10966666Y-34483142D01*
X10928571Y-34406952D01*
X10928571Y-34368857D01*
X10966666Y-34292666D01*
X11042857Y-34254571D01*
X11157142Y-34254571D01*
X11233333Y-34292666D01*
X11614285Y-34483142D02*
X12223809Y-34483142D01*
X12604761Y-34787904D02*
X12604761Y-34254571D01*
X12604761Y-33987904D02*
X12566666Y-34026000D01*
X12604761Y-34064095D01*
X12642857Y-34026000D01*
X12604761Y-33987904D01*
X12604761Y-34064095D01*
X12985714Y-34254571D02*
X12985714Y-34787904D01*
X12985714Y-34330761D02*
X13023809Y-34292666D01*
X13100000Y-34254571D01*
X13214285Y-34254571D01*
X13290476Y-34292666D01*
X13328571Y-34368857D01*
X13328571Y-34787904D01*
X14052380Y-34787904D02*
X14052380Y-33987904D01*
X14052380Y-34749809D02*
X13976190Y-34787904D01*
X13823809Y-34787904D01*
X13747619Y-34749809D01*
X13709523Y-34711714D01*
X13671428Y-34635523D01*
X13671428Y-34406952D01*
X13709523Y-34330761D01*
X13747619Y-34292666D01*
X13823809Y-34254571D01*
X13976190Y-34254571D01*
X14052380Y-34292666D01*
X14776190Y-34254571D02*
X14776190Y-34787904D01*
X14433333Y-34254571D02*
X14433333Y-34673619D01*
X14471428Y-34749809D01*
X14547619Y-34787904D01*
X14661904Y-34787904D01*
X14738095Y-34749809D01*
X14776190Y-34711714D01*
X15119047Y-34749809D02*
X15195238Y-34787904D01*
X15347619Y-34787904D01*
X15423809Y-34749809D01*
X15461904Y-34673619D01*
X15461904Y-34635523D01*
X15423809Y-34559333D01*
X15347619Y-34521238D01*
X15233333Y-34521238D01*
X15157142Y-34483142D01*
X15119047Y-34406952D01*
X15119047Y-34368857D01*
X15157142Y-34292666D01*
X15233333Y-34254571D01*
X15347619Y-34254571D01*
X15423809Y-34292666D01*
X15690476Y-34254571D02*
X15995238Y-34254571D01*
X15804761Y-33987904D02*
X15804761Y-34673619D01*
X15842857Y-34749809D01*
X15919047Y-34787904D01*
X15995238Y-34787904D01*
X16261904Y-34787904D02*
X16261904Y-34254571D01*
X16261904Y-34406952D02*
X16300000Y-34330761D01*
X16338095Y-34292666D01*
X16414285Y-34254571D01*
X16490476Y-34254571D01*
X16757142Y-34787904D02*
X16757142Y-34254571D01*
X16757142Y-33987904D02*
X16719047Y-34026000D01*
X16757142Y-34064095D01*
X16795238Y-34026000D01*
X16757142Y-33987904D01*
X16757142Y-34064095D01*
X17442857Y-34749809D02*
X17366666Y-34787904D01*
X17214285Y-34787904D01*
X17138095Y-34749809D01*
X17100000Y-34673619D01*
X17100000Y-34368857D01*
X17138095Y-34292666D01*
X17214285Y-34254571D01*
X17366666Y-34254571D01*
X17442857Y-34292666D01*
X17480952Y-34368857D01*
X17480952Y-34445047D01*
X17100000Y-34521238D01*
X17785714Y-34749809D02*
X17861904Y-34787904D01*
X18014285Y-34787904D01*
X18090476Y-34749809D01*
X18128571Y-34673619D01*
X18128571Y-34635523D01*
X18090476Y-34559333D01*
X18014285Y-34521238D01*
X17900000Y-34521238D01*
X17823809Y-34483142D01*
X17785714Y-34406952D01*
X17785714Y-34368857D01*
X17823809Y-34292666D01*
X17900000Y-34254571D01*
X18014285Y-34254571D01*
X18090476Y-34292666D01*
X18471428Y-34711714D02*
X18509523Y-34749809D01*
X18471428Y-34787904D01*
X18433333Y-34749809D01*
X18471428Y-34711714D01*
X18471428Y-34787904D01*
X19157142Y-34749809D02*
X19080952Y-34787904D01*
X18928571Y-34787904D01*
X18852380Y-34749809D01*
X18814285Y-34673619D01*
X18814285Y-34368857D01*
X18852380Y-34292666D01*
X18928571Y-34254571D01*
X19080952Y-34254571D01*
X19157142Y-34292666D01*
X19195238Y-34368857D01*
X19195238Y-34445047D01*
X18814285Y-34521238D01*
X19880952Y-34254571D02*
X19880952Y-34787904D01*
X19538095Y-34254571D02*
X19538095Y-34673619D01*
X19576190Y-34749809D01*
X19652380Y-34787904D01*
X19766666Y-34787904D01*
X19842857Y-34749809D01*
X19880952Y-34711714D01*
D10*
X41616380Y-22177333D02*
X41616380Y-21558285D01*
X41997333Y-21891619D01*
X41997333Y-21748761D01*
X42044952Y-21653523D01*
X42092571Y-21605904D01*
X42187809Y-21558285D01*
X42425904Y-21558285D01*
X42521142Y-21605904D01*
X42568761Y-21653523D01*
X42616380Y-21748761D01*
X42616380Y-22034476D01*
X42568761Y-22129714D01*
X42521142Y-22177333D01*
X22923523Y-31456380D02*
X22447333Y-31456380D01*
X22399714Y-31932571D01*
X22447333Y-31884952D01*
X22542571Y-31837333D01*
X22780666Y-31837333D01*
X22875904Y-31884952D01*
X22923523Y-31932571D01*
X22971142Y-32027809D01*
X22971142Y-32265904D01*
X22923523Y-32361142D01*
X22875904Y-32408761D01*
X22780666Y-32456380D01*
X22542571Y-32456380D01*
X22447333Y-32408761D01*
X22399714Y-32361142D01*
X23256857Y-31456380D02*
X23590190Y-32456380D01*
X23923523Y-31456380D01*
X26186095Y-1198571D02*
X26519428Y-1198571D01*
X26662285Y-1722380D02*
X26186095Y-1722380D01*
X26186095Y-722380D01*
X26662285Y-722380D01*
X27090857Y-1055714D02*
X27090857Y-1722380D01*
X27090857Y-1150952D02*
X27138476Y-1103333D01*
X27233714Y-1055714D01*
X27376571Y-1055714D01*
X27471809Y-1103333D01*
X27519428Y-1198571D01*
X27519428Y-1722380D01*
X28424190Y-1722380D02*
X28424190Y-1198571D01*
X28376571Y-1103333D01*
X28281333Y-1055714D01*
X28090857Y-1055714D01*
X27995619Y-1103333D01*
X28424190Y-1674761D02*
X28328952Y-1722380D01*
X28090857Y-1722380D01*
X27995619Y-1674761D01*
X27948000Y-1579523D01*
X27948000Y-1484285D01*
X27995619Y-1389047D01*
X28090857Y-1341428D01*
X28328952Y-1341428D01*
X28424190Y-1293809D01*
X28900380Y-1722380D02*
X28900380Y-722380D01*
X28900380Y-1103333D02*
X28995619Y-1055714D01*
X29186095Y-1055714D01*
X29281333Y-1103333D01*
X29328952Y-1150952D01*
X29376571Y-1246190D01*
X29376571Y-1531904D01*
X29328952Y-1627142D01*
X29281333Y-1674761D01*
X29186095Y-1722380D01*
X28995619Y-1722380D01*
X28900380Y-1674761D01*
X29948000Y-1722380D02*
X29852761Y-1674761D01*
X29805142Y-1579523D01*
X29805142Y-722380D01*
X30709904Y-1674761D02*
X30614666Y-1722380D01*
X30424190Y-1722380D01*
X30328952Y-1674761D01*
X30281333Y-1579523D01*
X30281333Y-1198571D01*
X30328952Y-1103333D01*
X30424190Y-1055714D01*
X30614666Y-1055714D01*
X30709904Y-1103333D01*
X30757523Y-1198571D01*
X30757523Y-1293809D01*
X30281333Y-1389047D01*
X1262190Y-21804380D02*
X1595523Y-22804380D01*
X1928857Y-21804380D01*
X2262190Y-22804380D02*
X2262190Y-22137714D01*
X2262190Y-21804380D02*
X2214571Y-21852000D01*
X2262190Y-21899619D01*
X2309809Y-21852000D01*
X2262190Y-21804380D01*
X2262190Y-21899619D01*
X2738380Y-22137714D02*
X2738380Y-22804380D01*
X2738380Y-22232952D02*
X2786000Y-22185333D01*
X2881238Y-22137714D01*
X3024095Y-22137714D01*
X3119333Y-22185333D01*
X3166952Y-22280571D01*
X3166952Y-22804380D01*
X31049714Y-32456380D02*
X30478285Y-32456380D01*
X30764000Y-32456380D02*
X30764000Y-31456380D01*
X30668761Y-31599238D01*
X30573523Y-31694476D01*
X30478285Y-31742095D01*
X66773380Y-5012904D02*
X67582904Y-5012904D01*
X67678142Y-4965285D01*
X67725761Y-4917666D01*
X67773380Y-4822428D01*
X67773380Y-4631952D01*
X67725761Y-4536714D01*
X67678142Y-4489095D01*
X67582904Y-4441476D01*
X66773380Y-4441476D01*
X67773380Y-3441476D02*
X67773380Y-4012904D01*
X67773380Y-3727190D02*
X66773380Y-3727190D01*
X66916238Y-3822428D01*
X67011476Y-3917666D01*
X67059095Y-4012904D01*
X3168666Y-6635714D02*
X3130571Y-6673809D01*
X3016285Y-6711904D01*
X2940095Y-6711904D01*
X2825809Y-6673809D01*
X2749619Y-6597619D01*
X2711523Y-6521428D01*
X2673428Y-6369047D01*
X2673428Y-6254761D01*
X2711523Y-6102380D01*
X2749619Y-6026190D01*
X2825809Y-5950000D01*
X2940095Y-5911904D01*
X3016285Y-5911904D01*
X3130571Y-5950000D01*
X3168666Y-5988095D01*
X3854380Y-5911904D02*
X3702000Y-5911904D01*
X3625809Y-5950000D01*
X3587714Y-5988095D01*
X3511523Y-6102380D01*
X3473428Y-6254761D01*
X3473428Y-6559523D01*
X3511523Y-6635714D01*
X3549619Y-6673809D01*
X3625809Y-6711904D01*
X3778190Y-6711904D01*
X3854380Y-6673809D01*
X3892476Y-6635714D01*
X3930571Y-6559523D01*
X3930571Y-6369047D01*
X3892476Y-6292857D01*
X3854380Y-6254761D01*
X3778190Y-6216666D01*
X3625809Y-6216666D01*
X3549619Y-6254761D01*
X3511523Y-6292857D01*
X3473428Y-6369047D01*
X21875714Y-3561753D02*
X21913809Y-3599848D01*
X21951904Y-3714134D01*
X21951904Y-3790324D01*
X21913809Y-3904610D01*
X21837619Y-3980800D01*
X21761428Y-4018896D01*
X21609047Y-4056991D01*
X21494761Y-4056991D01*
X21342380Y-4018896D01*
X21266190Y-3980800D01*
X21190000Y-3904610D01*
X21151904Y-3790324D01*
X21151904Y-3714134D01*
X21190000Y-3599848D01*
X21228095Y-3561753D01*
X21951904Y-2799848D02*
X21951904Y-3256991D01*
X21951904Y-3028420D02*
X21151904Y-3028420D01*
X21266190Y-3104610D01*
X21342380Y-3180800D01*
X21380476Y-3256991D01*
X15138476Y-27755904D02*
X15138476Y-28403523D01*
X15176571Y-28479714D01*
X15214666Y-28517809D01*
X15290857Y-28555904D01*
X15443238Y-28555904D01*
X15519428Y-28517809D01*
X15557523Y-28479714D01*
X15595619Y-28403523D01*
X15595619Y-27755904D01*
X15938476Y-27832095D02*
X15976571Y-27794000D01*
X16052761Y-27755904D01*
X16243238Y-27755904D01*
X16319428Y-27794000D01*
X16357523Y-27832095D01*
X16395619Y-27908285D01*
X16395619Y-27984476D01*
X16357523Y-28098761D01*
X15900380Y-28555904D01*
X16395619Y-28555904D01*
X34664666Y-12741714D02*
X34626571Y-12779809D01*
X34512285Y-12817904D01*
X34436095Y-12817904D01*
X34321809Y-12779809D01*
X34245619Y-12703619D01*
X34207523Y-12627428D01*
X34169428Y-12475047D01*
X34169428Y-12360761D01*
X34207523Y-12208380D01*
X34245619Y-12132190D01*
X34321809Y-12056000D01*
X34436095Y-12017904D01*
X34512285Y-12017904D01*
X34626571Y-12056000D01*
X34664666Y-12094095D01*
X34969428Y-12094095D02*
X35007523Y-12056000D01*
X35083714Y-12017904D01*
X35274190Y-12017904D01*
X35350380Y-12056000D01*
X35388476Y-12094095D01*
X35426571Y-12170285D01*
X35426571Y-12246476D01*
X35388476Y-12360761D01*
X34931333Y-12817904D01*
X35426571Y-12817904D01*
X18649904Y-25228476D02*
X17849904Y-25228476D01*
X17849904Y-25038000D01*
X17888000Y-24923714D01*
X17964190Y-24847523D01*
X18040380Y-24809428D01*
X18192761Y-24771333D01*
X18307047Y-24771333D01*
X18459428Y-24809428D01*
X18535619Y-24847523D01*
X18611809Y-24923714D01*
X18649904Y-25038000D01*
X18649904Y-25228476D01*
X17926095Y-24466571D02*
X17888000Y-24428476D01*
X17849904Y-24352285D01*
X17849904Y-24161809D01*
X17888000Y-24085619D01*
X17926095Y-24047523D01*
X18002285Y-24009428D01*
X18078476Y-24009428D01*
X18192761Y-24047523D01*
X18649904Y-24504666D01*
X18649904Y-24009428D01*
X34982095Y-26238190D02*
X34944000Y-26314380D01*
X34867809Y-26390571D01*
X34753523Y-26504857D01*
X34715428Y-26581047D01*
X34715428Y-26657238D01*
X34905904Y-26619142D02*
X34867809Y-26695333D01*
X34791619Y-26771523D01*
X34639238Y-26809619D01*
X34372571Y-26809619D01*
X34220190Y-26771523D01*
X34144000Y-26695333D01*
X34105904Y-26619142D01*
X34105904Y-26466761D01*
X34144000Y-26390571D01*
X34220190Y-26314380D01*
X34372571Y-26276285D01*
X34639238Y-26276285D01*
X34791619Y-26314380D01*
X34867809Y-26390571D01*
X34905904Y-26466761D01*
X34905904Y-26619142D01*
X34182095Y-25971523D02*
X34144000Y-25933428D01*
X34105904Y-25857238D01*
X34105904Y-25666761D01*
X34144000Y-25590571D01*
X34182095Y-25552476D01*
X34258285Y-25514380D01*
X34334476Y-25514380D01*
X34448761Y-25552476D01*
X34905904Y-26009619D01*
X34905904Y-25514380D01*
X26790666Y-29411904D02*
X26524000Y-29030952D01*
X26333523Y-29411904D02*
X26333523Y-28611904D01*
X26638285Y-28611904D01*
X26714476Y-28650000D01*
X26752571Y-28688095D01*
X26790666Y-28764285D01*
X26790666Y-28878571D01*
X26752571Y-28954761D01*
X26714476Y-28992857D01*
X26638285Y-29030952D01*
X26333523Y-29030952D01*
X27057333Y-28611904D02*
X27590666Y-28611904D01*
X27247809Y-29411904D01*
X26790666Y-21189904D02*
X26524000Y-20808952D01*
X26333523Y-21189904D02*
X26333523Y-20389904D01*
X26638285Y-20389904D01*
X26714476Y-20428000D01*
X26752571Y-20466095D01*
X26790666Y-20542285D01*
X26790666Y-20656571D01*
X26752571Y-20732761D01*
X26714476Y-20770857D01*
X26638285Y-20808952D01*
X26333523Y-20808952D01*
X27057333Y-20389904D02*
X27552571Y-20389904D01*
X27285904Y-20694666D01*
X27400190Y-20694666D01*
X27476380Y-20732761D01*
X27514476Y-20770857D01*
X27552571Y-20847047D01*
X27552571Y-21037523D01*
X27514476Y-21113714D01*
X27476380Y-21151809D01*
X27400190Y-21189904D01*
X27171619Y-21189904D01*
X27095428Y-21151809D01*
X27057333Y-21113714D01*
X21964666Y-29411904D02*
X21698000Y-29030952D01*
X21507523Y-29411904D02*
X21507523Y-28611904D01*
X21812285Y-28611904D01*
X21888476Y-28650000D01*
X21926571Y-28688095D01*
X21964666Y-28764285D01*
X21964666Y-28878571D01*
X21926571Y-28954761D01*
X21888476Y-28992857D01*
X21812285Y-29030952D01*
X21507523Y-29030952D01*
X22345619Y-29411904D02*
X22498000Y-29411904D01*
X22574190Y-29373809D01*
X22612285Y-29335714D01*
X22688476Y-29221428D01*
X22726571Y-29069047D01*
X22726571Y-28764285D01*
X22688476Y-28688095D01*
X22650380Y-28650000D01*
X22574190Y-28611904D01*
X22421809Y-28611904D01*
X22345619Y-28650000D01*
X22307523Y-28688095D01*
X22269428Y-28764285D01*
X22269428Y-28954761D01*
X22307523Y-29030952D01*
X22345619Y-29069047D01*
X22421809Y-29107142D01*
X22574190Y-29107142D01*
X22650380Y-29069047D01*
X22688476Y-29030952D01*
X22726571Y-28954761D01*
X5147904Y-18111476D02*
X4347904Y-18111476D01*
X4347904Y-17921000D01*
X4386000Y-17806714D01*
X4462190Y-17730523D01*
X4538380Y-17692428D01*
X4690761Y-17654333D01*
X4805047Y-17654333D01*
X4957428Y-17692428D01*
X5033619Y-17730523D01*
X5109809Y-17806714D01*
X5147904Y-17921000D01*
X5147904Y-18111476D01*
X5147904Y-16892428D02*
X5147904Y-17349571D01*
X5147904Y-17121000D02*
X4347904Y-17121000D01*
X4462190Y-17197190D01*
X4538380Y-17273380D01*
X4576476Y-17349571D01*
X39922095Y-26238190D02*
X39884000Y-26314380D01*
X39807809Y-26390571D01*
X39693523Y-26504857D01*
X39655428Y-26581047D01*
X39655428Y-26657238D01*
X39845904Y-26619142D02*
X39807809Y-26695333D01*
X39731619Y-26771523D01*
X39579238Y-26809619D01*
X39312571Y-26809619D01*
X39160190Y-26771523D01*
X39084000Y-26695333D01*
X39045904Y-26619142D01*
X39045904Y-26466761D01*
X39084000Y-26390571D01*
X39160190Y-26314380D01*
X39312571Y-26276285D01*
X39579238Y-26276285D01*
X39731619Y-26314380D01*
X39807809Y-26390571D01*
X39845904Y-26466761D01*
X39845904Y-26619142D01*
X39312571Y-25590571D02*
X39845904Y-25590571D01*
X39007809Y-25781047D02*
X39579238Y-25971523D01*
X39579238Y-25476285D01*
X36569714Y-29411904D02*
X36303047Y-29030952D01*
X36112571Y-29411904D02*
X36112571Y-28611904D01*
X36417333Y-28611904D01*
X36493523Y-28650000D01*
X36531619Y-28688095D01*
X36569714Y-28764285D01*
X36569714Y-28878571D01*
X36531619Y-28954761D01*
X36493523Y-28992857D01*
X36417333Y-29030952D01*
X36112571Y-29030952D01*
X37331619Y-29411904D02*
X36874476Y-29411904D01*
X37103047Y-29411904D02*
X37103047Y-28611904D01*
X37026857Y-28726190D01*
X36950666Y-28802380D01*
X36874476Y-28840476D01*
X37826857Y-28611904D02*
X37903047Y-28611904D01*
X37979238Y-28650000D01*
X38017333Y-28688095D01*
X38055428Y-28764285D01*
X38093523Y-28916666D01*
X38093523Y-29107142D01*
X38055428Y-29259523D01*
X38017333Y-29335714D01*
X37979238Y-29373809D01*
X37903047Y-29411904D01*
X37826857Y-29411904D01*
X37750666Y-29373809D01*
X37712571Y-29335714D01*
X37674476Y-29259523D01*
X37636380Y-29107142D01*
X37636380Y-28916666D01*
X37674476Y-28764285D01*
X37712571Y-28688095D01*
X37750666Y-28650000D01*
X37826857Y-28611904D01*
X37458666Y-7473904D02*
X37192000Y-7092952D01*
X37001523Y-7473904D02*
X37001523Y-6673904D01*
X37306285Y-6673904D01*
X37382476Y-6712000D01*
X37420571Y-6750095D01*
X37458666Y-6826285D01*
X37458666Y-6940571D01*
X37420571Y-7016761D01*
X37382476Y-7054857D01*
X37306285Y-7092952D01*
X37001523Y-7092952D01*
X37763428Y-6750095D02*
X37801523Y-6712000D01*
X37877714Y-6673904D01*
X38068190Y-6673904D01*
X38144380Y-6712000D01*
X38182476Y-6750095D01*
X38220571Y-6826285D01*
X38220571Y-6902476D01*
X38182476Y-7016761D01*
X37725333Y-7473904D01*
X38220571Y-7473904D01*
X14001714Y-17659333D02*
X14039809Y-17697428D01*
X14077904Y-17811714D01*
X14077904Y-17887904D01*
X14039809Y-18002190D01*
X13963619Y-18078380D01*
X13887428Y-18116476D01*
X13735047Y-18154571D01*
X13620761Y-18154571D01*
X13468380Y-18116476D01*
X13392190Y-18078380D01*
X13316000Y-18002190D01*
X13277904Y-17887904D01*
X13277904Y-17811714D01*
X13316000Y-17697428D01*
X13354095Y-17659333D01*
X13277904Y-16935523D02*
X13277904Y-17316476D01*
X13658857Y-17354571D01*
X13620761Y-17316476D01*
X13582666Y-17240285D01*
X13582666Y-17049809D01*
X13620761Y-16973619D01*
X13658857Y-16935523D01*
X13735047Y-16897428D01*
X13925523Y-16897428D01*
X14001714Y-16935523D01*
X14039809Y-16973619D01*
X14077904Y-17049809D01*
X14077904Y-17240285D01*
X14039809Y-17316476D01*
X14001714Y-17354571D01*
X31933666Y-21189904D02*
X31667000Y-20808952D01*
X31476523Y-21189904D02*
X31476523Y-20389904D01*
X31781285Y-20389904D01*
X31857476Y-20428000D01*
X31895571Y-20466095D01*
X31933666Y-20542285D01*
X31933666Y-20656571D01*
X31895571Y-20732761D01*
X31857476Y-20770857D01*
X31781285Y-20808952D01*
X31476523Y-20808952D01*
X32619380Y-20656571D02*
X32619380Y-21189904D01*
X32428904Y-20351809D02*
X32238428Y-20923238D01*
X32733666Y-20923238D01*
X39571904Y-22993333D02*
X39190952Y-23260000D01*
X39571904Y-23450476D02*
X38771904Y-23450476D01*
X38771904Y-23145714D01*
X38810000Y-23069523D01*
X38848095Y-23031428D01*
X38924285Y-22993333D01*
X39038571Y-22993333D01*
X39114761Y-23031428D01*
X39152857Y-23069523D01*
X39190952Y-23145714D01*
X39190952Y-23450476D01*
X38771904Y-22307619D02*
X38771904Y-22460000D01*
X38810000Y-22536190D01*
X38848095Y-22574285D01*
X38962380Y-22650476D01*
X39114761Y-22688571D01*
X39419523Y-22688571D01*
X39495714Y-22650476D01*
X39533809Y-22612380D01*
X39571904Y-22536190D01*
X39571904Y-22383809D01*
X39533809Y-22307619D01*
X39495714Y-22269523D01*
X39419523Y-22231428D01*
X39229047Y-22231428D01*
X39152857Y-22269523D01*
X39114761Y-22307619D01*
X39076666Y-22383809D01*
X39076666Y-22536190D01*
X39114761Y-22612380D01*
X39152857Y-22650476D01*
X39229047Y-22688571D01*
X25076095Y-26238190D02*
X25038000Y-26314380D01*
X24961809Y-26390571D01*
X24847523Y-26504857D01*
X24809428Y-26581047D01*
X24809428Y-26657238D01*
X24999904Y-26619142D02*
X24961809Y-26695333D01*
X24885619Y-26771523D01*
X24733238Y-26809619D01*
X24466571Y-26809619D01*
X24314190Y-26771523D01*
X24238000Y-26695333D01*
X24199904Y-26619142D01*
X24199904Y-26466761D01*
X24238000Y-26390571D01*
X24314190Y-26314380D01*
X24466571Y-26276285D01*
X24733238Y-26276285D01*
X24885619Y-26314380D01*
X24961809Y-26390571D01*
X24999904Y-26466761D01*
X24999904Y-26619142D01*
X24199904Y-26009619D02*
X24199904Y-25514380D01*
X24504666Y-25781047D01*
X24504666Y-25666761D01*
X24542761Y-25590571D01*
X24580857Y-25552476D01*
X24657047Y-25514380D01*
X24847523Y-25514380D01*
X24923714Y-25552476D01*
X24961809Y-25590571D01*
X24999904Y-25666761D01*
X24999904Y-25895333D01*
X24961809Y-25971523D01*
X24923714Y-26009619D01*
X37458666Y-4077904D02*
X37192000Y-3696952D01*
X37001523Y-4077904D02*
X37001523Y-3277904D01*
X37306285Y-3277904D01*
X37382476Y-3316000D01*
X37420571Y-3354095D01*
X37458666Y-3430285D01*
X37458666Y-3544571D01*
X37420571Y-3620761D01*
X37382476Y-3658857D01*
X37306285Y-3696952D01*
X37001523Y-3696952D01*
X38220571Y-4077904D02*
X37763428Y-4077904D01*
X37992000Y-4077904D02*
X37992000Y-3277904D01*
X37915809Y-3392190D01*
X37839619Y-3468380D01*
X37763428Y-3506476D01*
X31870666Y-29411904D02*
X31604000Y-29030952D01*
X31413523Y-29411904D02*
X31413523Y-28611904D01*
X31718285Y-28611904D01*
X31794476Y-28650000D01*
X31832571Y-28688095D01*
X31870666Y-28764285D01*
X31870666Y-28878571D01*
X31832571Y-28954761D01*
X31794476Y-28992857D01*
X31718285Y-29030952D01*
X31413523Y-29030952D01*
X32327809Y-28954761D02*
X32251619Y-28916666D01*
X32213523Y-28878571D01*
X32175428Y-28802380D01*
X32175428Y-28764285D01*
X32213523Y-28688095D01*
X32251619Y-28650000D01*
X32327809Y-28611904D01*
X32480190Y-28611904D01*
X32556380Y-28650000D01*
X32594476Y-28688095D01*
X32632571Y-28764285D01*
X32632571Y-28802380D01*
X32594476Y-28878571D01*
X32556380Y-28916666D01*
X32480190Y-28954761D01*
X32327809Y-28954761D01*
X32251619Y-28992857D01*
X32213523Y-29030952D01*
X32175428Y-29107142D01*
X32175428Y-29259523D01*
X32213523Y-29335714D01*
X32251619Y-29373809D01*
X32327809Y-29411904D01*
X32480190Y-29411904D01*
X32556380Y-29373809D01*
X32594476Y-29335714D01*
X32632571Y-29259523D01*
X32632571Y-29107142D01*
X32594476Y-29030952D01*
X32556380Y-28992857D01*
X32480190Y-28954761D01*
X8761714Y-17659333D02*
X8799809Y-17697428D01*
X8837904Y-17811714D01*
X8837904Y-17887904D01*
X8799809Y-18002190D01*
X8723619Y-18078380D01*
X8647428Y-18116476D01*
X8495047Y-18154571D01*
X8380761Y-18154571D01*
X8228380Y-18116476D01*
X8152190Y-18078380D01*
X8076000Y-18002190D01*
X8037904Y-17887904D01*
X8037904Y-17811714D01*
X8076000Y-17697428D01*
X8114095Y-17659333D01*
X8037904Y-17392666D02*
X8037904Y-16897428D01*
X8342666Y-17164095D01*
X8342666Y-17049809D01*
X8380761Y-16973619D01*
X8418857Y-16935523D01*
X8495047Y-16897428D01*
X8685523Y-16897428D01*
X8761714Y-16935523D01*
X8799809Y-16973619D01*
X8837904Y-17049809D01*
X8837904Y-17278380D01*
X8799809Y-17354571D01*
X8761714Y-17392666D01*
X21964666Y-21189904D02*
X21698000Y-20808952D01*
X21507523Y-21189904D02*
X21507523Y-20389904D01*
X21812285Y-20389904D01*
X21888476Y-20428000D01*
X21926571Y-20466095D01*
X21964666Y-20542285D01*
X21964666Y-20656571D01*
X21926571Y-20732761D01*
X21888476Y-20770857D01*
X21812285Y-20808952D01*
X21507523Y-20808952D01*
X22688476Y-20389904D02*
X22307523Y-20389904D01*
X22269428Y-20770857D01*
X22307523Y-20732761D01*
X22383714Y-20694666D01*
X22574190Y-20694666D01*
X22650380Y-20732761D01*
X22688476Y-20770857D01*
X22726571Y-20847047D01*
X22726571Y-21037523D01*
X22688476Y-21113714D01*
X22650380Y-21151809D01*
X22574190Y-21189904D01*
X22383714Y-21189904D01*
X22307523Y-21151809D01*
X22269428Y-21113714D01*
X17219904Y-18040285D02*
X16838952Y-18306952D01*
X17219904Y-18497428D02*
X16419904Y-18497428D01*
X16419904Y-18192666D01*
X16458000Y-18116476D01*
X16496095Y-18078380D01*
X16572285Y-18040285D01*
X16686571Y-18040285D01*
X16762761Y-18078380D01*
X16800857Y-18116476D01*
X16838952Y-18192666D01*
X16838952Y-18497428D01*
X17219904Y-17278380D02*
X17219904Y-17735523D01*
X17219904Y-17506952D02*
X16419904Y-17506952D01*
X16534190Y-17583142D01*
X16610380Y-17659333D01*
X16648476Y-17735523D01*
X17219904Y-16516476D02*
X17219904Y-16973619D01*
X17219904Y-16745047D02*
X16419904Y-16745047D01*
X16534190Y-16821238D01*
X16610380Y-16897428D01*
X16648476Y-16973619D01*
X26523904Y-4070285D02*
X26142952Y-4336952D01*
X26523904Y-4527428D02*
X25723904Y-4527428D01*
X25723904Y-4222666D01*
X25762000Y-4146476D01*
X25800095Y-4108380D01*
X25876285Y-4070285D01*
X25990571Y-4070285D01*
X26066761Y-4108380D01*
X26104857Y-4146476D01*
X26142952Y-4222666D01*
X26142952Y-4527428D01*
X26523904Y-3308380D02*
X26523904Y-3765523D01*
X26523904Y-3536952D02*
X25723904Y-3536952D01*
X25838190Y-3613142D01*
X25914380Y-3689333D01*
X25952476Y-3765523D01*
X25800095Y-3003619D02*
X25762000Y-2965523D01*
X25723904Y-2889333D01*
X25723904Y-2698857D01*
X25762000Y-2622666D01*
X25800095Y-2584571D01*
X25876285Y-2546476D01*
X25952476Y-2546476D01*
X26066761Y-2584571D01*
X26523904Y-3041714D01*
X26523904Y-2546476D01*
X3168666Y-11875714D02*
X3130571Y-11913809D01*
X3016285Y-11951904D01*
X2940095Y-11951904D01*
X2825809Y-11913809D01*
X2749619Y-11837619D01*
X2711523Y-11761428D01*
X2673428Y-11609047D01*
X2673428Y-11494761D01*
X2711523Y-11342380D01*
X2749619Y-11266190D01*
X2825809Y-11190000D01*
X2940095Y-11151904D01*
X3016285Y-11151904D01*
X3130571Y-11190000D01*
X3168666Y-11228095D01*
X3854380Y-11418571D02*
X3854380Y-11951904D01*
X3663904Y-11113809D02*
X3473428Y-11685238D01*
X3968666Y-11685238D01*
X9804476Y-2935904D02*
X9804476Y-3583523D01*
X9842571Y-3659714D01*
X9880666Y-3697809D01*
X9956857Y-3735904D01*
X10109238Y-3735904D01*
X10185428Y-3697809D01*
X10223523Y-3659714D01*
X10261619Y-3583523D01*
X10261619Y-2935904D01*
X10566380Y-2935904D02*
X11061619Y-2935904D01*
X10794952Y-3240666D01*
X10909238Y-3240666D01*
X10985428Y-3278761D01*
X11023523Y-3316857D01*
X11061619Y-3393047D01*
X11061619Y-3583523D01*
X11023523Y-3659714D01*
X10985428Y-3697809D01*
X10909238Y-3735904D01*
X10680666Y-3735904D01*
X10604476Y-3697809D01*
X10566380Y-3659714D01*
X29902095Y-26238190D02*
X29864000Y-26314380D01*
X29787809Y-26390571D01*
X29673523Y-26504857D01*
X29635428Y-26581047D01*
X29635428Y-26657238D01*
X29825904Y-26619142D02*
X29787809Y-26695333D01*
X29711619Y-26771523D01*
X29559238Y-26809619D01*
X29292571Y-26809619D01*
X29140190Y-26771523D01*
X29064000Y-26695333D01*
X29025904Y-26619142D01*
X29025904Y-26466761D01*
X29064000Y-26390571D01*
X29140190Y-26314380D01*
X29292571Y-26276285D01*
X29559238Y-26276285D01*
X29711619Y-26314380D01*
X29787809Y-26390571D01*
X29825904Y-26466761D01*
X29825904Y-26619142D01*
X29825904Y-25514380D02*
X29825904Y-25971523D01*
X29825904Y-25742952D02*
X29025904Y-25742952D01*
X29140190Y-25819142D01*
X29216380Y-25895333D01*
X29254476Y-25971523D01*
X23264761Y-14795333D02*
X23312380Y-14652476D01*
X23312380Y-14414380D01*
X23264761Y-14319142D01*
X23217142Y-14271523D01*
X23121904Y-14223904D01*
X23026666Y-14223904D01*
X22931428Y-14271523D01*
X22883809Y-14319142D01*
X22836190Y-14414380D01*
X22788571Y-14604857D01*
X22740952Y-14700095D01*
X22693333Y-14747714D01*
X22598095Y-14795333D01*
X22502857Y-14795333D01*
X22407619Y-14747714D01*
X22360000Y-14700095D01*
X22312380Y-14604857D01*
X22312380Y-14366761D01*
X22360000Y-14223904D01*
X22312380Y-13890571D02*
X23312380Y-13652476D01*
X22598095Y-13462000D01*
X23312380Y-13271523D01*
X22312380Y-13033428D01*
X23312380Y-12128666D02*
X23312380Y-12700095D01*
X23312380Y-12414380D02*
X22312380Y-12414380D01*
X22455238Y-12509619D01*
X22550476Y-12604857D01*
X22598095Y-12700095D01*
D13*
X65436000Y-15726000D02*
X58736000Y-15726000D01*
X58736000Y-15726000D02*
X40736000Y-15726000D01*
X58736000Y-1326000D02*
X65436000Y-1326000D01*
X65436000Y-1326000D02*
X65436000Y-15726000D01*
X40736000Y-15726000D02*
X40736000Y-1326000D01*
X40736000Y-1326000D02*
X58736000Y-1326000D01*
X58736000Y-15726000D02*
X58736000Y-1326000D01*
D12*
X44876000Y-576000D02*
G75*
G03*
X44876000Y-576000I-100000J0D01*
G01*
D14*
X34096000Y-974000D02*
X31436000Y-974000D01*
X31436000Y-3574000D02*
X31436000Y-974000D01*
X34096000Y-6174000D02*
X32766000Y-6174000D01*
X34096000Y-3574000D02*
X31436000Y-3574000D01*
X34096000Y-3574000D02*
X34096000Y-974000D01*
X34096000Y-4844000D02*
X34096000Y-6174000D01*
X3442580Y-7364000D02*
X3161420Y-7364000D01*
X3442580Y-8384000D02*
X3161420Y-8384000D01*
X22604000Y-3428420D02*
X22604000Y-3709580D01*
X23624000Y-3428420D02*
X23624000Y-3709580D01*
X3616000Y-23562000D02*
X956000Y-23562000D01*
X3616000Y-26162000D02*
X3616000Y-23562000D01*
X3616000Y-26162000D02*
X956000Y-26162000D01*
X956000Y-26162000D02*
X956000Y-23562000D01*
X3616000Y-28762000D02*
X2286000Y-28762000D01*
X3616000Y-27432000D02*
X3616000Y-28762000D01*
X15602000Y-27017500D02*
X14342000Y-27017500D01*
X8782000Y-23257500D02*
X8782000Y-27017500D01*
X8782000Y-27017500D02*
X10042000Y-27017500D01*
X15602000Y-21007500D02*
X15602000Y-27017500D01*
X31798000Y-11616000D02*
X38558000Y-11616000D01*
X38558000Y-8196000D02*
X31798000Y-8196000D01*
X38558000Y-11616000D02*
X38558000Y-8196000D01*
X19023000Y-22898000D02*
X19023000Y-20613000D01*
X19023000Y-20613000D02*
X17553000Y-20613000D01*
X17553000Y-20613000D02*
X17553000Y-22898000D01*
X30444000Y-26162000D02*
X30444000Y-25512000D01*
X33564000Y-26162000D02*
X33564000Y-24487000D01*
X30444000Y-26162000D02*
X30444000Y-26812000D01*
X33564000Y-26162000D02*
X33564000Y-26812000D01*
X26686742Y-29957500D02*
X27161258Y-29957500D01*
X26686742Y-31002500D02*
X27161258Y-31002500D01*
X27161258Y-22620500D02*
X26686742Y-22620500D01*
X27161258Y-21575500D02*
X26686742Y-21575500D01*
X21860742Y-29957500D02*
X22335258Y-29957500D01*
X21860742Y-31002500D02*
X22335258Y-31002500D01*
X43374000Y-30734000D02*
X43374000Y-17974000D01*
X46034000Y-30734000D02*
X43374000Y-30734000D01*
X46034000Y-32004000D02*
X46034000Y-33334000D01*
X46034000Y-30734000D02*
X46034000Y-17974000D01*
X46034000Y-17974000D02*
X43374000Y-17974000D01*
X46034000Y-33334000D02*
X44704000Y-33334000D01*
X3936000Y-14121000D02*
X3936000Y-19521000D01*
X3936000Y-14121000D02*
X636000Y-14121000D01*
X636000Y-14121000D02*
X636000Y-19521000D01*
X34544000Y-32706000D02*
X34544000Y-35366000D01*
X34544000Y-35366000D02*
X21784000Y-35366000D01*
X35814000Y-32706000D02*
X37144000Y-32706000D01*
X34544000Y-32706000D02*
X21784000Y-32706000D01*
X21784000Y-32706000D02*
X21784000Y-35366000D01*
X37144000Y-32706000D02*
X37144000Y-34036000D01*
X38644000Y-26162000D02*
X38644000Y-24487000D01*
X35524000Y-26162000D02*
X35524000Y-25512000D01*
X38644000Y-26162000D02*
X38644000Y-26812000D01*
X35524000Y-26162000D02*
X35524000Y-26812000D01*
X36846742Y-29957500D02*
X37321258Y-29957500D01*
X36846742Y-31002500D02*
X37321258Y-31002500D01*
X37829258Y-6110500D02*
X37354742Y-6110500D01*
X37829258Y-5065500D02*
X37354742Y-5065500D01*
X11682000Y-17666580D02*
X11682000Y-17385420D01*
X12702000Y-17666580D02*
X12702000Y-17385420D01*
X32304258Y-22620500D02*
X31829742Y-22620500D01*
X32304258Y-21575500D02*
X31829742Y-21575500D01*
X41162500Y-23097258D02*
X41162500Y-22622742D01*
X40117500Y-23097258D02*
X40117500Y-22622742D01*
X23658000Y-26162000D02*
X23658000Y-26812000D01*
X20538000Y-26162000D02*
X20538000Y-25512000D01*
X23658000Y-26162000D02*
X23658000Y-24487000D01*
X20538000Y-26162000D02*
X20538000Y-26812000D01*
X37829258Y-1763500D02*
X37354742Y-1763500D01*
X37829258Y-2808500D02*
X37354742Y-2808500D01*
X31766742Y-29957500D02*
X32241258Y-29957500D01*
X31766742Y-31002500D02*
X32241258Y-31002500D01*
X10416000Y-17666580D02*
X10416000Y-17385420D01*
X9396000Y-17666580D02*
X9396000Y-17385420D01*
X22335258Y-21575500D02*
X21860742Y-21575500D01*
X22335258Y-22620500D02*
X21860742Y-22620500D01*
X18810500Y-17763258D02*
X18810500Y-17288742D01*
X17765500Y-17763258D02*
X17765500Y-17288742D01*
X28208500Y-3331742D02*
X28208500Y-3806258D01*
X27163500Y-3331742D02*
X27163500Y-3806258D01*
X3442580Y-9650000D02*
X3161420Y-9650000D01*
X3442580Y-10670000D02*
X3161420Y-10670000D01*
X12324000Y-4464000D02*
X12324000Y-5724000D01*
X12324000Y-11284000D02*
X12324000Y-10024000D01*
X8564000Y-11284000D02*
X12324000Y-11284000D01*
X6314000Y-4464000D02*
X12324000Y-4464000D01*
X28547000Y-26162000D02*
X28547000Y-24487000D01*
X28547000Y-26162000D02*
X28547000Y-26812000D01*
X25427000Y-26162000D02*
X25427000Y-25512000D01*
X25427000Y-26162000D02*
X25427000Y-26812000D01*
X24100000Y-8801000D02*
X26700000Y-8801000D01*
X21950000Y-8801000D02*
X22200000Y-8801000D01*
X28850000Y-15101000D02*
X28600000Y-15101000D01*
X21950000Y-15101000D02*
X21950000Y-8801000D01*
X28850000Y-8801000D02*
X28850000Y-15101000D01*
X26700000Y-15101000D02*
X24100000Y-15101000D01*
X22200000Y-15101000D02*
X21950000Y-15101000D01*
X28600000Y-8801000D02*
X28850000Y-8801000D01*
%LPC*%
D15*
X36000000Y-18000000D03*
D16*
X44776000Y-4826000D03*
D17*
X44776000Y-7366000D03*
X44776000Y-9906000D03*
X44776000Y-12446000D03*
X42236000Y-4826000D03*
X42236000Y-7366000D03*
X42236000Y-9906000D03*
X42236000Y-12446000D03*
D18*
X32766000Y-4844000D03*
D19*
X32766000Y-2304000D03*
D20*
X4077000Y-7874000D03*
X2527000Y-7874000D03*
D21*
X23114000Y-2794000D03*
X23114000Y-4344000D03*
D18*
X2286000Y-27432000D03*
D19*
X2286000Y-24892000D03*
D22*
X14492000Y-21957500D03*
D23*
X12192000Y-28257500D03*
D22*
X12192000Y-21957500D03*
X9892000Y-21957500D03*
D24*
X37260500Y-9906000D03*
X32335500Y-9906000D03*
D25*
X18288000Y-21310500D03*
X18288000Y-22885500D03*
D26*
X32954000Y-25224500D03*
X31054000Y-25224500D03*
X32004000Y-27099500D03*
D27*
X26099000Y-30480000D03*
X27749000Y-30480000D03*
D28*
X27749000Y-22098000D03*
X26099000Y-22098000D03*
D29*
X3000000Y-3000000D03*
D27*
X21273000Y-30480000D03*
X22923000Y-30480000D03*
D18*
X44704000Y-32004000D03*
D19*
X44704000Y-29464000D03*
X44704000Y-26924000D03*
X44704000Y-24384000D03*
X44704000Y-21844000D03*
X44704000Y-19304000D03*
D30*
X2286000Y-15521000D03*
X2286000Y-19521000D03*
D18*
X35814000Y-34036000D03*
D19*
X33274000Y-34036000D03*
X30734000Y-34036000D03*
X28194000Y-34036000D03*
X25654000Y-34036000D03*
X23114000Y-34036000D03*
D26*
X38034000Y-25224500D03*
X36134000Y-25224500D03*
X37084000Y-27099500D03*
D27*
X36259000Y-30480000D03*
X37909000Y-30480000D03*
D28*
X38417000Y-5588000D03*
X36767000Y-5588000D03*
D31*
X12192000Y-18301000D03*
X12192000Y-16751000D03*
D28*
X32892000Y-22098000D03*
X31242000Y-22098000D03*
D32*
X40640000Y-23685000D03*
X40640000Y-22035000D03*
D26*
X23048000Y-25224500D03*
X21148000Y-25224500D03*
X22098000Y-27099500D03*
D28*
X38417000Y-2286000D03*
X36767000Y-2286000D03*
D27*
X31179000Y-30480000D03*
X32829000Y-30480000D03*
D31*
X9906000Y-18301000D03*
X9906000Y-16751000D03*
D28*
X22923000Y-22098000D03*
X21273000Y-22098000D03*
D32*
X18288000Y-18351000D03*
X18288000Y-16701000D03*
D29*
X3000000Y-33068000D03*
D33*
X27686000Y-2744000D03*
X27686000Y-4394000D03*
D20*
X4077000Y-10160000D03*
X2527000Y-10160000D03*
D34*
X7264000Y-5574000D03*
X7264000Y-7874000D03*
D35*
X13564000Y-7874000D03*
D34*
X7264000Y-10174000D03*
D26*
X27937000Y-25224500D03*
X26037000Y-25224500D03*
X26987000Y-27099500D03*
D36*
X23150000Y-16326000D03*
X23150000Y-7576000D03*
X27650000Y-7576000D03*
X27650000Y-16326000D03*
M02*
