%TF.GenerationSoftware,KiCad,Pcbnew,6.0.11*%
%TF.CreationDate,2024-08-04T21:37:51+01:00*%
%TF.ProjectId,ESPboard,45535062-6f61-4726-942e-6b696361645f,rev?*%
%TF.SameCoordinates,PX87a6900PY5d04800*%
%TF.FileFunction,Drillmap*%
%TF.FilePolarity,Positive*%
%FSLAX45Y45*%
G04 Gerber Fmt 4.5, Leading zero omitted, Abs format (unit mm)*
G04 Created by KiCad (PCBNEW 6.0.11) date 2024-08-04 21:37:51*
%MOMM*%
%LPD*%
G01*
G04 APERTURE LIST*
%ADD10C,0.100000*%
%ADD11C,0.200000*%
%ADD12C,0.220000*%
%ADD13C,0.320000*%
G04 APERTURE END LIST*
D10*
X0Y-3600000D02*
X4800000Y-3600000D01*
X4800000Y-3600000D02*
X4800000Y0D01*
X4800000Y0D02*
X0Y0D01*
X0Y0D02*
X0Y-3600000D01*
D11*
D12*
X190000Y-190000D02*
X410000Y-410000D01*
X410000Y-190000D02*
X190000Y-410000D01*
X190000Y-3196800D02*
X410000Y-3416800D01*
X410000Y-3196800D02*
X190000Y-3416800D01*
D13*
X3760000Y-1800000D02*
G75*
G03*
X3760000Y-1800000I-160000J0D01*
G01*
D11*
X252619Y-3915476D02*
X252619Y-3715476D01*
X300238Y-3715476D01*
X328810Y-3725000D01*
X347857Y-3744048D01*
X357381Y-3763095D01*
X366905Y-3801190D01*
X366905Y-3829762D01*
X357381Y-3867857D01*
X347857Y-3886905D01*
X328810Y-3905952D01*
X300238Y-3915476D01*
X252619Y-3915476D01*
X452619Y-3915476D02*
X452619Y-3782143D01*
X452619Y-3820238D02*
X462143Y-3801190D01*
X471667Y-3791667D01*
X490714Y-3782143D01*
X509762Y-3782143D01*
X576429Y-3915476D02*
X576429Y-3782143D01*
X576429Y-3715476D02*
X566905Y-3725000D01*
X576429Y-3734524D01*
X585952Y-3725000D01*
X576429Y-3715476D01*
X576429Y-3734524D01*
X700238Y-3915476D02*
X681190Y-3905952D01*
X671667Y-3886905D01*
X671667Y-3715476D01*
X805000Y-3915476D02*
X785952Y-3905952D01*
X776428Y-3886905D01*
X776428Y-3715476D01*
X1033571Y-3915476D02*
X1033571Y-3715476D01*
X1100238Y-3858333D01*
X1166905Y-3715476D01*
X1166905Y-3915476D01*
X1347857Y-3915476D02*
X1347857Y-3810714D01*
X1338333Y-3791667D01*
X1319286Y-3782143D01*
X1281190Y-3782143D01*
X1262143Y-3791667D01*
X1347857Y-3905952D02*
X1328810Y-3915476D01*
X1281190Y-3915476D01*
X1262143Y-3905952D01*
X1252619Y-3886905D01*
X1252619Y-3867857D01*
X1262143Y-3848809D01*
X1281190Y-3839286D01*
X1328810Y-3839286D01*
X1347857Y-3829762D01*
X1443095Y-3782143D02*
X1443095Y-3982143D01*
X1443095Y-3791667D02*
X1462143Y-3782143D01*
X1500238Y-3782143D01*
X1519286Y-3791667D01*
X1528809Y-3801190D01*
X1538333Y-3820238D01*
X1538333Y-3877381D01*
X1528809Y-3896428D01*
X1519286Y-3905952D01*
X1500238Y-3915476D01*
X1462143Y-3915476D01*
X1443095Y-3905952D01*
X1624048Y-3896428D02*
X1633571Y-3905952D01*
X1624048Y-3915476D01*
X1614524Y-3905952D01*
X1624048Y-3896428D01*
X1624048Y-3915476D01*
X1624048Y-3791667D02*
X1633571Y-3801190D01*
X1624048Y-3810714D01*
X1614524Y-3801190D01*
X1624048Y-3791667D01*
X1624048Y-3810714D01*
X-205000Y-4145000D02*
X-5000Y-4345000D01*
X-5000Y-4145000D02*
X-205000Y-4345000D01*
X243095Y-4154524D02*
X252619Y-4145000D01*
X271667Y-4135476D01*
X319286Y-4135476D01*
X338333Y-4145000D01*
X347857Y-4154524D01*
X357381Y-4173571D01*
X357381Y-4192619D01*
X347857Y-4221190D01*
X233571Y-4335476D01*
X357381Y-4335476D01*
X443095Y-4316429D02*
X452619Y-4325952D01*
X443095Y-4335476D01*
X433571Y-4325952D01*
X443095Y-4316429D01*
X443095Y-4335476D01*
X528810Y-4154524D02*
X538333Y-4145000D01*
X557381Y-4135476D01*
X605000Y-4135476D01*
X624048Y-4145000D01*
X633571Y-4154524D01*
X643095Y-4173571D01*
X643095Y-4192619D01*
X633571Y-4221190D01*
X519286Y-4335476D01*
X643095Y-4335476D01*
X766905Y-4135476D02*
X785952Y-4135476D01*
X805000Y-4145000D01*
X814524Y-4154524D01*
X824048Y-4173571D01*
X833571Y-4211667D01*
X833571Y-4259286D01*
X824048Y-4297381D01*
X814524Y-4316429D01*
X805000Y-4325952D01*
X785952Y-4335476D01*
X766905Y-4335476D01*
X747857Y-4325952D01*
X738333Y-4316429D01*
X728809Y-4297381D01*
X719286Y-4259286D01*
X719286Y-4211667D01*
X728809Y-4173571D01*
X738333Y-4154524D01*
X747857Y-4145000D01*
X766905Y-4135476D01*
X957381Y-4135476D02*
X976428Y-4135476D01*
X995476Y-4145000D01*
X1005000Y-4154524D01*
X1014524Y-4173571D01*
X1024048Y-4211667D01*
X1024048Y-4259286D01*
X1014524Y-4297381D01*
X1005000Y-4316429D01*
X995476Y-4325952D01*
X976428Y-4335476D01*
X957381Y-4335476D01*
X938333Y-4325952D01*
X928809Y-4316429D01*
X919286Y-4297381D01*
X909762Y-4259286D01*
X909762Y-4211667D01*
X919286Y-4173571D01*
X928809Y-4154524D01*
X938333Y-4145000D01*
X957381Y-4135476D01*
X1109762Y-4335476D02*
X1109762Y-4202143D01*
X1109762Y-4221190D02*
X1119286Y-4211667D01*
X1138333Y-4202143D01*
X1166905Y-4202143D01*
X1185952Y-4211667D01*
X1195476Y-4230714D01*
X1195476Y-4335476D01*
X1195476Y-4230714D02*
X1205000Y-4211667D01*
X1224048Y-4202143D01*
X1252619Y-4202143D01*
X1271667Y-4211667D01*
X1281190Y-4230714D01*
X1281190Y-4335476D01*
X1376429Y-4335476D02*
X1376429Y-4202143D01*
X1376429Y-4221190D02*
X1385952Y-4211667D01*
X1405000Y-4202143D01*
X1433571Y-4202143D01*
X1452619Y-4211667D01*
X1462143Y-4230714D01*
X1462143Y-4335476D01*
X1462143Y-4230714D02*
X1471667Y-4211667D01*
X1490714Y-4202143D01*
X1519286Y-4202143D01*
X1538333Y-4211667D01*
X1547857Y-4230714D01*
X1547857Y-4335476D01*
X1938333Y-4125952D02*
X1766905Y-4383095D01*
X2195476Y-4135476D02*
X2214524Y-4135476D01*
X2233571Y-4145000D01*
X2243095Y-4154524D01*
X2252619Y-4173571D01*
X2262143Y-4211667D01*
X2262143Y-4259286D01*
X2252619Y-4297381D01*
X2243095Y-4316429D01*
X2233571Y-4325952D01*
X2214524Y-4335476D01*
X2195476Y-4335476D01*
X2176429Y-4325952D01*
X2166905Y-4316429D01*
X2157381Y-4297381D01*
X2147857Y-4259286D01*
X2147857Y-4211667D01*
X2157381Y-4173571D01*
X2166905Y-4154524D01*
X2176429Y-4145000D01*
X2195476Y-4135476D01*
X2347857Y-4316429D02*
X2357381Y-4325952D01*
X2347857Y-4335476D01*
X2338333Y-4325952D01*
X2347857Y-4316429D01*
X2347857Y-4335476D01*
X2481190Y-4135476D02*
X2500238Y-4135476D01*
X2519286Y-4145000D01*
X2528810Y-4154524D01*
X2538333Y-4173571D01*
X2547857Y-4211667D01*
X2547857Y-4259286D01*
X2538333Y-4297381D01*
X2528810Y-4316429D01*
X2519286Y-4325952D01*
X2500238Y-4335476D01*
X2481190Y-4335476D01*
X2462143Y-4325952D01*
X2452619Y-4316429D01*
X2443095Y-4297381D01*
X2433571Y-4259286D01*
X2433571Y-4211667D01*
X2443095Y-4173571D01*
X2452619Y-4154524D01*
X2462143Y-4145000D01*
X2481190Y-4135476D01*
X2662143Y-4221190D02*
X2643095Y-4211667D01*
X2633571Y-4202143D01*
X2624048Y-4183095D01*
X2624048Y-4173571D01*
X2633571Y-4154524D01*
X2643095Y-4145000D01*
X2662143Y-4135476D01*
X2700238Y-4135476D01*
X2719286Y-4145000D01*
X2728810Y-4154524D01*
X2738333Y-4173571D01*
X2738333Y-4183095D01*
X2728810Y-4202143D01*
X2719286Y-4211667D01*
X2700238Y-4221190D01*
X2662143Y-4221190D01*
X2643095Y-4230714D01*
X2633571Y-4240238D01*
X2624048Y-4259286D01*
X2624048Y-4297381D01*
X2633571Y-4316429D01*
X2643095Y-4325952D01*
X2662143Y-4335476D01*
X2700238Y-4335476D01*
X2719286Y-4325952D01*
X2728810Y-4316429D01*
X2738333Y-4297381D01*
X2738333Y-4259286D01*
X2728810Y-4240238D01*
X2719286Y-4230714D01*
X2700238Y-4221190D01*
X2909762Y-4135476D02*
X2871667Y-4135476D01*
X2852619Y-4145000D01*
X2843095Y-4154524D01*
X2824048Y-4183095D01*
X2814524Y-4221190D01*
X2814524Y-4297381D01*
X2824048Y-4316429D01*
X2833571Y-4325952D01*
X2852619Y-4335476D01*
X2890714Y-4335476D01*
X2909762Y-4325952D01*
X2919286Y-4316429D01*
X2928809Y-4297381D01*
X2928809Y-4249762D01*
X2919286Y-4230714D01*
X2909762Y-4221190D01*
X2890714Y-4211667D01*
X2852619Y-4211667D01*
X2833571Y-4221190D01*
X2824048Y-4230714D01*
X2814524Y-4249762D01*
X3100238Y-4135476D02*
X3062143Y-4135476D01*
X3043095Y-4145000D01*
X3033571Y-4154524D01*
X3014524Y-4183095D01*
X3005000Y-4221190D01*
X3005000Y-4297381D01*
X3014524Y-4316429D01*
X3024048Y-4325952D01*
X3043095Y-4335476D01*
X3081190Y-4335476D01*
X3100238Y-4325952D01*
X3109762Y-4316429D01*
X3119286Y-4297381D01*
X3119286Y-4249762D01*
X3109762Y-4230714D01*
X3100238Y-4221190D01*
X3081190Y-4211667D01*
X3043095Y-4211667D01*
X3024048Y-4221190D01*
X3014524Y-4230714D01*
X3005000Y-4249762D01*
X3195476Y-4135476D02*
X3195476Y-4173571D01*
X3271667Y-4135476D02*
X3271667Y-4173571D01*
X3566905Y-4411667D02*
X3557381Y-4402143D01*
X3538333Y-4373571D01*
X3528809Y-4354524D01*
X3519286Y-4325952D01*
X3509762Y-4278333D01*
X3509762Y-4240238D01*
X3519286Y-4192619D01*
X3528809Y-4164048D01*
X3538333Y-4145000D01*
X3557381Y-4116428D01*
X3566905Y-4106905D01*
X3633571Y-4154524D02*
X3643095Y-4145000D01*
X3662143Y-4135476D01*
X3709762Y-4135476D01*
X3728809Y-4145000D01*
X3738333Y-4154524D01*
X3747857Y-4173571D01*
X3747857Y-4192619D01*
X3738333Y-4221190D01*
X3624048Y-4335476D01*
X3747857Y-4335476D01*
X3985952Y-4335476D02*
X3985952Y-4135476D01*
X4071667Y-4335476D02*
X4071667Y-4230714D01*
X4062143Y-4211667D01*
X4043095Y-4202143D01*
X4014524Y-4202143D01*
X3995476Y-4211667D01*
X3985952Y-4221190D01*
X4195476Y-4335476D02*
X4176428Y-4325952D01*
X4166905Y-4316429D01*
X4157381Y-4297381D01*
X4157381Y-4240238D01*
X4166905Y-4221190D01*
X4176428Y-4211667D01*
X4195476Y-4202143D01*
X4224048Y-4202143D01*
X4243095Y-4211667D01*
X4252619Y-4221190D01*
X4262143Y-4240238D01*
X4262143Y-4297381D01*
X4252619Y-4316429D01*
X4243095Y-4325952D01*
X4224048Y-4335476D01*
X4195476Y-4335476D01*
X4376429Y-4335476D02*
X4357381Y-4325952D01*
X4347857Y-4306905D01*
X4347857Y-4135476D01*
X4528810Y-4325952D02*
X4509762Y-4335476D01*
X4471667Y-4335476D01*
X4452619Y-4325952D01*
X4443095Y-4306905D01*
X4443095Y-4230714D01*
X4452619Y-4211667D01*
X4471667Y-4202143D01*
X4509762Y-4202143D01*
X4528810Y-4211667D01*
X4538333Y-4230714D01*
X4538333Y-4249762D01*
X4443095Y-4268810D01*
X4614524Y-4325952D02*
X4633571Y-4335476D01*
X4671667Y-4335476D01*
X4690714Y-4325952D01*
X4700238Y-4306905D01*
X4700238Y-4297381D01*
X4690714Y-4278333D01*
X4671667Y-4268810D01*
X4643095Y-4268810D01*
X4624048Y-4259286D01*
X4614524Y-4240238D01*
X4614524Y-4230714D01*
X4624048Y-4211667D01*
X4643095Y-4202143D01*
X4671667Y-4202143D01*
X4690714Y-4211667D01*
X4766905Y-4411667D02*
X4776429Y-4402143D01*
X4795476Y-4373571D01*
X4805000Y-4354524D01*
X4814524Y-4325952D01*
X4824048Y-4278333D01*
X4824048Y-4240238D01*
X4814524Y-4192619D01*
X4805000Y-4164048D01*
X4795476Y-4145000D01*
X4776429Y-4116428D01*
X4766905Y-4106905D01*
X5128810Y-4411667D02*
X5119286Y-4402143D01*
X5100238Y-4373571D01*
X5090714Y-4354524D01*
X5081190Y-4325952D01*
X5071667Y-4278333D01*
X5071667Y-4240238D01*
X5081190Y-4192619D01*
X5090714Y-4164048D01*
X5100238Y-4145000D01*
X5119286Y-4116428D01*
X5128810Y-4106905D01*
X5205000Y-4202143D02*
X5205000Y-4335476D01*
X5205000Y-4221190D02*
X5214524Y-4211667D01*
X5233571Y-4202143D01*
X5262143Y-4202143D01*
X5281190Y-4211667D01*
X5290714Y-4230714D01*
X5290714Y-4335476D01*
X5414524Y-4335476D02*
X5395476Y-4325952D01*
X5385952Y-4316429D01*
X5376429Y-4297381D01*
X5376429Y-4240238D01*
X5385952Y-4221190D01*
X5395476Y-4211667D01*
X5414524Y-4202143D01*
X5443095Y-4202143D01*
X5462143Y-4211667D01*
X5471667Y-4221190D01*
X5481190Y-4240238D01*
X5481190Y-4297381D01*
X5471667Y-4316429D01*
X5462143Y-4325952D01*
X5443095Y-4335476D01*
X5414524Y-4335476D01*
X5538333Y-4202143D02*
X5614524Y-4202143D01*
X5566905Y-4135476D02*
X5566905Y-4306905D01*
X5576429Y-4325952D01*
X5595476Y-4335476D01*
X5614524Y-4335476D01*
X5833571Y-4202143D02*
X5833571Y-4402143D01*
X5833571Y-4211667D02*
X5852619Y-4202143D01*
X5890714Y-4202143D01*
X5909762Y-4211667D01*
X5919286Y-4221190D01*
X5928809Y-4240238D01*
X5928809Y-4297381D01*
X5919286Y-4316429D01*
X5909762Y-4325952D01*
X5890714Y-4335476D01*
X5852619Y-4335476D01*
X5833571Y-4325952D01*
X6043095Y-4335476D02*
X6024048Y-4325952D01*
X6014524Y-4306905D01*
X6014524Y-4135476D01*
X6205000Y-4335476D02*
X6205000Y-4230714D01*
X6195476Y-4211667D01*
X6176428Y-4202143D01*
X6138333Y-4202143D01*
X6119286Y-4211667D01*
X6205000Y-4325952D02*
X6185952Y-4335476D01*
X6138333Y-4335476D01*
X6119286Y-4325952D01*
X6109762Y-4306905D01*
X6109762Y-4287857D01*
X6119286Y-4268810D01*
X6138333Y-4259286D01*
X6185952Y-4259286D01*
X6205000Y-4249762D01*
X6271667Y-4202143D02*
X6347857Y-4202143D01*
X6300238Y-4135476D02*
X6300238Y-4306905D01*
X6309762Y-4325952D01*
X6328809Y-4335476D01*
X6347857Y-4335476D01*
X6490714Y-4325952D02*
X6471667Y-4335476D01*
X6433571Y-4335476D01*
X6414524Y-4325952D01*
X6405000Y-4306905D01*
X6405000Y-4230714D01*
X6414524Y-4211667D01*
X6433571Y-4202143D01*
X6471667Y-4202143D01*
X6490714Y-4211667D01*
X6500238Y-4230714D01*
X6500238Y-4249762D01*
X6405000Y-4268810D01*
X6671667Y-4335476D02*
X6671667Y-4135476D01*
X6671667Y-4325952D02*
X6652619Y-4335476D01*
X6614524Y-4335476D01*
X6595476Y-4325952D01*
X6585952Y-4316429D01*
X6576428Y-4297381D01*
X6576428Y-4240238D01*
X6585952Y-4221190D01*
X6595476Y-4211667D01*
X6614524Y-4202143D01*
X6652619Y-4202143D01*
X6671667Y-4211667D01*
X6747857Y-4411667D02*
X6757381Y-4402143D01*
X6776428Y-4373571D01*
X6785952Y-4354524D01*
X6795476Y-4325952D01*
X6805000Y-4278333D01*
X6805000Y-4240238D01*
X6795476Y-4192619D01*
X6785952Y-4164048D01*
X6776428Y-4145000D01*
X6757381Y-4116428D01*
X6747857Y-4106905D01*
X-5000Y-4565000D02*
G75*
G03*
X-5000Y-4565000I-100000J0D01*
G01*
X233571Y-4455476D02*
X357381Y-4455476D01*
X290714Y-4531667D01*
X319286Y-4531667D01*
X338333Y-4541190D01*
X347857Y-4550714D01*
X357381Y-4569762D01*
X357381Y-4617381D01*
X347857Y-4636429D01*
X338333Y-4645952D01*
X319286Y-4655476D01*
X262143Y-4655476D01*
X243095Y-4645952D01*
X233571Y-4636429D01*
X443095Y-4636429D02*
X452619Y-4645952D01*
X443095Y-4655476D01*
X433571Y-4645952D01*
X443095Y-4636429D01*
X443095Y-4655476D01*
X528810Y-4474524D02*
X538333Y-4465000D01*
X557381Y-4455476D01*
X605000Y-4455476D01*
X624048Y-4465000D01*
X633571Y-4474524D01*
X643095Y-4493571D01*
X643095Y-4512619D01*
X633571Y-4541190D01*
X519286Y-4655476D01*
X643095Y-4655476D01*
X766905Y-4455476D02*
X785952Y-4455476D01*
X805000Y-4465000D01*
X814524Y-4474524D01*
X824048Y-4493571D01*
X833571Y-4531667D01*
X833571Y-4579286D01*
X824048Y-4617381D01*
X814524Y-4636429D01*
X805000Y-4645952D01*
X785952Y-4655476D01*
X766905Y-4655476D01*
X747857Y-4645952D01*
X738333Y-4636429D01*
X728809Y-4617381D01*
X719286Y-4579286D01*
X719286Y-4531667D01*
X728809Y-4493571D01*
X738333Y-4474524D01*
X747857Y-4465000D01*
X766905Y-4455476D01*
X957381Y-4455476D02*
X976428Y-4455476D01*
X995476Y-4465000D01*
X1005000Y-4474524D01*
X1014524Y-4493571D01*
X1024048Y-4531667D01*
X1024048Y-4579286D01*
X1014524Y-4617381D01*
X1005000Y-4636429D01*
X995476Y-4645952D01*
X976428Y-4655476D01*
X957381Y-4655476D01*
X938333Y-4645952D01*
X928809Y-4636429D01*
X919286Y-4617381D01*
X909762Y-4579286D01*
X909762Y-4531667D01*
X919286Y-4493571D01*
X928809Y-4474524D01*
X938333Y-4465000D01*
X957381Y-4455476D01*
X1109762Y-4655476D02*
X1109762Y-4522143D01*
X1109762Y-4541190D02*
X1119286Y-4531667D01*
X1138333Y-4522143D01*
X1166905Y-4522143D01*
X1185952Y-4531667D01*
X1195476Y-4550714D01*
X1195476Y-4655476D01*
X1195476Y-4550714D02*
X1205000Y-4531667D01*
X1224048Y-4522143D01*
X1252619Y-4522143D01*
X1271667Y-4531667D01*
X1281190Y-4550714D01*
X1281190Y-4655476D01*
X1376429Y-4655476D02*
X1376429Y-4522143D01*
X1376429Y-4541190D02*
X1385952Y-4531667D01*
X1405000Y-4522143D01*
X1433571Y-4522143D01*
X1452619Y-4531667D01*
X1462143Y-4550714D01*
X1462143Y-4655476D01*
X1462143Y-4550714D02*
X1471667Y-4531667D01*
X1490714Y-4522143D01*
X1519286Y-4522143D01*
X1538333Y-4531667D01*
X1547857Y-4550714D01*
X1547857Y-4655476D01*
X1938333Y-4445952D02*
X1766905Y-4703095D01*
X2195476Y-4455476D02*
X2214524Y-4455476D01*
X2233571Y-4465000D01*
X2243095Y-4474524D01*
X2252619Y-4493571D01*
X2262143Y-4531667D01*
X2262143Y-4579286D01*
X2252619Y-4617381D01*
X2243095Y-4636429D01*
X2233571Y-4645952D01*
X2214524Y-4655476D01*
X2195476Y-4655476D01*
X2176429Y-4645952D01*
X2166905Y-4636429D01*
X2157381Y-4617381D01*
X2147857Y-4579286D01*
X2147857Y-4531667D01*
X2157381Y-4493571D01*
X2166905Y-4474524D01*
X2176429Y-4465000D01*
X2195476Y-4455476D01*
X2347857Y-4636429D02*
X2357381Y-4645952D01*
X2347857Y-4655476D01*
X2338333Y-4645952D01*
X2347857Y-4636429D01*
X2347857Y-4655476D01*
X2547857Y-4655476D02*
X2433571Y-4655476D01*
X2490714Y-4655476D02*
X2490714Y-4455476D01*
X2471667Y-4484048D01*
X2452619Y-4503095D01*
X2433571Y-4512619D01*
X2624048Y-4474524D02*
X2633571Y-4465000D01*
X2652619Y-4455476D01*
X2700238Y-4455476D01*
X2719286Y-4465000D01*
X2728810Y-4474524D01*
X2738333Y-4493571D01*
X2738333Y-4512619D01*
X2728810Y-4541190D01*
X2614524Y-4655476D01*
X2738333Y-4655476D01*
X2909762Y-4455476D02*
X2871667Y-4455476D01*
X2852619Y-4465000D01*
X2843095Y-4474524D01*
X2824048Y-4503095D01*
X2814524Y-4541190D01*
X2814524Y-4617381D01*
X2824048Y-4636429D01*
X2833571Y-4645952D01*
X2852619Y-4655476D01*
X2890714Y-4655476D01*
X2909762Y-4645952D01*
X2919286Y-4636429D01*
X2928809Y-4617381D01*
X2928809Y-4569762D01*
X2919286Y-4550714D01*
X2909762Y-4541190D01*
X2890714Y-4531667D01*
X2852619Y-4531667D01*
X2833571Y-4541190D01*
X2824048Y-4550714D01*
X2814524Y-4569762D01*
X3052619Y-4455476D02*
X3071667Y-4455476D01*
X3090714Y-4465000D01*
X3100238Y-4474524D01*
X3109762Y-4493571D01*
X3119286Y-4531667D01*
X3119286Y-4579286D01*
X3109762Y-4617381D01*
X3100238Y-4636429D01*
X3090714Y-4645952D01*
X3071667Y-4655476D01*
X3052619Y-4655476D01*
X3033571Y-4645952D01*
X3024048Y-4636429D01*
X3014524Y-4617381D01*
X3005000Y-4579286D01*
X3005000Y-4531667D01*
X3014524Y-4493571D01*
X3024048Y-4474524D01*
X3033571Y-4465000D01*
X3052619Y-4455476D01*
X3195476Y-4455476D02*
X3195476Y-4493571D01*
X3271667Y-4455476D02*
X3271667Y-4493571D01*
X3566905Y-4731667D02*
X3557381Y-4722143D01*
X3538333Y-4693571D01*
X3528809Y-4674524D01*
X3519286Y-4645952D01*
X3509762Y-4598333D01*
X3509762Y-4560238D01*
X3519286Y-4512619D01*
X3528809Y-4484048D01*
X3538333Y-4465000D01*
X3557381Y-4436429D01*
X3566905Y-4426905D01*
X3747857Y-4655476D02*
X3633571Y-4655476D01*
X3690714Y-4655476D02*
X3690714Y-4455476D01*
X3671667Y-4484048D01*
X3652619Y-4503095D01*
X3633571Y-4512619D01*
X3985952Y-4655476D02*
X3985952Y-4455476D01*
X4071667Y-4655476D02*
X4071667Y-4550714D01*
X4062143Y-4531667D01*
X4043095Y-4522143D01*
X4014524Y-4522143D01*
X3995476Y-4531667D01*
X3985952Y-4541190D01*
X4195476Y-4655476D02*
X4176428Y-4645952D01*
X4166905Y-4636429D01*
X4157381Y-4617381D01*
X4157381Y-4560238D01*
X4166905Y-4541190D01*
X4176428Y-4531667D01*
X4195476Y-4522143D01*
X4224048Y-4522143D01*
X4243095Y-4531667D01*
X4252619Y-4541190D01*
X4262143Y-4560238D01*
X4262143Y-4617381D01*
X4252619Y-4636429D01*
X4243095Y-4645952D01*
X4224048Y-4655476D01*
X4195476Y-4655476D01*
X4376429Y-4655476D02*
X4357381Y-4645952D01*
X4347857Y-4626905D01*
X4347857Y-4455476D01*
X4528810Y-4645952D02*
X4509762Y-4655476D01*
X4471667Y-4655476D01*
X4452619Y-4645952D01*
X4443095Y-4626905D01*
X4443095Y-4550714D01*
X4452619Y-4531667D01*
X4471667Y-4522143D01*
X4509762Y-4522143D01*
X4528810Y-4531667D01*
X4538333Y-4550714D01*
X4538333Y-4569762D01*
X4443095Y-4588810D01*
X4605000Y-4731667D02*
X4614524Y-4722143D01*
X4633571Y-4693571D01*
X4643095Y-4674524D01*
X4652619Y-4645952D01*
X4662143Y-4598333D01*
X4662143Y-4560238D01*
X4652619Y-4512619D01*
X4643095Y-4484048D01*
X4633571Y-4465000D01*
X4614524Y-4436429D01*
X4605000Y-4426905D01*
X4966905Y-4731667D02*
X4957381Y-4722143D01*
X4938333Y-4693571D01*
X4928810Y-4674524D01*
X4919286Y-4645952D01*
X4909762Y-4598333D01*
X4909762Y-4560238D01*
X4919286Y-4512619D01*
X4928810Y-4484048D01*
X4938333Y-4465000D01*
X4957381Y-4436429D01*
X4966905Y-4426905D01*
X5043095Y-4522143D02*
X5043095Y-4655476D01*
X5043095Y-4541190D02*
X5052619Y-4531667D01*
X5071667Y-4522143D01*
X5100238Y-4522143D01*
X5119286Y-4531667D01*
X5128810Y-4550714D01*
X5128810Y-4655476D01*
X5252619Y-4655476D02*
X5233571Y-4645952D01*
X5224048Y-4636429D01*
X5214524Y-4617381D01*
X5214524Y-4560238D01*
X5224048Y-4541190D01*
X5233571Y-4531667D01*
X5252619Y-4522143D01*
X5281190Y-4522143D01*
X5300238Y-4531667D01*
X5309762Y-4541190D01*
X5319286Y-4560238D01*
X5319286Y-4617381D01*
X5309762Y-4636429D01*
X5300238Y-4645952D01*
X5281190Y-4655476D01*
X5252619Y-4655476D01*
X5376429Y-4522143D02*
X5452619Y-4522143D01*
X5405000Y-4455476D02*
X5405000Y-4626905D01*
X5414524Y-4645952D01*
X5433571Y-4655476D01*
X5452619Y-4655476D01*
X5671667Y-4522143D02*
X5671667Y-4722143D01*
X5671667Y-4531667D02*
X5690714Y-4522143D01*
X5728809Y-4522143D01*
X5747857Y-4531667D01*
X5757381Y-4541190D01*
X5766905Y-4560238D01*
X5766905Y-4617381D01*
X5757381Y-4636429D01*
X5747857Y-4645952D01*
X5728809Y-4655476D01*
X5690714Y-4655476D01*
X5671667Y-4645952D01*
X5881190Y-4655476D02*
X5862143Y-4645952D01*
X5852619Y-4626905D01*
X5852619Y-4455476D01*
X6043095Y-4655476D02*
X6043095Y-4550714D01*
X6033571Y-4531667D01*
X6014524Y-4522143D01*
X5976428Y-4522143D01*
X5957381Y-4531667D01*
X6043095Y-4645952D02*
X6024048Y-4655476D01*
X5976428Y-4655476D01*
X5957381Y-4645952D01*
X5947857Y-4626905D01*
X5947857Y-4607857D01*
X5957381Y-4588810D01*
X5976428Y-4579286D01*
X6024048Y-4579286D01*
X6043095Y-4569762D01*
X6109762Y-4522143D02*
X6185952Y-4522143D01*
X6138333Y-4455476D02*
X6138333Y-4626905D01*
X6147857Y-4645952D01*
X6166905Y-4655476D01*
X6185952Y-4655476D01*
X6328809Y-4645952D02*
X6309762Y-4655476D01*
X6271667Y-4655476D01*
X6252619Y-4645952D01*
X6243095Y-4626905D01*
X6243095Y-4550714D01*
X6252619Y-4531667D01*
X6271667Y-4522143D01*
X6309762Y-4522143D01*
X6328809Y-4531667D01*
X6338333Y-4550714D01*
X6338333Y-4569762D01*
X6243095Y-4588810D01*
X6509762Y-4655476D02*
X6509762Y-4455476D01*
X6509762Y-4645952D02*
X6490714Y-4655476D01*
X6452619Y-4655476D01*
X6433571Y-4645952D01*
X6424048Y-4636429D01*
X6414524Y-4617381D01*
X6414524Y-4560238D01*
X6424048Y-4541190D01*
X6433571Y-4531667D01*
X6452619Y-4522143D01*
X6490714Y-4522143D01*
X6509762Y-4531667D01*
X6585952Y-4731667D02*
X6595476Y-4722143D01*
X6614524Y-4693571D01*
X6624048Y-4674524D01*
X6633571Y-4645952D01*
X6643095Y-4598333D01*
X6643095Y-4560238D01*
X6633571Y-4512619D01*
X6624048Y-4484048D01*
X6614524Y-4465000D01*
X6595476Y-4436429D01*
X6585952Y-4426905D01*
M02*
