M48
; DRILL file {KiCad 6.0.11} date Sun 04 Aug 2024 09:37:50 PM IST
; FORMAT={-:-/ absolute / metric / decimal}
; #@! TF.CreationDate,2024-08-04T21:37:50+01:00
; #@! TF.GenerationSoftware,Kicad,Pcbnew,6.0.11
; #@! TF.FileFunction,Plated,1,2,PTH
FMAT,2
METRIC
; #@! TA.AperFunction,Plated,PTH,ViaDrill
T1C0.400
; #@! TA.AperFunction,Plated,PTH,ComponentDrill
T2C0.800
; #@! TA.AperFunction,Plated,PTH,ComponentDrill
T3C1.000
%
G90
G05
T1
X7.112Y-3.302
X16.51Y-19.939
X21.336Y-20.32
X24.638Y-23.368
X26.924Y-32.004
X29.464Y-26.416
X29.972Y-9.906
X32.004Y-32.004
X34.798Y-29.464
T2
X42.236Y-4.826
X42.236Y-7.366
X42.236Y-9.906
X42.236Y-12.446
X44.776Y-4.826
X44.776Y-7.366
X44.776Y-9.906
X44.776Y-12.446
T3
X2.286Y-24.892
X2.286Y-27.432
X23.114Y-34.036
X25.654Y-34.036
X28.194Y-34.036
X30.734Y-34.036
X32.766Y-2.304
X32.766Y-4.844
X33.274Y-34.036
X35.814Y-34.036
X44.704Y-19.304
X44.704Y-21.844
X44.704Y-24.384
X44.704Y-26.924
X44.704Y-29.464
X44.704Y-32.004
T0
M30
