%TF.GenerationSoftware,KiCad,Pcbnew,6.0.11*%
%TF.CreationDate,2024-08-04T21:37:38+01:00*%
%TF.ProjectId,ESPboard,45535062-6f61-4726-942e-6b696361645f,rev?*%
%TF.SameCoordinates,PX87a6900PY5d04800*%
%TF.FileFunction,Copper,L1,Top*%
%TF.FilePolarity,Positive*%
%FSLAX46Y46*%
G04 Gerber Fmt 4.6, Leading zero omitted, Abs format (unit mm)*
G04 Created by KiCad (PCBNEW 6.0.11) date 2024-08-04 21:37:38*
%MOMM*%
%LPD*%
G01*
G04 APERTURE LIST*
G04 Aperture macros list*
%AMRoundRect*
0 Rectangle with rounded corners*
0 $1 Rounding radius*
0 $2 $3 $4 $5 $6 $7 $8 $9 X,Y pos of 4 corners*
0 Add a 4 corners polygon primitive as box body*
4,1,4,$2,$3,$4,$5,$6,$7,$8,$9,$2,$3,0*
0 Add four circle primitives for the rounded corners*
1,1,$1+$1,$2,$3*
1,1,$1+$1,$4,$5*
1,1,$1+$1,$6,$7*
1,1,$1+$1,$8,$9*
0 Add four rect primitives between the rounded corners*
20,1,$1+$1,$2,$3,$4,$5,0*
20,1,$1+$1,$4,$5,$6,$7,0*
20,1,$1+$1,$6,$7,$8,$9,0*
20,1,$1+$1,$8,$9,$2,$3,0*%
G04 Aperture macros list end*
%TA.AperFunction,ComponentPad*%
%ADD10R,1.500000X1.500000*%
%TD*%
%TA.AperFunction,ComponentPad*%
%ADD11C,1.500000*%
%TD*%
%TA.AperFunction,ComponentPad*%
%ADD12R,1.700000X1.700000*%
%TD*%
%TA.AperFunction,ComponentPad*%
%ADD13O,1.700000X1.700000*%
%TD*%
%TA.AperFunction,SMDPad,CuDef*%
%ADD14RoundRect,0.225000X0.225000X0.250000X-0.225000X0.250000X-0.225000X-0.250000X0.225000X-0.250000X0*%
%TD*%
%TA.AperFunction,SMDPad,CuDef*%
%ADD15RoundRect,0.225000X-0.250000X0.225000X-0.250000X-0.225000X0.250000X-0.225000X0.250000X0.225000X0*%
%TD*%
%TA.AperFunction,SMDPad,CuDef*%
%ADD16R,1.500000X2.000000*%
%TD*%
%TA.AperFunction,SMDPad,CuDef*%
%ADD17R,3.800000X2.000000*%
%TD*%
%TA.AperFunction,SMDPad,CuDef*%
%ADD18RoundRect,0.250000X0.787500X0.925000X-0.787500X0.925000X-0.787500X-0.925000X0.787500X-0.925000X0*%
%TD*%
%TA.AperFunction,SMDPad,CuDef*%
%ADD19RoundRect,0.218750X-0.256250X0.218750X-0.256250X-0.218750X0.256250X-0.218750X0.256250X0.218750X0*%
%TD*%
%TA.AperFunction,SMDPad,CuDef*%
%ADD20RoundRect,0.150000X-0.150000X0.587500X-0.150000X-0.587500X0.150000X-0.587500X0.150000X0.587500X0*%
%TD*%
%TA.AperFunction,SMDPad,CuDef*%
%ADD21RoundRect,0.200000X-0.200000X-0.275000X0.200000X-0.275000X0.200000X0.275000X-0.200000X0.275000X0*%
%TD*%
%TA.AperFunction,SMDPad,CuDef*%
%ADD22RoundRect,0.200000X0.200000X0.275000X-0.200000X0.275000X-0.200000X-0.275000X0.200000X-0.275000X0*%
%TD*%
%TA.AperFunction,SMDPad,CuDef*%
%ADD23R,1.800000X2.500000*%
%TD*%
%TA.AperFunction,SMDPad,CuDef*%
%ADD24RoundRect,0.225000X0.250000X-0.225000X0.250000X0.225000X-0.250000X0.225000X-0.250000X-0.225000X0*%
%TD*%
%TA.AperFunction,SMDPad,CuDef*%
%ADD25RoundRect,0.200000X0.275000X-0.200000X0.275000X0.200000X-0.275000X0.200000X-0.275000X-0.200000X0*%
%TD*%
%TA.AperFunction,SMDPad,CuDef*%
%ADD26RoundRect,0.200000X-0.275000X0.200000X-0.275000X-0.200000X0.275000X-0.200000X0.275000X0.200000X0*%
%TD*%
%TA.AperFunction,SMDPad,CuDef*%
%ADD27R,2.000000X1.500000*%
%TD*%
%TA.AperFunction,SMDPad,CuDef*%
%ADD28R,2.000000X3.800000*%
%TD*%
%TA.AperFunction,SMDPad,CuDef*%
%ADD29R,1.300000X2.250000*%
%TD*%
%TA.AperFunction,ViaPad*%
%ADD30C,0.800000*%
%TD*%
%TA.AperFunction,Conductor*%
%ADD31C,0.400000*%
%TD*%
%TA.AperFunction,Conductor*%
%ADD32C,1.000000*%
%TD*%
%TA.AperFunction,Conductor*%
%ADD33C,1.400000*%
%TD*%
G04 APERTURE END LIST*
D10*
X44776000Y-4826000D03*
D11*
X44776000Y-7366000D03*
X44776000Y-9906000D03*
X44776000Y-12446000D03*
X42236000Y-4826000D03*
X42236000Y-7366000D03*
X42236000Y-9906000D03*
X42236000Y-12446000D03*
D12*
X32766000Y-4844000D03*
D13*
X32766000Y-2304000D03*
D14*
X4077000Y-7874000D03*
X2527000Y-7874000D03*
D15*
X23114000Y-2794000D03*
X23114000Y-4344000D03*
D12*
X2286000Y-27432000D03*
D13*
X2286000Y-24892000D03*
D16*
X14492000Y-21957500D03*
D17*
X12192000Y-28257500D03*
D16*
X12192000Y-21957500D03*
X9892000Y-21957500D03*
D18*
X37260500Y-9906000D03*
X32335500Y-9906000D03*
D19*
X18288000Y-21310500D03*
X18288000Y-22885500D03*
D20*
X32954000Y-25224500D03*
X31054000Y-25224500D03*
X32004000Y-27099500D03*
D21*
X26099000Y-30480000D03*
X27749000Y-30480000D03*
D22*
X27749000Y-22098000D03*
X26099000Y-22098000D03*
D21*
X21273000Y-30480000D03*
X22923000Y-30480000D03*
D12*
X44704000Y-32004000D03*
D13*
X44704000Y-29464000D03*
X44704000Y-26924000D03*
X44704000Y-24384000D03*
X44704000Y-21844000D03*
X44704000Y-19304000D03*
D23*
X2286000Y-15521000D03*
X2286000Y-19521000D03*
D12*
X35814000Y-34036000D03*
D13*
X33274000Y-34036000D03*
X30734000Y-34036000D03*
X28194000Y-34036000D03*
X25654000Y-34036000D03*
X23114000Y-34036000D03*
D20*
X38034000Y-25224500D03*
X36134000Y-25224500D03*
X37084000Y-27099500D03*
D21*
X36259000Y-30480000D03*
X37909000Y-30480000D03*
D22*
X38417000Y-5588000D03*
X36767000Y-5588000D03*
D24*
X12192000Y-18301000D03*
X12192000Y-16751000D03*
D22*
X32892000Y-22098000D03*
X31242000Y-22098000D03*
D25*
X40640000Y-23685000D03*
X40640000Y-22035000D03*
D20*
X23048000Y-25224500D03*
X21148000Y-25224500D03*
X22098000Y-27099500D03*
D22*
X38417000Y-2286000D03*
X36767000Y-2286000D03*
D21*
X31179000Y-30480000D03*
X32829000Y-30480000D03*
D24*
X9906000Y-18301000D03*
X9906000Y-16751000D03*
D22*
X22923000Y-22098000D03*
X21273000Y-22098000D03*
D25*
X18288000Y-18351000D03*
X18288000Y-16701000D03*
D26*
X27686000Y-2744000D03*
X27686000Y-4394000D03*
D14*
X4077000Y-10160000D03*
X2527000Y-10160000D03*
D27*
X7264000Y-5574000D03*
X7264000Y-7874000D03*
D28*
X13564000Y-7874000D03*
D27*
X7264000Y-10174000D03*
D20*
X27937000Y-25224500D03*
X26037000Y-25224500D03*
X26987000Y-27099500D03*
D29*
X23150000Y-16326000D03*
X23150000Y-7576000D03*
X27650000Y-7576000D03*
X27650000Y-16326000D03*
D30*
X29972000Y-9906000D03*
X7112000Y-3302000D03*
X16510000Y-19939500D03*
X26924000Y-32004000D03*
X32004000Y-32004000D03*
X24638000Y-23368000D03*
X29464000Y-26416000D03*
X21336000Y-20320000D03*
X34798000Y-29464000D03*
D31*
X36023000Y-4844000D02*
X32766000Y-4844000D01*
X27636000Y-2794000D02*
X27686000Y-2744000D01*
X29786000Y-4844000D02*
X32766000Y-4844000D01*
X23114000Y-2794000D02*
X27636000Y-2794000D01*
X27686000Y-2744000D02*
X29786000Y-4844000D01*
X36767000Y-5588000D02*
X36023000Y-4844000D01*
X16573000Y-16701000D02*
X12242000Y-16701000D01*
X9906000Y-16751000D02*
X12192000Y-16751000D01*
D32*
X16510000Y-19939500D02*
X14492000Y-21957500D01*
D31*
X12242000Y-16701000D02*
X12192000Y-16751000D01*
D32*
X7112000Y-5422000D02*
X7264000Y-5574000D01*
D31*
X18288000Y-16701000D02*
X16573000Y-16701000D01*
X2527000Y-7874000D02*
X4827000Y-5574000D01*
X25480000Y-9906000D02*
X23150000Y-7576000D01*
X23150000Y-4380000D02*
X23114000Y-4344000D01*
X16573000Y-16701000D02*
X16573000Y-19876500D01*
D32*
X7112000Y-3302000D02*
X7112000Y-5422000D01*
D31*
X23150000Y-7576000D02*
X23150000Y-4380000D01*
X29972000Y-9906000D02*
X25480000Y-9906000D01*
X2527000Y-10160000D02*
X2527000Y-7874000D01*
X16573000Y-19876500D02*
X16510000Y-19939500D01*
X4827000Y-5574000D02*
X7264000Y-5574000D01*
X32335500Y-9906000D02*
X29972000Y-9906000D01*
D33*
X37846000Y-12446000D02*
X37338000Y-12446000D01*
X15748000Y-7874000D02*
X13564000Y-7874000D01*
D31*
X39100500Y-25224500D02*
X40640000Y-23685000D01*
X38417000Y-2286000D02*
X38417000Y-5588000D01*
D33*
X37260500Y-12368500D02*
X37338000Y-12446000D01*
D31*
X40640000Y-23685000D02*
X41593000Y-23685000D01*
D33*
X20320000Y-12446000D02*
X15748000Y-7874000D01*
D31*
X22923000Y-22035000D02*
X24384000Y-20574000D01*
X31368000Y-20574000D02*
X30480000Y-20574000D01*
X38417000Y-8749500D02*
X37260500Y-9906000D01*
X27686000Y-20574000D02*
X30480000Y-20574000D01*
D33*
X37260500Y-9906000D02*
X37260500Y-12368500D01*
D31*
X38417000Y-5588000D02*
X38417000Y-8749500D01*
X32892000Y-22098000D02*
X31368000Y-20574000D01*
D33*
X44704000Y-19304000D02*
X37846000Y-12446000D01*
X37338000Y-12446000D02*
X29972000Y-12446000D01*
D31*
X7264000Y-7874000D02*
X13564000Y-7874000D01*
X30480000Y-12954000D02*
X29972000Y-12446000D01*
X24384000Y-20574000D02*
X27686000Y-20574000D01*
X22923000Y-22098000D02*
X22923000Y-25099500D01*
X42164000Y-20574000D02*
X43434000Y-19304000D01*
X22923000Y-25099500D02*
X23048000Y-25224500D01*
D33*
X29972000Y-12446000D02*
X20320000Y-12446000D01*
D31*
X32892000Y-25162500D02*
X32954000Y-25224500D01*
X43434000Y-19304000D02*
X44704000Y-19304000D01*
X30480000Y-20574000D02*
X30480000Y-12954000D01*
X27749000Y-22098000D02*
X27749000Y-20637000D01*
X22923000Y-22098000D02*
X22923000Y-22035000D01*
X27749000Y-25036500D02*
X27937000Y-25224500D01*
X27749000Y-20637000D02*
X27686000Y-20574000D01*
X27749000Y-22098000D02*
X27749000Y-25036500D01*
X41593000Y-23685000D02*
X42164000Y-23114000D01*
X7264000Y-7874000D02*
X4077000Y-7874000D01*
X42164000Y-23114000D02*
X42164000Y-20574000D01*
X32892000Y-22098000D02*
X32892000Y-25162500D01*
D33*
X42236000Y-12446000D02*
X37338000Y-12446000D01*
D31*
X38034000Y-25224500D02*
X39100500Y-25224500D01*
X9906000Y-21943500D02*
X9892000Y-21957500D01*
D33*
X6502000Y-11305000D02*
X2286000Y-15521000D01*
D31*
X4077000Y-10160000D02*
X7250000Y-10160000D01*
D33*
X2313000Y-15521000D02*
X2286000Y-15521000D01*
X4572000Y-17780000D02*
X2313000Y-15521000D01*
D31*
X9906000Y-18301000D02*
X9906000Y-21943500D01*
D33*
X7264000Y-10174000D02*
X7264000Y-10516000D01*
D31*
X7250000Y-10160000D02*
X7264000Y-10174000D01*
D33*
X8749500Y-21957500D02*
X9892000Y-21957500D01*
X4572000Y-17780000D02*
X8749500Y-21957500D01*
X7264000Y-10516000D02*
X6350000Y-11430000D01*
D31*
X26099000Y-31179000D02*
X26099000Y-30480000D01*
X12192000Y-21957500D02*
X12192000Y-18301000D01*
D33*
X12192000Y-30734000D02*
X12192000Y-28257500D01*
X23114000Y-34036000D02*
X13970000Y-34036000D01*
X13970000Y-34036000D02*
X12192000Y-32258000D01*
D31*
X21273000Y-30480000D02*
X17272000Y-30480000D01*
X32004000Y-32004000D02*
X34735000Y-32004000D01*
X18288000Y-22885500D02*
X18288000Y-30480000D01*
X34735000Y-32004000D02*
X36259000Y-30480000D01*
D33*
X12192000Y-32258000D02*
X12192000Y-30734000D01*
D31*
X18288000Y-30480000D02*
X12446000Y-30480000D01*
X31179000Y-31179000D02*
X31179000Y-30480000D01*
X26924000Y-32004000D02*
X26099000Y-31179000D01*
X32004000Y-32004000D02*
X31179000Y-31179000D01*
X12446000Y-30480000D02*
X12192000Y-30734000D01*
X12192000Y-21957500D02*
X12192000Y-28257500D01*
D33*
X2286000Y-19521000D02*
X2286000Y-24892000D01*
D31*
X18288000Y-21310500D02*
X18288000Y-18351000D01*
X39116000Y-1016000D02*
X40132000Y-2032000D01*
X37338000Y-1016000D02*
X39116000Y-1016000D01*
X32766000Y-2304000D02*
X36749000Y-2304000D01*
X40132000Y-5262000D02*
X40132000Y-2032000D01*
X42236000Y-7366000D02*
X40132000Y-5262000D01*
X36767000Y-2286000D02*
X36767000Y-1587000D01*
X36767000Y-1587000D02*
X37338000Y-1016000D01*
X36749000Y-2304000D02*
X36767000Y-2286000D01*
X43506000Y-6096000D02*
X45466000Y-6096000D01*
X45466000Y-6096000D02*
X46990000Y-7620000D01*
X46990000Y-24638000D02*
X44704000Y-26924000D01*
X46990000Y-7620000D02*
X46990000Y-24638000D01*
X42236000Y-4826000D02*
X43506000Y-6096000D01*
X46228000Y-8818000D02*
X46228000Y-22860000D01*
X46228000Y-22860000D02*
X44704000Y-24384000D01*
X44776000Y-7366000D02*
X46228000Y-8818000D01*
X35603000Y-32786000D02*
X34524000Y-32786000D01*
X34524000Y-32786000D02*
X33274000Y-34036000D01*
X37909000Y-30480000D02*
X37909000Y-27924500D01*
X37909000Y-30480000D02*
X35603000Y-32786000D01*
X37909000Y-27924500D02*
X37084000Y-27099500D01*
X30671000Y-29273000D02*
X29718000Y-30226000D01*
X32829000Y-27924500D02*
X32004000Y-27099500D01*
X32829000Y-30480000D02*
X32829000Y-29273000D01*
X32829000Y-29273000D02*
X30671000Y-29273000D01*
X29718000Y-30226000D02*
X29718000Y-33020000D01*
X29718000Y-33020000D02*
X30734000Y-34036000D01*
X32829000Y-29273000D02*
X32829000Y-27924500D01*
X27749000Y-33591000D02*
X28194000Y-34036000D01*
X27749000Y-27861500D02*
X26987000Y-27099500D01*
X27749000Y-30480000D02*
X27749000Y-33591000D01*
X27749000Y-30480000D02*
X27749000Y-27861500D01*
X22923000Y-27924500D02*
X22098000Y-27099500D01*
X22923000Y-31305000D02*
X25654000Y-34036000D01*
X22923000Y-30480000D02*
X22923000Y-31305000D01*
X22923000Y-30480000D02*
X22923000Y-27924500D01*
X26099000Y-25162500D02*
X26037000Y-25224500D01*
X25908000Y-22098000D02*
X24638000Y-23368000D01*
X26099000Y-22098000D02*
X25908000Y-22098000D01*
X26099000Y-22098000D02*
X26099000Y-25162500D01*
X31242000Y-25036500D02*
X31054000Y-25224500D01*
X31242000Y-22098000D02*
X31242000Y-25036500D01*
X30655500Y-25224500D02*
X29464000Y-26416000D01*
X31054000Y-25224500D02*
X30655500Y-25224500D01*
X21273000Y-20383000D02*
X21336000Y-20320000D01*
X21273000Y-22098000D02*
X21273000Y-25099500D01*
X21273000Y-25099500D02*
X21148000Y-25224500D01*
X21273000Y-22098000D02*
X21273000Y-20383000D01*
X36134000Y-28128000D02*
X34798000Y-29464000D01*
X37909000Y-22035000D02*
X40640000Y-22035000D01*
X36134000Y-25224500D02*
X36134000Y-23810000D01*
X36134000Y-25224500D02*
X36134000Y-28128000D01*
X36134000Y-23810000D02*
X37909000Y-22035000D01*
X27650000Y-4430000D02*
X27686000Y-4394000D01*
X27650000Y-7576000D02*
X27650000Y-4430000D01*
%TA.AperFunction,Conductor*%
G36*
X19246121Y-24150002D02*
G01*
X19292614Y-24203658D01*
X19304000Y-24256000D01*
X19304000Y-35365500D01*
X19283998Y-35433621D01*
X19230342Y-35480114D01*
X19178000Y-35491500D01*
X5714000Y-35491500D01*
X5645879Y-35471498D01*
X5599386Y-35417842D01*
X5588000Y-35365500D01*
X5588000Y-29302169D01*
X9784001Y-29302169D01*
X9784371Y-29308990D01*
X9789895Y-29359852D01*
X9793521Y-29375104D01*
X9838676Y-29495554D01*
X9847214Y-29511149D01*
X9923715Y-29613224D01*
X9936276Y-29625785D01*
X10038351Y-29702286D01*
X10053946Y-29710824D01*
X10174394Y-29755978D01*
X10189649Y-29759605D01*
X10240514Y-29765131D01*
X10247328Y-29765500D01*
X11919885Y-29765500D01*
X11935124Y-29761025D01*
X11936329Y-29759635D01*
X11938000Y-29751952D01*
X11938000Y-29747384D01*
X12446000Y-29747384D01*
X12450475Y-29762623D01*
X12451865Y-29763828D01*
X12459548Y-29765499D01*
X14136669Y-29765499D01*
X14143490Y-29765129D01*
X14194352Y-29759605D01*
X14209604Y-29755979D01*
X14330054Y-29710824D01*
X14345649Y-29702286D01*
X14447724Y-29625785D01*
X14460285Y-29613224D01*
X14536786Y-29511149D01*
X14545324Y-29495554D01*
X14590478Y-29375106D01*
X14594105Y-29359851D01*
X14599631Y-29308986D01*
X14600000Y-29302172D01*
X14600000Y-28529615D01*
X14595525Y-28514376D01*
X14594135Y-28513171D01*
X14586452Y-28511500D01*
X12464115Y-28511500D01*
X12448876Y-28515975D01*
X12447671Y-28517365D01*
X12446000Y-28525048D01*
X12446000Y-29747384D01*
X11938000Y-29747384D01*
X11938000Y-28529615D01*
X11933525Y-28514376D01*
X11932135Y-28513171D01*
X11924452Y-28511500D01*
X9802116Y-28511500D01*
X9786877Y-28515975D01*
X9785672Y-28517365D01*
X9784001Y-28525048D01*
X9784001Y-29302169D01*
X5588000Y-29302169D01*
X5588000Y-27985385D01*
X9784000Y-27985385D01*
X9788475Y-28000624D01*
X9789865Y-28001829D01*
X9797548Y-28003500D01*
X11919885Y-28003500D01*
X11935124Y-27999025D01*
X11936329Y-27997635D01*
X11938000Y-27989952D01*
X11938000Y-27985385D01*
X12446000Y-27985385D01*
X12450475Y-28000624D01*
X12451865Y-28001829D01*
X12459548Y-28003500D01*
X14581884Y-28003500D01*
X14597123Y-27999025D01*
X14598328Y-27997635D01*
X14599999Y-27989952D01*
X14599999Y-27212831D01*
X14599629Y-27206010D01*
X14594105Y-27155148D01*
X14590479Y-27139896D01*
X14545324Y-27019446D01*
X14536786Y-27003851D01*
X14460285Y-26901776D01*
X14447724Y-26889215D01*
X14345649Y-26812714D01*
X14330054Y-26804176D01*
X14209606Y-26759022D01*
X14194351Y-26755395D01*
X14143486Y-26749869D01*
X14136672Y-26749500D01*
X12464115Y-26749500D01*
X12448876Y-26753975D01*
X12447671Y-26755365D01*
X12446000Y-26763048D01*
X12446000Y-27985385D01*
X11938000Y-27985385D01*
X11938000Y-26767616D01*
X11933525Y-26752377D01*
X11932135Y-26751172D01*
X11924452Y-26749501D01*
X10247331Y-26749501D01*
X10240510Y-26749871D01*
X10189648Y-26755395D01*
X10174396Y-26759021D01*
X10053946Y-26804176D01*
X10038351Y-26812714D01*
X9936276Y-26889215D01*
X9923715Y-26901776D01*
X9847214Y-27003851D01*
X9838676Y-27019446D01*
X9793522Y-27139894D01*
X9789895Y-27155149D01*
X9784369Y-27206014D01*
X9784000Y-27212828D01*
X9784000Y-27985385D01*
X5588000Y-27985385D01*
X5588000Y-24256000D01*
X5608002Y-24187879D01*
X5661658Y-24141386D01*
X5714000Y-24130000D01*
X19178000Y-24130000D01*
X19246121Y-24150002D01*
G37*
%TD.AperFunction*%
%TA.AperFunction,Conductor*%
G36*
X21278121Y-528502D02*
G01*
X21324614Y-582158D01*
X21336000Y-634500D01*
X21336000Y-14860000D01*
X21315998Y-14928121D01*
X21262342Y-14974614D01*
X21210000Y-14986000D01*
X10032000Y-14986000D01*
X9963879Y-14965998D01*
X9917386Y-14912342D01*
X9906000Y-14860000D01*
X9906000Y-9818669D01*
X12056001Y-9818669D01*
X12056371Y-9825490D01*
X12061895Y-9876352D01*
X12065521Y-9891604D01*
X12110676Y-10012054D01*
X12119214Y-10027649D01*
X12195715Y-10129724D01*
X12208276Y-10142285D01*
X12310351Y-10218786D01*
X12325946Y-10227324D01*
X12446394Y-10272478D01*
X12461649Y-10276105D01*
X12512514Y-10281631D01*
X12519328Y-10282000D01*
X13291885Y-10282000D01*
X13307124Y-10277525D01*
X13308329Y-10276135D01*
X13310000Y-10268452D01*
X13310000Y-10263884D01*
X13818000Y-10263884D01*
X13822475Y-10279123D01*
X13823865Y-10280328D01*
X13831548Y-10281999D01*
X14608669Y-10281999D01*
X14615490Y-10281629D01*
X14666352Y-10276105D01*
X14681604Y-10272479D01*
X14802054Y-10227324D01*
X14817649Y-10218786D01*
X14919724Y-10142285D01*
X14932285Y-10129724D01*
X15008786Y-10027649D01*
X15017324Y-10012054D01*
X15062478Y-9891606D01*
X15066105Y-9876351D01*
X15071631Y-9825486D01*
X15072000Y-9818672D01*
X15072000Y-8146115D01*
X15067525Y-8130876D01*
X15066135Y-8129671D01*
X15058452Y-8128000D01*
X13836115Y-8128000D01*
X13820876Y-8132475D01*
X13819671Y-8133865D01*
X13818000Y-8141548D01*
X13818000Y-10263884D01*
X13310000Y-10263884D01*
X13310000Y-8146115D01*
X13305525Y-8130876D01*
X13304135Y-8129671D01*
X13296452Y-8128000D01*
X12074116Y-8128000D01*
X12058877Y-8132475D01*
X12057672Y-8133865D01*
X12056001Y-8141548D01*
X12056001Y-9818669D01*
X9906000Y-9818669D01*
X9906000Y-7601885D01*
X12056000Y-7601885D01*
X12060475Y-7617124D01*
X12061865Y-7618329D01*
X12069548Y-7620000D01*
X13291885Y-7620000D01*
X13307124Y-7615525D01*
X13308329Y-7614135D01*
X13310000Y-7606452D01*
X13310000Y-7601885D01*
X13818000Y-7601885D01*
X13822475Y-7617124D01*
X13823865Y-7618329D01*
X13831548Y-7620000D01*
X15053884Y-7620000D01*
X15069123Y-7615525D01*
X15070328Y-7614135D01*
X15071999Y-7606452D01*
X15071999Y-5929331D01*
X15071629Y-5922510D01*
X15066105Y-5871648D01*
X15062479Y-5856396D01*
X15017324Y-5735946D01*
X15008786Y-5720351D01*
X14932285Y-5618276D01*
X14919724Y-5605715D01*
X14817649Y-5529214D01*
X14802054Y-5520676D01*
X14681606Y-5475522D01*
X14666351Y-5471895D01*
X14615486Y-5466369D01*
X14608672Y-5466000D01*
X13836115Y-5466000D01*
X13820876Y-5470475D01*
X13819671Y-5471865D01*
X13818000Y-5479548D01*
X13818000Y-7601885D01*
X13310000Y-7601885D01*
X13310000Y-5484116D01*
X13305525Y-5468877D01*
X13304135Y-5467672D01*
X13296452Y-5466001D01*
X12519331Y-5466001D01*
X12512510Y-5466371D01*
X12461648Y-5471895D01*
X12446396Y-5475521D01*
X12325946Y-5520676D01*
X12310351Y-5529214D01*
X12208276Y-5605715D01*
X12195715Y-5618276D01*
X12119214Y-5720351D01*
X12110676Y-5735946D01*
X12065522Y-5856394D01*
X12061895Y-5871649D01*
X12056369Y-5922514D01*
X12056000Y-5929328D01*
X12056000Y-7601885D01*
X9906000Y-7601885D01*
X9906000Y-634500D01*
X9926002Y-566379D01*
X9979658Y-519886D01*
X10032000Y-508500D01*
X21210000Y-508500D01*
X21278121Y-528502D01*
G37*
%TD.AperFunction*%
M02*
